<svg width="133" height="33" viewBox="0 0 133 33" fill="none" xmlns="http://www.w3.org/2000/svg">
<path d="M64.9153 11.8096C64.1472 11.7938 63.3861 11.9568 62.6944 12.2852C62.003 12.6136 61.4004 13.098 60.9365 13.6988V6.79382H57.9374V24.491H60.8086V22.8192C61.216 23.4283 61.7787 23.9222 62.4408 24.2521C63.1029 24.5821 63.8413 24.7365 64.5829 24.7C67.7269 24.7 69.8227 22.2925 69.8227 18.213C69.8227 14.1335 67.9058 11.8096 64.9153 11.8096ZM63.8418 22.284C61.9503 22.284 60.8513 20.7627 60.8513 18.1043C60.8513 15.7302 62.1292 14.2255 63.944 14.2255C65.7587 14.2255 66.7044 15.7553 66.7044 18.2631C66.7044 20.9131 65.6054 22.284 63.8418 22.284Z" fill="black"/>
<path d="M46.4524 6.79382L39.6365 24.491H43.1381L44.5952 20.3112H51.7264L53.1576 24.491H56.6765L50.082 6.79382H46.4524ZM45.3874 17.8535C46.9721 13.4815 47.6111 11.7594 48.1565 9.97882C49.0085 12.5619 49.8604 14.9946 50.8913 17.8535H45.3874Z" fill="black"/>
<path d="M118.574 22.3927C116.606 22.3927 115.43 20.9382 115.43 18.2129C115.43 15.4292 116.768 14.1502 118.506 14.1502C119.707 14.1502 120.627 14.7019 120.985 16.3571L123.678 15.4543C123.422 14.3324 122.767 13.337 121.829 12.6473C120.892 11.9576 119.734 11.619 118.565 11.6925C114.757 11.6925 112.354 14.2004 112.354 18.2631C112.354 22.3259 114.706 24.8839 118.412 24.8839C119.581 24.957 120.741 24.6435 121.706 23.9932C122.671 23.3431 123.387 22.3938 123.737 21.2976L121.045 20.3948C120.968 20.9732 120.67 21.5015 120.211 21.8724C119.753 22.2434 119.167 22.4294 118.574 22.3927Z" fill="black"/>
<path d="M110.352 21.1305V16.5996C110.352 14.6435 110.08 13.6152 109.287 12.8796C108.765 12.4424 108.159 12.111 107.506 11.9044C106.852 11.6978 106.163 11.6201 105.479 11.6758C102.224 11.6758 100.171 13.1806 99.9664 15.8556L102.838 16.1315C102.833 15.8307 102.894 15.5325 103.017 15.2567C103.139 14.9808 103.32 14.7338 103.547 14.5321C103.774 14.3303 104.043 14.1785 104.335 14.0867C104.627 13.9949 104.936 13.9653 105.24 13.9998C105.878 13.9468 106.512 14.1353 107.012 14.5264C107.192 14.7325 107.328 14.9719 107.411 15.2304C107.494 15.4889 107.524 15.7612 107.498 16.0312V16.7083C105.546 16.7735 103.614 17.12 101.764 17.7365C101.066 17.9823 100.465 18.4378 100.046 19.038C99.6267 19.6383 99.4112 20.353 99.4296 21.0803C99.4296 23.3124 101.074 24.7501 103.4 24.7501C104.187 24.7887 104.973 24.6481 105.696 24.3391C106.418 24.0303 107.059 23.5615 107.566 22.9696C107.847 24.2152 108.742 24.6416 110.344 24.6416C110.809 24.6505 111.273 24.5826 111.715 24.4409V22.5683C110.565 22.7691 110.352 22.1086 110.352 21.1305ZM107.498 19.2412C107.511 19.9401 107.319 20.628 106.944 21.2224C106.649 21.6419 106.25 21.9814 105.786 22.2094C105.321 22.4373 104.805 22.5465 104.286 22.5264C102.948 22.5264 102.335 21.8494 102.335 20.9466C102.323 20.6066 102.424 20.2721 102.624 19.9943C102.824 19.7164 103.112 19.5106 103.443 19.4084C104.745 18.9379 106.119 18.6837 107.507 18.6561L107.498 19.2412Z" fill="black"/>
<path d="M78.9475 15.655L81.1714 14.1753C80.6335 13.3632 79.8876 12.7041 79.0084 12.2639C78.1292 11.8237 77.1474 11.6181 76.1617 11.6675C73.0093 11.6675 71.2284 13.4815 71.2284 15.4377C71.2284 17.3938 72.4809 18.4722 74.4491 19.074L75.8038 19.5004C77.7207 20.1023 78.1553 20.4534 78.1553 21.281C78.1553 22.1086 77.4396 22.5935 76.136 22.5935C75.448 22.596 74.7736 22.4041 74.1935 22.041C73.6133 21.6779 73.1521 21.1587 72.8644 20.5453L70.53 22.05C71.1169 22.9377 71.9269 23.6624 72.8817 24.1544C73.8367 24.6463 74.9046 24.8889 75.9827 24.8588C79.1521 24.8588 81.0947 23.187 81.0947 20.8713C81.0947 18.8651 79.8167 17.8368 77.5674 17.1346L76.2723 16.7334C74.6365 16.2318 74.2275 15.8974 74.2275 15.1283C74.2275 14.3593 74.8411 13.8911 76.119 13.8911C76.7107 13.8993 77.2886 14.0685 77.7879 14.3799C78.2875 14.6914 78.6889 15.1328 78.9475 15.655Z" fill="black"/>
<path d="M130.723 22.3678C129.803 22.3678 129.428 21.9163 129.428 20.6289V14.3676H131.899V12.0186H129.428V7.93909H126.455L126.404 12.0186H124.402V14.3676H126.404V21.2057C126.309 22.1422 126.563 23.0805 127.12 23.8473C127.457 24.1813 127.866 24.4366 128.317 24.5944C128.769 24.7521 129.25 24.8082 129.727 24.7586C130.48 24.7521 131.229 24.6567 131.959 24.4743V22.142C131.563 22.2842 131.145 22.3607 130.723 22.3678Z" fill="black"/>
<path d="M87.2291 20.6289V14.3676H89.6914V12.0186H87.2291V7.93909H84.2557L84.2044 12.0186H82.2364V14.3676H84.2384V21.2057C84.1442 22.1422 84.3983 23.0805 84.9541 23.8473C85.2913 24.1813 85.7007 24.4366 86.1519 24.5944C86.6033 24.7521 87.0849 24.8082 87.5613 24.7586C88.3142 24.7521 89.0638 24.6567 89.7936 24.4743V22.142C89.3973 22.2842 88.9798 22.3607 88.5581 22.3678C87.604 22.3678 87.2291 21.9163 87.2291 20.6289Z" fill="black"/>
<path d="M94.2495 13.9496V12.0186H91.3867V24.5578H94.3858V18.7062C94.3002 17.7101 94.5195 16.7117 95.0163 15.8389C95.316 15.4118 95.7273 15.0717 96.2068 14.854C96.6864 14.6363 97.2168 14.5492 97.7427 14.6017C98.1149 14.604 98.4848 14.6575 98.8417 14.7605V12.0186C98.4868 11.907 98.1153 11.8533 97.7427 11.8597C97.014 11.8242 96.2913 12.0045 95.6682 12.3772C95.0454 12.7499 94.5511 13.2977 94.2495 13.9496Z" fill="black"/>
<path d="M14.4517 15.5437C13.9834 15.544 13.5209 15.6456 13.0971 15.8412C12.6733 16.0368 12.2987 16.3216 11.9998 16.6753C11.7009 17.0291 11.4851 17.4431 11.3678 17.8879C11.2505 18.3328 11.2345 18.7975 11.3209 19.2491C11.4357 19.8649 11.7356 20.4329 12.1821 20.88C12.6286 21.3271 13.2012 21.6328 13.8263 21.7579C14.4514 21.883 15.1004 21.8217 15.6896 21.5818C16.2789 21.342 16.7816 20.9346 17.1329 20.4121C17.4845 19.8972 17.6723 19.2914 17.6724 18.6717C17.6625 17.8423 17.3256 17.0489 16.7324 16.458C16.4328 16.1651 16.0769 15.9335 15.6854 15.7766C15.2939 15.6196 14.8746 15.5405 14.4517 15.5437Z" fill="black"/>
<path d="M17.1329 0C4.05393 0 0.78418 3.20819 0.78418 16.0409C0.78418 28.8737 4.05393 32.0819 17.1329 32.0819C30.2119 32.0819 33.4817 28.8737 33.4817 16.0409C33.4817 3.20819 30.2119 0 17.1329 0ZM18.8741 23.0107C17.8554 24.0226 16.5102 24.6558 15.0683 24.8022C13.6264 24.9483 12.1776 24.5988 10.9694 23.8128C9.94345 23.1333 9.1422 22.1742 8.66427 21.0537C8.19434 19.9317 8.07209 18.6986 8.31278 17.5087C8.54995 16.317 9.14491 15.222 10.0212 14.3647C10.6727 13.7201 11.4614 13.225 12.3309 12.9149C13.2003 12.6048 14.129 12.4873 15.0502 12.5708C15.9714 12.6544 16.8624 12.937 17.6592 13.3982C18.456 13.8595 19.1388 14.4881 19.6588 15.2389C20.4592 16.423 20.8153 17.8433 20.6662 19.2566C20.5171 20.67 19.872 21.9885 18.8414 22.9867L18.8741 23.0107ZM25.8223 24.5667H22.7569V10.5309H8.45174V7.5232H25.8223V24.5667Z" fill="black"/>
</svg>
