<svg width="126" height="33" viewBox="0 0 126 33" fill="none" xmlns="http://www.w3.org/2000/svg">
<path d="M54.104 21.3907L52.7544 25.4869C52.7367 25.5533 52.6964 25.6117 52.6401 25.6522C52.5839 25.6927 52.5151 25.713 52.4454 25.7097H49.1693C48.9733 25.7097 48.9153 25.5983 48.9456 25.4379L54.5733 9.45267C54.7607 8.90868 54.854 8.33756 54.8492 7.76316C54.847 7.71591 54.8631 7.66957 54.8943 7.6337C54.9258 7.5978 54.9699 7.57512 55.0177 7.57031H59.5191C59.6599 7.57031 59.7151 7.59747 59.7455 7.736L66.1319 25.4597C66.1872 25.5983 66.1596 25.7097 65.9911 25.7097H62.3397C62.2727 25.7208 62.2039 25.7075 62.1464 25.6718C62.0889 25.6362 62.0466 25.5809 62.028 25.5167L60.5928 21.3907H54.104ZM59.5632 17.9275C59.0113 16.0994 57.8743 12.7502 57.3416 10.7836H57.314C56.8612 12.6389 55.8485 15.673 55.1059 17.9275H59.5632Z" fill="#FA0F00"/>
<path d="M66.5817 18.9514C66.5817 14.9911 69.593 11.669 74.743 11.669C74.9666 11.669 75.248 11.6962 75.6704 11.7234V6.2691C75.6672 6.24303 75.6702 6.21663 75.679 6.19184C75.6876 6.16706 75.7021 6.14454 75.7209 6.12598C75.7397 6.10742 75.7625 6.09332 75.7877 6.0847C75.813 6.0761 75.8397 6.0732 75.8662 6.07625H79.4128C79.5536 6.07625 79.5812 6.13057 79.5812 6.24194V22.6074C79.5738 23.2829 79.6116 23.958 79.6944 24.6284C79.6944 24.7669 79.6668 24.824 79.4984 24.8783C77.7449 25.6118 75.859 25.9887 73.9536 25.9865C69.7888 25.9865 66.5817 23.6614 66.5817 18.9514ZM75.6704 15.0209C75.3349 14.913 74.9822 14.866 74.6298 14.8824C72.4631 14.8824 70.6058 16.1835 70.6058 18.7585C70.6058 21.4992 72.2094 22.6916 74.3484 22.6916C74.7953 22.7101 75.2423 22.6542 75.6704 22.5259V15.0209Z" fill="#FA0F00"/>
<path d="M95.6966 18.7585C95.6966 23.1045 92.8261 25.9865 88.7745 25.9865C83.9613 25.9865 81.8251 22.4147 81.8251 18.8428C81.8251 14.9096 84.4967 11.6691 88.8297 11.6691C93.3617 11.6691 95.6966 15.021 95.6966 18.7585ZM85.7911 18.7857C85.7911 21.2304 86.9447 22.7732 88.827 22.7732C90.461 22.7732 91.6974 21.3906 91.6974 18.8428C91.6974 16.6697 90.7976 14.8824 88.6615 14.8824C87.0303 14.8824 85.7911 16.3221 85.7911 18.7857Z" fill="#FA0F00"/>
<path d="M101.611 6.07629C101.835 6.07629 101.887 6.10345 101.887 6.2963V11.9733C102.658 11.7703 103.452 11.668 104.25 11.6691C108.39 11.6691 111.003 14.5483 111.003 18.2588C111.003 23.4387 106.838 25.9865 102.563 25.9865C101.067 25.9968 99.5777 25.7816 98.1475 25.3482C98.0977 25.3213 98.0561 25.2821 98.0266 25.2344C97.9972 25.1867 97.9807 25.1324 97.9791 25.0767V6.26914C97.9791 6.13061 98.0343 6.07629 98.1751 6.07629H101.611ZM103.543 14.9368C102.983 14.9299 102.425 15.005 101.887 15.1595V22.6781C102.229 22.7545 102.578 22.791 102.928 22.7868C105.067 22.7868 107.007 21.5129 107.007 18.6336C107.013 16.0993 105.522 14.9368 103.552 14.9368H103.543Z" fill="#FA0F00"/>
<path d="M116.509 19.8396C116.65 21.4178 117.776 22.7188 120.533 22.7188C121.719 22.7413 122.897 22.5241 123.994 22.0805C124.08 22.0262 124.163 22.0534 124.163 22.2191V24.8512C124.163 25.0439 124.108 25.1228 123.967 25.1825C122.841 25.7096 121.604 25.9974 119.661 25.9974C114.37 25.9974 112.516 22.4254 112.516 18.9921C112.516 15.1704 114.906 11.6799 119.325 11.6799C123.572 11.6799 125.261 14.9204 125.261 17.6557C125.281 18.2773 125.234 18.8992 125.12 19.5109C125.117 19.5688 125.091 19.6232 125.05 19.6642C125.008 19.7052 124.953 19.7299 124.894 19.7337C123.931 19.8233 122.963 19.8604 121.996 19.845L116.509 19.8396ZM120.169 17.1532C120.638 17.1701 121.108 17.151 121.574 17.0962V16.9033C121.566 16.6043 121.497 16.3098 121.372 16.0371C121.247 15.7644 121.068 15.519 120.846 15.3152C120.623 15.1114 120.362 14.9532 120.076 14.85C119.791 14.7468 119.488 14.7006 119.184 14.714C117.412 14.714 116.65 16.0178 116.482 17.1586L120.169 17.1532Z" fill="#FA0F00"/>
<path d="M23.2481 0H36.8629V32.0819L23.2481 0Z" fill="#FA0F00"/>
<path d="M13.6542 0H0.0283203V32.0819L13.6542 0Z" fill="#FA0F00"/>
<path d="M18.451 11.824L27.1255 32.0819H21.44L18.8457 25.6308H12.4978L18.451 11.824Z" fill="#FA0F00"/>
</svg>
