<svg width="151" height="33" viewBox="0 0 151 33" fill="none" xmlns="http://www.w3.org/2000/svg">
<path d="M60.6734 18.4684L58.0603 11.5517C57.9537 11.2688 57.5462 11.2688 57.4393 11.5517L54.8267 18.4688C54.8081 18.518 54.802 18.5708 54.8085 18.6228C54.8154 18.6749 54.8349 18.7245 54.8653 18.7675C54.8959 18.8106 54.9365 18.8457 54.9839 18.87C55.0311 18.8943 55.0838 18.9069 55.1373 18.9069H60.3628C60.4161 18.9069 60.4688 18.8942 60.5162 18.8699C60.5634 18.8456 60.604 18.8105 60.6346 18.7674C60.665 18.7243 60.6846 18.6747 60.6911 18.6226C60.6979 18.5706 60.6918 18.5178 60.6732 18.4686L60.6734 18.4684ZM61.8805 22.3562H53.6196C53.552 22.3562 53.4862 22.3765 53.4306 22.4144C53.3753 22.4523 53.3328 22.506 53.3093 22.5681L51.6829 26.872C51.6595 26.9341 51.6171 26.9878 51.5617 27.0257C51.5062 27.0636 51.4401 27.0839 51.3725 27.0839H47.7922C47.738 27.0839 47.6846 27.0709 47.637 27.046C47.5891 27.021 47.5483 26.9849 47.5179 26.9408C47.4877 26.8969 47.4686 26.8461 47.463 26.7933C47.4573 26.7405 47.4648 26.6871 47.4847 26.6378L55.7281 6.47345C55.7529 6.41321 55.7953 6.36164 55.8502 6.32532C55.9049 6.28901 55.9695 6.26962 56.0358 6.26969H59.4641C59.5991 6.26969 59.7207 6.35032 59.7713 6.47345L68.0145 26.6376C68.0347 26.6868 68.0424 26.7403 68.0365 26.7933C68.0308 26.8461 68.012 26.8969 67.9816 26.9411C67.9514 26.9852 67.9103 27.0213 67.8625 27.0462C67.8148 27.0712 67.7613 27.0841 67.7073 27.0841H64.1274C64.0598 27.0841 63.9938 27.0638 63.9382 27.0257C63.8828 26.9878 63.8404 26.9341 63.817 26.872L62.1904 22.5681C62.1668 22.506 62.1246 22.4523 62.069 22.4144C62.0137 22.3765 61.9477 22.3562 61.88 22.3562H61.8805ZM69.6921 13.3464H72.7545C72.8423 13.3464 72.9264 13.3806 72.9886 13.4416C73.0505 13.5026 73.0855 13.5852 73.0855 13.6715V26.7588C73.0855 26.845 73.0505 26.9277 72.9886 26.9887C72.9264 27.0496 72.8423 27.0839 72.7545 27.0839H69.6921C69.6043 27.0839 69.5199 27.0496 69.458 26.9887C69.3958 26.9277 69.3609 26.845 69.3609 26.7588V13.6713C69.3609 13.585 69.3958 13.5024 69.458 13.4413C69.5199 13.3804 69.6043 13.3461 69.6921 13.3461V13.3464ZM84.2542 16.5298C84.2542 16.6161 84.2192 16.6988 84.1571 16.7597C84.0951 16.8207 84.0107 16.855 83.9229 16.855H83.8303C82.3161 16.855 81.2055 17.2118 80.4991 17.9254C79.7921 18.639 79.4393 19.8187 79.4393 21.4639V26.7588C79.4393 26.845 79.4044 26.9277 79.3425 26.9887C79.2803 27.0496 79.1961 27.0839 79.1083 27.0839H76.0759C75.9881 27.0839 75.9039 27.0496 75.8418 26.9887C75.7796 26.9277 75.7449 26.845 75.7449 26.7588V13.6713C75.7449 13.585 75.7796 13.5024 75.8418 13.4413C75.9039 13.3804 75.9881 13.3461 76.0759 13.3461H79.0779C79.1657 13.3461 79.2499 13.3804 79.312 13.4413C79.374 13.5024 79.4089 13.585 79.4089 13.6713V16.2599H79.4697C79.833 15.1895 80.4084 14.3673 81.1959 13.792C81.983 13.2174 82.9521 12.9297 84.1026 12.9297H84.2542V16.5296V16.5298ZM92.6276 16.4089C92.5398 16.4089 92.4554 16.4431 92.3934 16.5041C92.3313 16.5651 92.2963 16.6478 92.2963 16.734V22.1775C92.2963 22.7328 92.4068 23.1291 92.6292 23.367C92.8511 23.6048 93.2347 23.7237 93.78 23.7237H94.0847C94.1725 23.7237 94.2569 23.758 94.3188 23.8191C94.381 23.8799 94.4159 23.9626 94.4159 24.049V26.7882C94.4159 26.8744 94.381 26.9571 94.3188 27.0181C94.2569 27.0792 94.1725 27.1133 94.0847 27.1133H92.7805C91.428 27.1133 90.3884 26.7715 89.6617 26.0875C88.9347 25.4038 88.5712 24.3881 88.5712 23.0398V16.734C88.5712 16.6478 88.5363 16.5651 88.4743 16.5041C88.4122 16.4431 88.328 16.4089 88.2402 16.4089H86.3286C86.2408 16.4089 86.1567 16.3746 86.0945 16.3136C86.0323 16.2526 85.9974 16.1699 85.9974 16.0837V13.6713C85.9974 13.585 86.0323 13.5024 86.0945 13.4413C86.1567 13.3804 86.2408 13.3461 86.3286 13.3461H88.2404C88.3282 13.3461 88.4124 13.3119 88.4746 13.2509C88.5365 13.1899 88.5715 13.1072 88.5715 13.021V8.17032C88.5715 8.08408 88.6064 8.00138 88.6686 7.9404C88.7305 7.87942 88.8149 7.84515 88.9027 7.84515H91.9651C92.0529 7.84515 92.137 7.87942 92.1992 7.9404C92.2612 8.00138 92.2961 8.08408 92.2961 8.17032V13.021C92.2961 13.1072 92.331 13.1899 92.3932 13.2509C92.4551 13.3119 92.5395 13.3461 92.6274 13.3461H94.8418C94.9296 13.3461 95.0138 13.3804 95.076 13.4413C95.1379 13.5024 95.1728 13.585 95.1728 13.6713V16.0839C95.1728 16.1702 95.1379 16.2529 95.076 16.3138C95.0138 16.3748 94.9296 16.4091 94.8418 16.4091H92.6276V16.4089ZM106.65 23.0101C107.347 22.2965 107.695 21.3649 107.695 20.2149C107.695 19.0656 107.347 18.1335 106.65 17.4199C105.954 16.7063 105.04 16.3495 103.909 16.3495C102.779 16.3495 101.866 16.7063 101.169 17.4199C100.473 18.1335 100.125 19.0656 100.125 20.2149C100.125 21.3649 100.473 22.2965 101.169 23.0101C101.866 23.7237 102.779 24.0806 103.909 24.0806C105.04 24.0806 105.954 23.7237 106.65 23.0101ZM99.5795 26.6675C98.5499 26.0929 97.7369 25.255 97.1418 24.1548C96.546 23.0547 96.2483 21.7416 96.2483 20.2149C96.2483 18.6888 96.546 17.3752 97.1418 16.2751C97.7369 15.175 98.5499 14.3378 99.5795 13.7625C100.609 13.1877 101.739 12.9002 102.971 12.9002C104.061 12.9002 104.995 13.1083 105.772 13.5245C106.549 13.9407 107.17 14.5258 107.634 15.2791H107.695V13.6713C107.695 13.585 107.73 13.5024 107.792 13.4413C107.854 13.3804 107.938 13.3461 108.026 13.3461H111.058C111.146 13.3461 111.23 13.3804 111.292 13.4413C111.354 13.5024 111.389 13.585 111.389 13.6713V26.7586C111.389 26.8448 111.354 26.9275 111.292 26.9885C111.23 27.0493 111.146 27.0836 111.058 27.0836H108.026C107.938 27.0836 107.854 27.0493 107.792 26.9885C107.73 26.9275 107.695 26.8448 107.695 26.7586V25.1509H107.634C107.17 25.9046 106.549 26.489 105.772 26.9052C104.995 27.3216 104.061 27.5297 102.971 27.5297C101.739 27.5297 100.609 27.242 99.5795 26.6675ZM124 23.0101C124.696 22.2965 125.044 21.3649 125.044 20.2149C125.044 19.0656 124.696 18.1335 124 17.4199C123.303 16.7063 122.39 16.3495 121.259 16.3495C120.129 16.3495 119.215 16.7063 118.519 17.4199C117.822 18.1335 117.474 19.0656 117.474 20.2149C117.474 21.3649 117.822 22.2965 118.519 23.0101C119.215 23.7237 120.129 24.0806 121.259 24.0806C122.39 24.0806 123.303 23.7237 124 23.0101ZM119.397 26.9052C118.619 26.489 117.999 25.9046 117.534 25.1509H117.474V26.7586C117.474 26.8448 117.439 26.9275 117.377 26.9885C117.315 27.0493 117.23 27.0836 117.143 27.0836H114.08C113.993 27.0836 113.908 27.0493 113.846 26.9885C113.784 26.9275 113.749 26.8448 113.749 26.7586V6.59418C113.749 6.50794 113.784 6.42524 113.846 6.36426C113.908 6.30329 113.993 6.26904 114.08 6.26904H117.143C117.23 6.26904 117.315 6.30329 117.377 6.36426C117.439 6.42524 117.474 6.50794 117.474 6.59418V15.2788H117.534C117.999 14.5256 118.619 13.9407 119.397 13.5245C120.174 13.1081 121.108 12.9 122.198 12.9C123.429 12.9 124.56 13.1875 125.59 13.7623C126.619 14.3376 127.432 15.1748 128.027 16.2747C128.623 17.3754 128.921 18.6891 128.921 20.2151C128.921 21.7418 128.623 23.0547 128.028 24.1551C127.432 25.2552 126.619 26.0931 125.59 26.6675C124.56 27.2423 123.43 27.5301 122.198 27.5301C121.108 27.5301 120.174 27.3218 119.397 26.9054L119.397 26.9052ZM134.08 27.0839H131.018C130.93 27.0839 130.846 27.0496 130.784 26.9887C130.722 26.9277 130.687 26.845 130.687 26.7588V6.59483C130.687 6.50861 130.722 6.42589 130.784 6.36491C130.846 6.30393 130.93 6.26969 131.018 6.26969H134.08C134.168 6.26969 134.252 6.30393 134.315 6.36491C134.377 6.42589 134.412 6.50861 134.412 6.59483V26.7588C134.412 26.845 134.377 26.9277 134.315 26.9887C134.252 27.0496 134.168 27.0839 134.08 27.0839ZM141.304 16.5281C140.796 16.917 140.453 17.4784 140.276 18.2128C140.227 18.4153 140.388 18.6095 140.6 18.6095H146.428C146.63 18.6095 146.789 18.4318 146.757 18.2358C146.64 17.5411 146.337 16.9872 145.846 16.5727C145.271 16.0872 144.519 15.8444 143.59 15.8444C142.661 15.8444 141.899 16.0722 141.304 16.5281ZM148.768 14.8182C149.96 16.0972 150.555 17.9061 150.555 20.2448V20.6333C150.555 20.7195 150.52 20.8022 150.458 20.8632C150.396 20.9242 150.312 20.9584 150.224 20.9584H140.488C140.439 20.9585 140.391 20.969 140.347 20.9891C140.303 21.0093 140.264 21.0386 140.233 21.0751C140.202 21.1115 140.179 21.1542 140.167 21.2002C140.154 21.2462 140.152 21.2943 140.16 21.3412C140.315 22.21 140.707 22.9003 141.334 23.4116C142.051 23.9969 142.954 24.2889 144.045 24.2889C145.452 24.2889 146.755 23.7496 147.952 22.6706C148.099 22.5389 148.331 22.5668 148.444 22.727L149.933 24.8254C149.98 24.8907 150 24.9705 149.991 25.0498C149.982 25.1289 149.943 25.2019 149.882 25.255C149.152 25.883 148.339 26.413 147.466 26.8312C146.497 27.2968 145.356 27.5301 144.045 27.5301C142.531 27.5301 141.208 27.2273 140.077 26.6231C138.947 26.0187 138.069 25.1663 137.443 24.0657C136.817 22.9658 136.504 21.6922 136.504 20.2448C136.504 18.7981 136.807 17.5196 137.413 16.4091C138.018 15.2992 138.866 14.4369 139.957 13.8221C141.047 13.208 142.318 12.9004 143.772 12.9004C145.911 12.9004 147.577 13.5399 148.768 14.8182ZM73.4855 8.50805C73.4855 9.73453 72.4729 10.7288 71.2236 10.7288C69.9741 10.7288 68.9615 9.73453 68.9615 8.50782C68.9615 7.28114 69.9744 6.2868 71.2236 6.2868C72.4729 6.2868 73.4855 7.28114 73.4855 8.50782" fill="#333333"/>
<path d="M17.8794 0.404798L3.31817 6.32109C2.50843 6.65015 2.51682 7.77972 3.33165 8.09686L17.9536 13.7905C19.2383 14.2909 20.669 14.2909 21.9537 13.7905L36.5759 8.09664C37.3904 7.77972 37.3992 6.65035 36.589 6.32131L22.0283 0.404581C20.6999 -0.135186 19.2076 -0.135186 17.8792 0.404581" fill="#FCB400"/>
<path d="M21.251 16.8994V31.1232C21.251 31.7994 21.9457 32.2628 22.5861 32.0137L38.8795 25.8036C39.0612 25.7328 39.2171 25.6103 39.3269 25.4514C39.4367 25.2926 39.4953 25.105 39.4953 24.9132V10.6896C39.4953 10.013 38.8005 9.54978 38.1602 9.79909L21.8669 16.0091C21.6852 16.0799 21.5293 16.2026 21.4195 16.3614C21.3097 16.5202 21.251 16.7077 21.251 16.8996" fill="#18BFFF"/>
<path d="M17.4462 17.6334L12.6108 19.9259L12.1198 20.1589L1.91235 24.9615C1.26553 25.2681 0.439453 24.8049 0.439453 24.0991V10.7492C0.439453 10.4938 0.572791 10.2734 0.751605 10.1075C0.824963 10.0358 0.908189 9.97452 0.998854 9.92546C1.24257 9.78174 1.59049 9.74337 1.8863 9.85827L17.365 15.8806C18.1518 16.1871 18.2136 17.2696 17.4462 17.6336" fill="#F82B60"/>
<path d="M17.4462 17.6334L12.6107 19.9259L0.751587 10.1073C0.824959 10.0357 0.908182 9.97445 0.998836 9.92546C1.24255 9.78174 1.59047 9.74337 1.88628 9.85827L17.365 15.8805C18.1518 16.1871 18.2136 17.2696 17.4462 17.6336" fill="black" fill-opacity="0.25"/>
</svg>
