<svg width="162" height="162" viewBox="0 0 162 162" fill="none" xmlns="http://www.w3.org/2000/svg">
<rect width="162" height="162" fill="#F5F5F5"/>
<g clip-path="url(#clip0_0_1)">
<rect width="1512" height="7562" transform="translate(-1004 -3514)" fill="white"/>
<rect width="1512" height="1545" transform="translate(-1004 -988)" fill="#010A0F"/>
<g opacity="0.1">
<g filter="url(#filter0_b_0_1)">
<path d="M-175.984 -487.951C-41.1891 -476.158 61.9242 -338.826 48.1817 -181.749C34.4392 -24.6715 -97.1937 95.1345 -231.989 83.3415" stroke="url(#paint0_radial_0_1)" stroke-opacity="0.9" stroke-width="14"/>
<path d="M-175.984 -487.951C-41.1891 -476.158 61.9242 -338.826 48.1817 -181.749C34.4392 -24.6715 -97.1937 95.1345 -231.989 83.3415" stroke="url(#paint1_radial_0_1)" stroke-opacity="0.9" stroke-width="14"/>
<path d="M-175.984 -487.951C-41.1891 -476.158 61.9242 -338.826 48.1817 -181.749C34.4392 -24.6715 -97.1937 95.1345 -231.989 83.3415" stroke="url(#paint2_radial_0_1)" stroke-opacity="0.9" stroke-width="14"/>
<path d="M-175.984 -487.951C-41.1891 -476.158 61.9242 -338.826 48.1817 -181.749C34.4392 -24.6715 -97.1937 95.1345 -231.989 83.3415" stroke="url(#paint3_radial_0_1)" stroke-opacity="0.9" stroke-width="14"/>
<path d="M-175.984 -487.951C-41.1891 -476.158 61.9242 -338.826 48.1817 -181.749C34.4392 -24.6715 -97.1937 95.1345 -231.989 83.3415" stroke="url(#paint4_radial_0_1)" stroke-opacity="0.9" stroke-width="14"/>
</g>
<path d="M39.9631 -182.468C53.6968 -339.445 -44.3715 -476.186 -178.994 -487.964C-313.62 -499.742 -439.183 -379.551 -452.917 -222.578C-466.65 -65.6009 -368.582 71.1402 -233.959 82.9182C-99.3334 94.6964 26.2297 -25.4943 39.9631 -182.468Z" fill="url(#paint5_linear_0_1)"/>
<path d="M39.9631 -182.468C53.6968 -339.445 -44.3715 -476.186 -178.994 -487.964C-313.62 -499.742 -439.183 -379.551 -452.917 -222.578C-466.65 -65.6009 -368.582 71.1402 -233.959 82.9182C-99.3334 94.6964 26.2297 -25.4943 39.9631 -182.468Z" stroke="url(#paint6_radial_0_1)" stroke-width="0.5"/>
<path d="M39.9631 -182.468C53.6968 -339.445 -44.3715 -476.186 -178.994 -487.964C-313.62 -499.742 -439.183 -379.551 -452.917 -222.578C-466.65 -65.6009 -368.582 71.1402 -233.959 82.9182C-99.3334 94.6964 26.2297 -25.4943 39.9631 -182.468Z" stroke="url(#paint7_linear_0_1)" stroke-opacity="0.05" stroke-width="0.5"/>
<g filter="url(#filter1_iii_0_1)">
<path d="M15.3638 -185.472C27.7177 -326.677 -60.4988 -449.741 -181.673 -460.342C-302.848 -470.944 -419.057 -360.046 -431.411 -218.841C-443.764 -77.6353 -355.548 45.4283 -234.373 56.0297C-113.199 66.6311 3.00997 -44.2663 15.3638 -185.472Z" fill="#0A0C0E" fill-opacity="0.1"/>
</g>
<path d="M14.8657 -185.515C27.202 -326.52 -60.8863 -449.273 -181.717 -459.844C-302.554 -470.416 -418.577 -359.794 -430.912 -218.797C-443.249 -77.7926 -355.16 44.9603 -234.33 55.5316C-113.492 66.1035 2.53013 -44.5186 14.8657 -185.515Z" stroke="url(#paint8_linear_0_1)" stroke-opacity="0.15"/>
<path d="M14.8657 -185.515C27.202 -326.52 -60.8863 -449.273 -181.717 -459.844C-302.554 -470.416 -418.577 -359.794 -430.912 -218.797C-443.249 -77.7926 -355.16 44.9603 -234.33 55.5316C-113.492 66.1035 2.53013 -44.5186 14.8657 -185.515Z" stroke="url(#paint9_linear_0_1)" stroke-opacity="0.25"/>
</g>
<g filter="url(#filter2_bii_0_1)">
<rect x="-228" y="-64" width="620" height="516" rx="10" fill="white" fill-opacity="0.03"/>
<path fill-rule="evenodd" clip-rule="evenodd" d="M78.5135 52.5668C67.6567 64.5977 69.8603 83.1925 81.979 93.9707C94.0977 104.749 112.708 102.551 123.565 90.5204L156.486 54.292C167.343 42.2611 165.14 23.6662 153.021 12.888C140.902 2.1098 122.292 4.30744 111.435 16.3383L78.5135 52.5668Z" fill="url(#paint10_linear_0_1)"/>
<g filter="url(#filter3_bii_0_1)">
<circle cx="81" cy="81.4294" r="80.5" fill="white" fill-opacity="0.03"/>
</g>
<path opacity="0.8" d="M76.6746 81.8993V96H57L78.8935 53L107 96H84.8107" stroke="#41BFB3" stroke-width="8"/>
<rect x="-227.5" y="-63.5" width="619" height="515" rx="9.5" stroke="white" stroke-opacity="0.1"/>
</g>
</g>
<defs>
<filter id="filter0_b_0_1" x="-267.599" y="-529.925" width="359.007" height="656.07" filterUnits="userSpaceOnUse" color-interpolation-filters="sRGB">
<feFlood flood-opacity="0" result="BackgroundImageFix"/>
<feGaussianBlur in="BackgroundImageFix" stdDeviation="17.5"/>
<feComposite in2="SourceAlpha" operator="in" result="effect1_backgroundBlur_0_1"/>
<feBlend mode="normal" in="SourceGraphic" in2="effect1_backgroundBlur_0_1" result="shape"/>
</filter>
<filter id="filter1_iii_0_1" x="-436.565" y="-465.044" width="457.083" height="525.775" filterUnits="userSpaceOnUse" color-interpolation-filters="sRGB">
<feFlood flood-opacity="0" result="BackgroundImageFix"/>
<feBlend mode="normal" in="SourceGraphic" in2="BackgroundImageFix" result="shape"/>
<feColorMatrix in="SourceAlpha" type="matrix" values="0 0 0 0 0 0 0 0 0 0 0 0 0 0 0 0 0 0 127 0" result="hardAlpha"/>
<feOffset dx="4" dy="-6"/>
<feGaussianBlur stdDeviation="2"/>
<feComposite in2="hardAlpha" operator="arithmetic" k2="-1" k3="1"/>
<feColorMatrix type="matrix" values="0 0 0 0 0.316667 0 0 0 0 0.316667 0 0 0 0 0.316667 0 0 0 0.25 0"/>
<feBlend mode="normal" in2="shape" result="effect1_innerShadow_0_1"/>
<feColorMatrix in="SourceAlpha" type="matrix" values="0 0 0 0 0 0 0 0 0 0 0 0 0 0 0 0 0 0 127 0" result="hardAlpha"/>
<feOffset dx="-4" dy="6"/>
<feGaussianBlur stdDeviation="2"/>
<feComposite in2="hardAlpha" operator="arithmetic" k2="-1" k3="1"/>
<feColorMatrix type="matrix" values="0 0 0 0 0.270833 0 0 0 0 0.270833 0 0 0 0 0.270833 0 0 0 0.25 0"/>
<feBlend mode="normal" in2="effect1_innerShadow_0_1" result="effect2_innerShadow_0_1"/>
<feColorMatrix in="SourceAlpha" type="matrix" values="0 0 0 0 0 0 0 0 0 0 0 0 0 0 0 0 0 0 127 0" result="hardAlpha"/>
<feOffset dx="-4" dy="-4"/>
<feGaussianBlur stdDeviation="2"/>
<feComposite in2="hardAlpha" operator="arithmetic" k2="-1" k3="1"/>
<feColorMatrix type="matrix" values="0 0 0 0 0.270833 0 0 0 0 0.270833 0 0 0 0 0.270833 0 0 0 0.25 0"/>
<feBlend mode="normal" in2="effect2_innerShadow_0_1" result="effect3_innerShadow_0_1"/>
</filter>
<filter id="filter2_bii_0_1" x="-300.722" y="-136.722" width="765.444" height="661.444" filterUnits="userSpaceOnUse" color-interpolation-filters="sRGB">
<feFlood flood-opacity="0" result="BackgroundImageFix"/>
<feGaussianBlur in="BackgroundImageFix" stdDeviation="36.3611"/>
<feComposite in2="SourceAlpha" operator="in" result="effect1_backgroundBlur_0_1"/>
<feBlend mode="normal" in="SourceGraphic" in2="effect1_backgroundBlur_0_1" result="shape"/>
<feColorMatrix in="SourceAlpha" type="matrix" values="0 0 0 0 0 0 0 0 0 0 0 0 0 0 0 0 0 0 127 0" result="hardAlpha"/>
<feOffset dy="2.26765"/>
<feGaussianBlur stdDeviation="1.13383"/>
<feComposite in2="hardAlpha" operator="arithmetic" k2="-1" k3="1"/>
<feColorMatrix type="matrix" values="0 0 0 0 1 0 0 0 0 1 0 0 0 0 1 0 0 0 0.15 0"/>
<feBlend mode="normal" in2="shape" result="effect2_innerShadow_0_1"/>
<feColorMatrix in="SourceAlpha" type="matrix" values="0 0 0 0 0 0 0 0 0 0 0 0 0 0 0 0 0 0 127 0" result="hardAlpha"/>
<feOffset/>
<feGaussianBlur stdDeviation="17.0074"/>
<feComposite in2="hardAlpha" operator="arithmetic" k2="-1" k3="1"/>
<feColorMatrix type="matrix" values="0 0 0 0 1 0 0 0 0 1 0 0 0 0 1 0 0 0 0.05 0"/>
<feBlend mode="normal" in2="effect2_innerShadow_0_1" result="effect3_innerShadow_0_1"/>
</filter>
<filter id="filter3_bii_0_1" x="-44.853" y="-44.4237" width="251.706" height="251.706" filterUnits="userSpaceOnUse" color-interpolation-filters="sRGB">
<feFlood flood-opacity="0" result="BackgroundImageFix"/>
<feGaussianBlur in="BackgroundImageFix" stdDeviation="22.6765"/>
<feComposite in2="SourceAlpha" operator="in" result="effect1_backgroundBlur_0_1"/>
<feBlend mode="normal" in="SourceGraphic" in2="effect1_backgroundBlur_0_1" result="shape"/>
<feColorMatrix in="SourceAlpha" type="matrix" values="0 0 0 0 0 0 0 0 0 0 0 0 0 0 0 0 0 0 127 0" result="hardAlpha"/>
<feOffset dy="2.26765"/>
<feGaussianBlur stdDeviation="1.13383"/>
<feComposite in2="hardAlpha" operator="arithmetic" k2="-1" k3="1"/>
<feColorMatrix type="matrix" values="0 0 0 0 1 0 0 0 0 1 0 0 0 0 1 0 0 0 0.15 0"/>
<feBlend mode="normal" in2="shape" result="effect2_innerShadow_0_1"/>
<feColorMatrix in="SourceAlpha" type="matrix" values="0 0 0 0 0 0 0 0 0 0 0 0 0 0 0 0 0 0 127 0" result="hardAlpha"/>
<feOffset/>
<feGaussianBlur stdDeviation="17.0074"/>
<feComposite in2="hardAlpha" operator="arithmetic" k2="-1" k3="1"/>
<feColorMatrix type="matrix" values="0 0 0 0 1 0 0 0 0 1 0 0 0 0 1 0 0 0 0.05 0"/>
<feBlend mode="normal" in2="effect2_innerShadow_0_1" result="effect3_innerShadow_0_1"/>
</filter>
<radialGradient id="paint0_radial_0_1" cx="0" cy="0" r="1" gradientUnits="userSpaceOnUse" gradientTransform="translate(85.9486 -297.899) rotate(131.521) scale(115.102 51.3348)">
<stop stop-color="#0A0505"/>
<stop offset="0.302247" stop-color="#721A31"/>
<stop offset="0.989583" stop-color="#721A31" stop-opacity="0"/>
</radialGradient>
<radialGradient id="paint1_radial_0_1" cx="0" cy="0" r="1" gradientUnits="userSpaceOnUse" gradientTransform="translate(122.568 -45.2462) rotate(-132.954) scale(288.175 128.524)">
<stop stop-color="#FF7070"/>
<stop offset="1" stop-color="#FF7070" stop-opacity="0"/>
</radialGradient>
<radialGradient id="paint2_radial_0_1" cx="0" cy="0" r="1" gradientUnits="userSpaceOnUse" gradientTransform="translate(-13.2681 78.8873) rotate(-89.7802) scale(144.001 64.2234)">
<stop stop-color="#FF7070"/>
<stop offset="1" stop-color="#FF7070" stop-opacity="0"/>
</radialGradient>
<radialGradient id="paint3_radial_0_1" cx="0" cy="0" r="1" gradientUnits="userSpaceOnUse" gradientTransform="translate(129.946 -72.2057) rotate(-138.444) scale(219.103 188.948)">
<stop offset="0.00401228" stop-color="#311288"/>
<stop offset="0.317708" stop-color="#6EF2E6"/>
<stop offset="0.713542" stop-color="#F3F34E"/>
<stop offset="1" stop-color="#CCFFFA" stop-opacity="0"/>
</radialGradient>
<radialGradient id="paint4_radial_0_1" cx="0" cy="0" r="1" gradientUnits="userSpaceOnUse" gradientTransform="translate(-79.462 -191.41) rotate(-79.1304) scale(268.91 119.932)">
<stop stop-color="#767676"/>
<stop offset="1" stop-color="white" stop-opacity="0"/>
</radialGradient>
<linearGradient id="paint5_linear_0_1" x1="41.0002" y1="-92.4999" x2="-590.5" y2="-309" gradientUnits="userSpaceOnUse">
<stop stop-color="#010101" stop-opacity="0"/>
<stop stop-opacity="0.9"/>
<stop offset="0.459707" stop-color="#363636" stop-opacity="0.971584"/>
<stop offset="0.827067" stop-color="#0A0A0A" stop-opacity="0.995031"/>
<stop offset="1" stop-color="#010101"/>
<stop offset="1" stop-color="white" stop-opacity="0"/>
</linearGradient>
<radialGradient id="paint6_radial_0_1" cx="0" cy="0" r="1" gradientUnits="userSpaceOnUse" gradientTransform="translate(-548.952 -395.606) rotate(30.9442) scale(371.433 320.312)">
<stop stop-color="#343434"/>
<stop offset="1" stop-color="#A4A4A4" stop-opacity="0"/>
</radialGradient>
<linearGradient id="paint7_linear_0_1" x1="-234.37" y1="-204.963" x2="331.989" y2="-402.353" gradientUnits="userSpaceOnUse">
<stop stop-color="#3D3F3E"/>
<stop offset="1" stop-color="#606261"/>
</linearGradient>
<linearGradient id="paint8_linear_0_1" x1="-675.85" y1="27.9457" x2="-62.2673" y2="-106.312" gradientUnits="userSpaceOnUse">
<stop stop-color="#58CBC2" stop-opacity="0.25"/>
<stop offset="1" stop-color="white" stop-opacity="0"/>
</linearGradient>
<linearGradient id="paint9_linear_0_1" x1="156.542" y1="-238.521" x2="-231.222" y2="-167.36" gradientUnits="userSpaceOnUse">
<stop stop-color="#3D3F3B"/>
<stop offset="1" stop-color="#EBEBEB" stop-opacity="0.33"/>
</linearGradient>
<linearGradient id="paint10_linear_0_1" x1="71.5" y1="5.92938" x2="183.378" y2="47.7401" gradientUnits="userSpaceOnUse">
<stop stop-color="#41BFB3"/>
<stop offset="1" stop-color="#3EBEB8"/>
</linearGradient>
<clipPath id="clip0_0_1">
<rect width="1512" height="7562" fill="white" transform="translate(-1004 -3514)"/>
</clipPath>
</defs>
</svg>
