<svg width="31" height="30" viewBox="0 0 31 30" fill="none" xmlns="http://www.w3.org/2000/svg">
    <path d="M28.9925 7.10451C31.5481 12.4745 29.4841 18.8682 24.2914 21.6748C23.3632 22.1754 22.6542 22.7211 22.1234 23.3405C22.0753 23.3959 22.0233 23.4483 21.968 23.4966L18.046 26.906C17.6729 27.2299 17.1653 27.3495 16.6873 27.2265C16.2083 27.1029 15.8218 26.7523 15.6521 26.2883L14.8187 24.0048L12.2569 24.7784C10.9863 25.162 9.64117 24.4409 9.25777 23.1712L8.86108 21.8575L5.7981 22.7825C5.00527 23.0219 4.16779 22.5729 3.92838 21.7801L1.02372 12.1611C0.784308 11.3682 1.23332 10.5308 2.02614 10.2914C4.52627 9.53638 8.08021 7.60209 10.3868 4.98346C10.3875 4.98224 10.3884 4.98196 10.3891 4.98075C12.2528 2.65907 14.9416 1.2095 17.9685 0.898409C17.969 0.898267 17.969 0.898267 17.969 0.898267C22.5683 0.425599 26.9983 2.91978 28.9925 7.10451ZM12.7015 6.89319C12.6749 6.92672 12.6463 6.95882 12.617 6.99011C10.5584 9.3186 7.41754 11.4485 4.31154 12.6701L6.36692 19.4766L8.56316 18.8134C9.83282 18.43 11.178 19.1511 11.5616 20.4218L11.9581 21.7345L14.489 20.9702C15.7092 20.6018 17.0072 21.2514 17.4447 22.4487L17.723 23.2114L19.9207 21.3011C20.6836 20.4341 21.6481 19.6919 22.8652 19.0346C26.6506 16.9886 28.1509 12.3078 26.284 8.3958C24.8572 5.40072 21.5639 3.54571 18.2759 3.88258C16.0393 4.11313 14.0595 5.18233 12.7015 6.89319ZM12.0161 29.6604C9.431 30.441 6.69206 28.9726 5.9114 26.3874C5.67199 25.5946 6.121 24.7571 6.91382 24.5177C7.70671 24.2782 8.54419 24.7272 8.7836 25.5201C9.08598 26.5214 10.1475 27.0906 11.1488 26.7882C11.9417 26.5488 12.7792 26.9978 13.0186 27.7906C13.258 28.5835 12.809 29.421 12.0161 29.6604Z" fill="#F1BF5A"/>
    </svg>
    