<svg width="28" height="28" viewBox="0 0 28 28" fill="none" xmlns="http://www.w3.org/2000/svg">
    <path d="M15.0002 2V1C15.0002 0.734783 14.8948 0.48043 14.7073 0.292893C14.5197 0.105357 14.2654 0 14.0002 0C13.7349 0 13.4806 0.105357 13.293 0.292893C13.1055 0.48043 13.0002 0.734783 13.0002 1V2C13.0002 2.26522 13.1055 2.51957 13.293 2.70711C13.4806 2.89464 13.7349 3 14.0002 3C14.2654 3 14.5197 2.89464 14.7073 2.70711C14.8948 2.51957 15.0002 2.26522 15.0002 2ZM5.51015 4.1C5.31885 3.93617 5.07278 3.85057 4.8211 3.86029C4.56942 3.87001 4.33068 3.97434 4.15259 4.15244C3.97449 4.33053 3.87016 4.56927 3.86044 4.82095C3.85072 5.07262 3.93633 5.3187 4.10015 5.51L4.81015 6.22C5.00145 6.38383 5.24753 6.46943 5.49921 6.45971C5.75088 6.44999 5.98962 6.34566 6.16772 6.16756C6.34581 5.98947 6.45014 5.75073 6.45986 5.49905C6.46958 5.24738 6.38398 5.0013 6.22015 4.81L5.51015 4.1ZM2.00015 15C2.26537 15 2.51972 14.8946 2.70726 14.7071C2.8948 14.5196 3.00015 14.2652 3.00015 14C3.00015 13.7348 2.8948 13.4804 2.70726 13.2929C2.51972 13.1054 2.26537 13 2.00015 13H1.00015C0.734936 13 0.480582 13.1054 0.293046 13.2929C0.105509 13.4804 0.000152588 13.7348 0.000152588 14C0.000152588 14.2652 0.105509 14.5196 0.293046 14.7071C0.480582 14.8946 0.734936 15 1.00015 15H2.00015ZM4.10015 23.9C4.28752 24.0862 4.54097 24.1908 4.80515 24.1908C5.06934 24.1908 5.32279 24.0862 5.51015 23.9L6.22015 23.19C6.38398 22.9987 6.46958 22.7526 6.45986 22.5009C6.45014 22.2493 6.34581 22.0105 6.16772 21.8324C5.98962 21.6543 5.75088 21.55 5.49921 21.5403C5.24753 21.5306 5.00145 21.6162 4.81015 21.78L4.10015 22.49C3.9139 22.6774 3.80936 22.9308 3.80936 23.195C3.80936 23.4592 3.9139 23.7126 4.10015 23.9ZM23.1902 21.78C22.9989 21.6162 22.7528 21.5306 22.5011 21.5403C22.2494 21.55 22.0107 21.6543 21.8326 21.8324C21.6545 22.0105 21.5502 22.2493 21.5404 22.5009C21.5307 22.7526 21.6163 22.9987 21.7802 23.19L22.4902 23.9C22.6815 24.0638 22.9275 24.1494 23.1792 24.1397C23.4309 24.13 23.6696 24.0257 23.8477 23.8476C24.0258 23.6695 24.1301 23.4307 24.1399 23.1791C24.1496 22.9274 24.064 22.6813 23.9002 22.49L23.1902 21.78ZM27.0002 13H26.0002C25.7349 13 25.4806 13.1054 25.293 13.2929C25.1055 13.4804 25.0002 13.7348 25.0002 14C25.0002 14.2652 25.1055 14.5196 25.293 14.7071C25.4806 14.8946 25.7349 15 26.0002 15H27.0002C27.2654 15 27.5197 14.8946 27.7073 14.7071C27.8948 14.5196 28.0002 14.2652 28.0002 14C28.0002 13.7348 27.8948 13.4804 27.7073 13.2929C27.5197 13.1054 27.2654 13 27.0002 13ZM23.9002 4.1C23.7128 3.91375 23.4593 3.80921 23.1952 3.80921C22.931 3.80921 22.6775 3.91375 22.4902 4.1L21.7802 4.81C21.6755 4.89965 21.5904 5.00996 21.5304 5.13403C21.4704 5.25809 21.4367 5.39323 21.4314 5.53095C21.426 5.66867 21.4492 5.806 21.4995 5.93432C21.5498 6.06265 21.626 6.1792 21.7235 6.27665C21.821 6.3741 21.9375 6.45036 22.0658 6.50064C22.1942 6.55091 22.3315 6.57412 22.4692 6.5688C22.6069 6.56348 22.7421 6.52975 22.8661 6.46973C22.9902 6.4097 23.1005 6.32468 23.1902 6.22L23.9002 5.51C24.0864 5.32264 24.1909 5.06919 24.1909 4.805C24.1909 4.54081 24.0864 4.28736 23.9002 4.1ZM5.00015 14C5.00234 15.4778 5.36841 16.9324 6.06603 18.2352C6.76366 19.538 7.77136 20.649 9.00015 21.47V27C9.00015 27.2652 9.10551 27.5196 9.29305 27.7071C9.48058 27.8946 9.73494 28 10.0002 28H18.0002C18.2654 28 18.5197 27.8946 18.7073 27.7071C18.8948 27.5196 19.0002 27.2652 19.0002 27V21.47C20.2935 20.6059 21.3407 19.4213 22.0399 18.0318C22.739 16.6423 23.066 15.0954 22.9891 13.5419C22.9123 11.9883 22.4341 10.4812 21.6012 9.16757C20.7683 7.85391 19.6092 6.77853 18.2369 6.0463C16.8646 5.31408 15.3259 4.95001 13.771 4.98961C12.2161 5.02921 10.698 5.47112 9.36469 6.27225C8.03143 7.07338 6.92856 8.20637 6.16364 9.56073C5.39871 10.9151 4.99785 12.4446 5.00015 14ZM11.0002 26V24H17.0002V26H11.0002ZM14.0002 7C15.5404 7.00083 17.0374 7.50964 18.2591 8.44758C19.4808 9.38553 20.3591 10.7002 20.7578 12.188C21.1565 13.6757 21.0534 15.2534 20.4644 16.6766C19.8755 18.0998 18.8336 19.289 17.5002 20.06C17.3475 20.1481 17.2209 20.275 17.1331 20.4277C17.0453 20.5805 16.9995 20.7538 17.0002 20.93V22H15.0002V16H17.0002C17.2654 16 17.5197 15.8946 17.7073 15.7071C17.8948 15.5196 18.0002 15.2652 18.0002 15C18.0002 14.7348 17.8948 14.4804 17.7073 14.2929C17.5197 14.1054 17.2654 14 17.0002 14H11.0002C10.7349 14 10.4806 14.1054 10.293 14.2929C10.1055 14.4804 10.0002 14.7348 10.0002 15C10.0002 15.2652 10.1055 15.5196 10.293 15.7071C10.4806 15.8946 10.7349 16 11.0002 16H13.0002V22H11.0002V20.92C11.0009 20.7438 10.955 20.5705 10.8672 20.4177C10.7794 20.265 10.6528 20.1381 10.5002 20.05C9.17168 19.2769 8.1346 18.088 7.54901 16.6668C6.96343 15.2457 6.86188 13.6713 7.26005 12.1867C7.65822 10.7021 8.53397 9.38977 9.75212 8.45238C10.9703 7.51499 12.4631 7.0046 14.0002 7Z" fill="#B4708D"/>
    </svg>
    