<svg width="113" height="26" viewBox="0 0 113 26" fill="none" xmlns="http://www.w3.org/2000/svg">
    <path fill-rule="evenodd" clip-rule="evenodd" d="M25.5183 0H0V25.682H25.5178V16.7172H21.2829C19.8231 19.9876 16.5373 22.2654 12.777 22.2654C7.59298 22.2654 3.39482 18.0039 3.39482 12.823C3.39482 7.64221 7.59298 3.41712 12.777 3.41712C16.6102 3.41712 19.896 5.76873 21.3564 9.11197H25.5183V0ZM50.2308 16.7167C48.7343 19.987 45.485 22.2647 41.6887 22.2649C36.6505 22.2649 32.5253 18.2234 32.3428 13.1898H54.4657V0H28.9474V25.6814H54.4657V16.7167H50.2308ZM50.5579 10.0303H32.7427C33.8743 5.80518 37.6341 3.41716 41.6865 3.41716C45.7388 3.41716 49.2438 5.65795 50.5579 10.0303ZM109.569 12.8225C109.569 18.0398 105.407 22.2649 100.223 22.2649C95.076 22.2649 90.8778 18.0033 90.8778 12.8225C90.8778 7.64169 95.0397 3.4166 100.223 3.4166C105.407 3.4166 109.569 7.60527 109.569 12.8225ZM113 0H87.4825V25.682H113V0ZM80.0572 16.7167H84.2921V25.6814H57.8614V0H62.1691V12.8225C62.1691 18.5543 66.404 22.2284 71.4417 22.2284C75.3477 22.2284 78.7793 20.0969 80.0572 16.7167Z" fill="black"/>
    </svg>
    