<svg width="56" height="41" viewBox="0 0 56 41" fill="none" xmlns="http://www.w3.org/2000/svg">
<path d="M14.25 40.082C10.4167 40.082 7.16667 38.7487 4.5 36.082C1.83333 33.4154 0.5 30.1654 0.5 26.332C0.5 23.082 1.51083 20.217 3.5325 17.737C5.5525 15.2587 8.08333 13.6654 11.125 12.957C12.1667 9.20703 14.2292 6.1237 17.3125 3.70703C20.3958 1.29036 23.9583 0.0820312 28 0.0820312C32.9583 0.0820312 37.115 1.80036 40.47 5.23703C43.8233 8.67536 45.5 12.7904 45.5 17.582C48.625 17.9154 51.0733 19.207 52.845 21.457C54.615 23.707 55.5 26.1445 55.5 28.7695C55.5 31.8945 54.4067 34.5612 52.22 36.7695C50.0317 38.9779 47.375 40.082 44.25 40.082H14.25ZM14.25 35.082H44.25C46 35.082 47.4792 34.4779 48.6875 33.2695C49.8958 32.0612 50.5 30.582 50.5 28.832C50.5 27.082 49.8958 25.6029 48.6875 24.3945C47.4792 23.1862 46 22.582 44.25 22.582H40.5V17.582C40.5 14.1237 39.2817 11.1754 36.845 8.73703C34.4067 6.30036 31.4583 5.08203 28 5.08203C25.375 5.08203 23.0417 5.80036 21 7.23703C18.9583 8.67536 17.4583 10.5195 16.5 12.7695C19.75 13.3112 22.4792 14.842 24.6875 17.362C26.8958 19.8837 28 22.8737 28 26.332H23C23 23.9154 22.1458 21.8529 20.4375 20.1445C18.7292 18.4362 16.6667 17.582 14.25 17.582C11.8333 17.582 9.77083 18.4362 8.0625 20.1445C6.35417 21.8529 5.5 23.9154 5.5 26.332C5.5 28.7487 6.35417 30.8112 8.0625 32.5195C9.77083 34.2279 11.8333 35.082 14.25 35.082Z" fill="#27538C"/>
</svg>
