<svg width="50" height="49" viewBox="0 0 50 49" fill="none" xmlns="http://www.w3.org/2000/svg">
<rect width="50" height="49" fill="none"/>
<g clip-path="url(#clip0_0_1)">
<rect width="1440" height="4629" transform="translate(-1135 -396)" fill="white"/>
<path d="M-1137.19 -396H302.812V504H-1137.19V-396Z" fill="#41BEB3" fill-opacity="0.02"/>
<circle cx="-108.384" cy="0.615997" r="162.225" stroke="#20B486" stroke-opacity="0.25" stroke-width="2"/>
<circle cx="-109" cy="3.05176e-05" r="210.884" stroke="#20B486" stroke-opacity="0.25" stroke-width="2"/>
<circle cx="-109" r="254" stroke="#20B486" stroke-opacity="0.25" stroke-width="2"/>
<g filter="url(#filter0_d_0_1)">
<rect x="-17.9999" y="-19" width="154.92" height="86.96" rx="18.36" fill="#F5F5F4" shape-rendering="crispEdges"/>
<g filter="url(#filter1_d_0_1)">
<rect x="0.360107" width="48.96" height="48.96" rx="12.24" fill="#41BFB3"/>
<g clip-path="url(#clip1_0_1)">
<path d="M37.2714 29.8986H36.1876V28.9423H37.2714C38.0364 28.9423 38.6739 28.3048 38.6739 27.5398V20.8461C38.6739 19.6348 37.6539 18.6148 36.4426 18.6148H29.4301C28.2189 18.6148 27.1989 19.6348 27.1989 20.8461V27.5398C27.1989 28.3048 27.8364 28.9423 28.6014 28.9423H29.6851V29.8986H28.6014C27.2626 29.8986 26.2426 28.8148 26.2426 27.5398V20.8461C26.2426 19.0611 27.6451 17.6586 29.4301 17.6586H36.5064C38.2914 17.6586 39.6939 19.0611 39.6939 20.8461V27.5398C39.6939 28.8786 38.6101 29.8986 37.2714 29.8986ZM32.9364 16.6386C31.0239 16.6386 29.4301 15.0448 29.4301 13.1323C29.4301 11.2198 31.0239 9.6261 32.9364 9.6261C34.8489 9.6261 36.4426 11.2198 36.4426 13.1323C36.4426 15.0448 34.9126 16.6386 32.9364 16.6386ZM32.9364 10.6461C31.5339 10.6461 30.3864 11.7936 30.3864 13.1961C30.3864 14.5986 31.5339 15.7461 32.9364 15.7461C34.3389 15.7461 35.4864 14.5986 35.4864 13.1961C35.4864 11.7936 34.3389 10.6461 32.9364 10.6461Z" fill="#F5F5F4"/>
<path d="M34.5939 39.3336C33.9564 39.3336 33.3826 39.0148 33.0001 38.5686C32.6176 39.0148 32.0439 39.3336 31.4064 39.3336C30.2589 39.3336 29.3026 38.3773 29.3026 37.2298V21.6748H30.2589V37.2298C30.2589 37.8673 30.7689 38.3773 31.4064 38.3773C32.0439 38.3773 32.4901 37.8036 32.4901 37.2298V29.4523H33.4464V37.2298C33.4464 37.8673 33.9564 38.3773 34.5939 38.3773C35.2314 38.3773 35.7414 37.8673 35.7414 37.2298V21.6748H36.6976V37.2298C36.6976 38.3773 35.7414 39.3336 34.5939 39.3336Z" fill="#F5F5F4"/>
<path d="M27.7089 32.7037H10.0501V12.6862H28.0276V13.6424H11.0064V31.7474H27.7089V32.7037Z" fill="#F5F5F4"/>
<path d="M24.5851 21.6112H13.6201V22.5675H24.5851V21.6112Z" fill="#F5F5F4"/>
<path d="M24.5851 24.8624H13.6201V25.8187H24.5851V24.8624Z" fill="#F5F5F4"/>
<path d="M24.5851 28.1774H13.6201V29.1336H24.5851V28.1774Z" fill="#F5F5F4"/>
</g>
</g>
</g>
</g>
<defs>
<filter id="filter0_d_0_1" x="-56.2499" y="-38.89" width="231.42" height="163.46" filterUnits="userSpaceOnUse" color-interpolation-filters="sRGB">
<feFlood flood-opacity="0" result="BackgroundImageFix"/>
<feColorMatrix in="SourceAlpha" type="matrix" values="0 0 0 0 0 0 0 0 0 0 0 0 0 0 0 0 0 0 127 0" result="hardAlpha"/>
<feOffset dy="18.36"/>
<feGaussianBlur stdDeviation="19.125"/>
<feComposite in2="hardAlpha" operator="out"/>
<feColorMatrix type="matrix" values="0 0 0 0 0 0 0 0 0 0 0 0 0 0 0 0 0 0 0.15 0"/>
<feBlend mode="normal" in2="BackgroundImageFix" result="effect1_dropShadow_0_1"/>
<feBlend mode="normal" in="SourceGraphic" in2="effect1_dropShadow_0_1" result="shape"/>
</filter>
<filter id="filter1_d_0_1" x="-37.8899" y="-19.89" width="125.46" height="125.46" filterUnits="userSpaceOnUse" color-interpolation-filters="sRGB">
<feFlood flood-opacity="0" result="BackgroundImageFix"/>
<feColorMatrix in="SourceAlpha" type="matrix" values="0 0 0 0 0 0 0 0 0 0 0 0 0 0 0 0 0 0 127 0" result="hardAlpha"/>
<feOffset dy="18.36"/>
<feGaussianBlur stdDeviation="19.125"/>
<feComposite in2="hardAlpha" operator="out"/>
<feColorMatrix type="matrix" values="0 0 0 0 0.0509804 0 0 0 0 0.0470588 0 0 0 0 0.219608 0 0 0 0.15 0"/>
<feBlend mode="normal" in2="BackgroundImageFix" result="effect1_dropShadow_0_1"/>
<feBlend mode="normal" in="SourceGraphic" in2="effect1_dropShadow_0_1" result="shape"/>
</filter>
<clipPath id="clip0_0_1">
<rect width="1440" height="4629" fill="white" transform="translate(-1135 -396)"/>
</clipPath>
<clipPath id="clip1_0_1">
<rect width="30.6" height="30.6" fill="white" transform="translate(9.54013 9.17993)"/>
</clipPath>
</defs>
</svg>
