<svg width="50" height="56" viewBox="0 0 50 56" fill="none" xmlns="http://www.w3.org/2000/svg">
<path d="M5 55.582V50.582H45V55.582H5ZM5 5.58203V0.582031H45V5.58203H5ZM25 30.582C27.0833 30.582 28.8542 29.8529 30.3125 28.3945C31.7708 26.9362 32.5 25.1654 32.5 23.082C32.5 20.9987 31.7708 19.2279 30.3125 17.7695C28.8542 16.3112 27.0833 15.582 25 15.582C22.9167 15.582 21.1458 16.3112 19.6875 17.7695C18.2292 19.2279 17.5 20.9987 17.5 23.082C17.5 25.1654 18.2292 26.9362 19.6875 28.3945C21.1458 29.8529 22.9167 30.582 25 30.582ZM5 48.082C3.625 48.082 2.44833 47.5929 1.47 46.6145C0.49 45.6345 0 44.457 0 43.082V13.082C0 11.707 0.49 10.5304 1.47 9.55203C2.44833 8.57203 3.625 8.08203 5 8.08203H45C46.375 8.08203 47.5525 8.57203 48.5325 9.55203C49.5108 10.5304 50 11.707 50 13.082V43.082C50 44.457 49.5108 45.6345 48.5325 46.6145C47.5525 47.5929 46.375 48.082 45 48.082H5ZM9.375 43.082C11.25 40.7487 13.5208 38.9154 16.1875 37.582C18.8542 36.2487 21.7917 35.582 25 35.582C28.2083 35.582 31.1458 36.2487 33.8125 37.582C36.4792 38.9154 38.75 40.7487 40.625 43.082H45V13.082H5V43.082H9.375ZM16.75 43.082H33.25C32.0417 42.2487 30.74 41.6237 29.345 41.207C27.9483 40.7904 26.5 40.582 25 40.582C23.5 40.582 22.0525 40.7904 20.6575 41.207C19.2608 41.6237 17.9583 42.2487 16.75 43.082ZM25 25.582C24.2917 25.582 23.6983 25.342 23.22 24.862C22.74 24.3837 22.5 23.7904 22.5 23.082C22.5 22.3737 22.74 21.7795 23.22 21.2995C23.6983 20.8212 24.2917 20.582 25 20.582C25.7083 20.582 26.3025 20.8212 26.7825 21.2995C27.2608 21.7795 27.5 22.3737 27.5 23.082C27.5 23.7904 27.2608 24.3837 26.7825 24.862C26.3025 25.342 25.7083 25.582 25 25.582Z" fill="#27538C"/>
</svg>
