<svg width="163" height="162" viewBox="0 0 163 162" fill="none" xmlns="http://www.w3.org/2000/svg">
<path opacity="0.9" d="M61.1686 158.39L60.9226 159.517L68.548 161.202L70.8148 150.847L63.1894 149.161L62.9425 150.288L69.2804 151.688L68.5145 155.184L62.7398 153.908L62.4968 155.019L68.2715 156.295L67.5065 159.792L61.1686 158.39ZM49.0165 149.565L43.6395 152.713L45.1181 153.419L49.2957 150.858L49.9904 155.743L51.537 156.48L50.5631 150.304L56.268 146.993L54.7772 146.281L50.2375 149.005L49.5343 143.781L47.9877 143.044L49.0165 149.565ZM31.1466 144.36L34.9667 147.401L41.5359 139.062L40.5035 138.24L37.7261 141.766L34.9488 139.557C33.4898 138.395 31.7475 138.792 30.6785 140.15C29.6926 141.402 29.8169 143.303 31.1456 144.36L31.1466 144.36ZM37.0132 142.672L34.6568 145.662L31.8681 143.443C31.1207 142.847 31.1002 141.746 31.7577 140.913C32.3208 140.198 33.512 139.886 34.2359 140.462L37.0122 142.672L37.0132 142.672ZM27.9381 128.221L20.6074 134.205L21.4358 135.231L29.6481 128.528L25.3975 123.268L24.5159 123.986L27.9381 128.221ZM8.98587 117.071C10.3203 119.862 13.464 120.6 16.2493 119.254C19.0214 117.916 20.4116 114.988 19.0772 112.196C17.7427 109.405 14.5607 108.585 11.7886 109.923C9.00327 111.269 7.65141 114.28 8.98587 117.071ZM17.9568 112.737C18.9782 114.871 17.7575 116.96 15.6411 117.982C13.5105 119.011 11.1259 118.664 10.1063 116.53C9.09232 114.409 10.2662 112.225 12.3968 111.196C14.5131 110.174 16.9428 110.617 17.9568 112.737ZM8.48841 95.6561C8.10097 93.8778 6.53109 93.0664 4.85163 93.4061C3.14274 93.7522 2.18881 95.399 2.49513 96.9314L3.51103 102.001L13.9152 99.8958L13.6531 98.5873L9.25331 99.478L8.80673 97.2473L12.5902 93.2786L12.2709 91.6874L8.48841 95.6561ZM8.12418 99.7059L4.3933 100.461L3.63944 96.6997C3.41615 95.5839 4.31094 94.877 5.18768 94.6998C6.0796 94.5188 7.14704 94.8289 7.43031 96.2417L8.12418 99.7059ZM2.29179 74.9384L1.13949 74.897L0.862843 82.7016L11.4563 83.0778L11.733 75.2723L10.5816 75.2319L10.351 81.7183L6.77467 81.5908L6.98412 75.6805L5.84698 75.6401L5.63752 81.5514L2.0612 81.4239L2.29179 74.9384ZM10.1075 43.6152L16.6654 50.388L7.32036 49.2916L6.39162 51.1831L15.8876 55.8933L16.4694 54.7089L8.41301 50.7127L17.8994 51.7956L18.5214 50.5298L11.896 43.6221L19.9514 47.6175L20.5399 46.4188L11.0439 41.7096L10.1075 43.6152ZM20.7796 27.4878C18.7216 29.7968 19.2406 32.9984 21.5401 35.0677C23.8282 37.1274 27.0508 37.2938 29.1088 34.9838C31.1667 32.6739 30.7078 29.4053 28.4206 27.3455C26.1202 25.2763 22.8375 25.1768 20.7796 27.4868L20.7796 27.4878ZM28.1844 34.1523C26.6109 35.918 24.2252 35.5866 22.4785 34.0141C20.7194 32.4312 20.1304 30.085 21.7039 28.3183C23.2678 26.5639 25.7232 26.8162 27.4822 28.3982C29.229 29.9716 29.7484 32.397 28.1844 34.1523ZM40.2635 18.8097C41.7544 17.7667 41.9062 15.9999 40.9538 14.5749C39.9855 13.1251 38.1045 12.876 36.8098 13.7495L32.5232 16.6416L38.4197 25.4693L39.5261 24.7228L37.0328 20.99L38.9183 19.7179L44.0134 21.6944L45.3585 20.7871L40.2635 18.8097ZM36.3926 20.0312L34.2773 16.8663L37.4585 14.7207C38.4012 14.0842 39.3924 14.6403 39.8907 15.3842C40.3956 16.1414 40.5156 17.2491 39.3217 18.0548L36.3926 20.0312ZM56.9711 5.132L56.5694 4.0512L49.2573 6.79411L52.946 16.7311L60.2591 13.9891L59.8574 12.9084L53.78 15.1879L52.5348 11.8325L58.0718 9.7557L57.6767 8.68916L52.1397 10.766L50.8936 7.41057L56.9711 5.132ZM85.2273 0.216194L82.6972 0.107624L78.832 10.5494L80.2411 10.6101L81.4068 7.48873L85.9372 7.68497L86.8609 10.8974L88.2699 10.9591L85.2273 0.216194ZM81.8358 6.33854L83.9461 0.691644L85.6082 6.50127L81.8358 6.33854ZM104.386 8.60253C105.186 8.45904 105.829 7.82562 106.058 7.04019C106.546 5.36523 105.507 3.77958 104.023 3.34214L99.4848 2.00659L96.5186 12.1831L101.552 13.6654C101.928 13.7755 102.322 13.8105 102.712 13.7683C103.101 13.7261 103.479 13.6076 103.822 13.4195C104.166 13.2315 104.469 12.9775 104.715 12.6722C104.961 12.367 105.144 12.0163 105.254 11.6402C105.551 10.6211 105.502 9.32611 104.386 8.60253ZM100.413 3.48169L103.701 4.44931C104.574 4.70619 105.053 5.71726 104.799 6.58975C104.54 7.47833 103.64 7.90941 102.768 7.65254L99.4802 6.68493L100.413 3.48169ZM101.875 12.5583L98.0922 11.4458L99.1576 7.79115L102.94 8.90459C103.812 9.16146 104.25 10.3173 103.995 11.1908C103.719 12.1371 102.879 12.8538 101.875 12.5583ZM122.075 10.7576C119.417 9.17637 116.393 10.3077 114.824 12.9738C113.263 15.6268 113.732 18.8348 116.392 20.416C119.05 21.9963 122.153 20.9118 123.714 18.2589C125.283 15.5928 124.735 12.3388 122.075 10.7576ZM117.022 19.3437C114.989 18.1355 114.844 15.7207 116.036 13.6941C117.236 11.6553 119.412 10.6198 121.445 11.829C123.466 13.0304 123.702 15.4998 122.502 17.5386C121.309 19.5642 119.043 20.5451 117.022 19.3437ZM139.846 25.1312L135.118 29.9023C134.008 31.0232 132.135 31.1021 131.011 29.9747C129.896 28.8597 129.956 26.9672 131.067 25.8473L135.796 21.0753L134.852 20.1318L130.123 24.9029C128.437 26.6054 128.549 29.2713 130.135 30.859C131.722 32.4466 134.374 32.5483 136.061 30.8467L140.79 26.0747L139.846 25.1312ZM147.368 34.0541L146.323 34.7024L148.229 37.8026L140.253 42.7541L140.945 43.8772L148.92 38.9267L150.833 42.0412L151.877 41.3929L147.368 34.0541ZM155.32 67.2043L155.174 69.3483C155.068 70.4103 154.63 71.2192 153.777 71.3586C152.669 71.5383 151.632 70.4323 151.455 68.9556C151.206 67.0292 152.47 66.0087 153.473 65.8455L153.258 64.5136C151.537 64.7933 149.866 66.4333 150.247 69.1822C150.551 71.4529 152.28 73.0309 154.002 72.7503C155.798 72.4586 156.388 70.7795 156.484 69.473L156.63 67.3289C156.721 66.3627 157.153 65.6163 157.902 65.4943C158.86 65.3384 159.85 66.0527 160.099 67.5943C160.366 69.2563 159.272 70.1867 158.314 70.3426L158.53 71.6907C160.208 71.4183 161.698 69.9005 161.296 67.3998C160.963 65.3337 159.346 63.8757 157.684 64.1463C155.948 64.4287 155.391 65.9327 155.32 67.2043ZM160.6 89.7737L161.75 89.8501L162.263 82.0572L151.686 81.3541L151.173 89.147L152.323 89.2234L152.749 82.7466L156.32 82.984L155.932 88.8858L157.067 88.9612L157.455 83.0594L161.026 83.2969L160.6 89.7737ZM152.638 103.528C152.131 105.276 153.123 106.744 154.76 107.253C156.424 107.771 158.046 106.782 158.506 105.29L160.028 100.348L149.893 97.1945L149.499 98.47L153.785 99.8032L153.116 101.977L147.906 103.644L147.428 105.194L152.638 103.528ZM154.886 100.146L158.52 101.276L157.391 104.943C157.056 106.03 155.934 106.221 155.079 105.955C154.211 105.685 153.422 104.899 153.845 103.523L154.886 100.146ZM149.591 124.635L142.566 116.751L152.861 119.081L153.569 117.879L142.735 115.387L141.45 117.57L148.883 125.837L149.591 124.635ZM134.338 127.372L142.319 134.346L143.182 133.349L135.2 126.374L134.338 127.372ZM125.1 140.763C124.515 139.178 124.836 137.668 125.918 136.812C127.619 135.468 129.895 136.433 131.251 138.164C132.605 139.897 132.85 142.447 131.291 143.68C129.709 144.931 128.342 144.464 127.218 143.593L126.111 144.467C127.534 145.817 129.748 146.483 132.093 144.631C134.294 142.891 134.206 139.752 132.309 137.327C130.403 134.891 127.567 133.923 125.176 135.814C123.713 136.971 122.691 139.111 123.97 141.656L125.1 140.763ZM111.749 155.072L112.231 156.119L119.315 152.835L114.894 143.201L107.809 146.485L108.29 147.533L114.178 144.802L115.671 148.056L110.305 150.543L110.78 151.577L116.146 149.089L117.638 152.342L111.749 155.072ZM98.7242 154.6L96.5777 154.554C95.5126 154.498 94.6865 154.098 94.511 153.252C94.2829 152.153 95.3418 151.063 96.8094 150.818C98.7211 150.479 99.794 151.695 100.001 152.69L101.322 152.412C100.967 150.705 99.2584 149.111 96.5297 149.622C94.2764 150.032 92.7766 151.834 93.1303 153.541C93.4998 155.323 95.2011 155.834 96.5099 155.869L98.6564 155.915C99.6257 155.96 100.39 156.358 100.545 157.1C100.741 158.051 100.071 159.074 98.5426 159.395C96.8944 159.74 95.9182 158.69 95.7206 157.74L94.3845 158.02C94.7299 159.682 96.3098 161.102 98.7883 160.583C100.837 160.153 102.222 158.468 101.88 156.82C101.522 155.098 99.9971 154.612 98.7242 154.6Z" fill="black"/>
</svg>
