<svg width="162" height="162" viewBox="0 0 162 162" fill="none" xmlns="http://www.w3.org/2000/svg">
<rect width="162" height="162" fill="#F5F5F5"/>
<g clip-path="url(#clip0_0_1)">
<rect width="1512" height="7562" transform="translate(-344 -3514)" fill="white"/>
<rect width="1512" height="1545" transform="translate(-344 -988)" fill="#010A0F"/>
<g filter="url(#filter0_bii_0_1)">
<rect x="-228" y="-64" width="620" height="516" rx="10" fill="white" fill-opacity="0.03"/>
<path fill-rule="evenodd" clip-rule="evenodd" d="M78.5135 52.5668C67.6567 64.5977 69.8603 83.1925 81.979 93.9707C94.0977 104.749 112.708 102.551 123.565 90.5204L156.486 54.292C167.343 42.2611 165.14 23.6662 153.021 12.888C140.902 2.1098 122.292 4.30744 111.435 16.3383L78.5135 52.5668Z" fill="url(#paint0_linear_0_1)"/>
<g filter="url(#filter1_bii_0_1)">
<circle cx="81" cy="81.4294" r="80.5" fill="white" fill-opacity="0.03"/>
</g>
<path d="M68.2113 101.211C69.8785 104.103 74.0539 104.103 75.7359 101.211L86.049 83.3589L96.362 65.5065C98.0292 62.6147 95.9489 59 92.5998 59H71.9588H51.3474C48.013 59 45.9179 62.6147 47.5852 65.5065L57.8982 83.3589L68.2113 101.211Z" fill="url(#paint1_linear_0_1)"/>
<path d="M88.2622 101.211C89.9294 104.103 94.1048 104.103 95.7867 101.211L106.1 83.3589L116.413 65.5065C118.08 62.6147 116 59 112.651 59H92.0244H71.3983C68.0639 59 65.9688 62.6147 67.636 65.5065L77.9491 83.3589L88.2622 101.211Z" fill="url(#paint2_linear_0_1)"/>
<rect x="-227.5" y="-63.5" width="619" height="515" rx="9.5" stroke="white" stroke-opacity="0.1"/>
</g>
</g>
<defs>
<filter id="filter0_bii_0_1" x="-300.722" y="-136.722" width="765.444" height="661.444" filterUnits="userSpaceOnUse" color-interpolation-filters="sRGB">
<feFlood flood-opacity="0" result="BackgroundImageFix"/>
<feGaussianBlur in="BackgroundImageFix" stdDeviation="36.3611"/>
<feComposite in2="SourceAlpha" operator="in" result="effect1_backgroundBlur_0_1"/>
<feBlend mode="normal" in="SourceGraphic" in2="effect1_backgroundBlur_0_1" result="shape"/>
<feColorMatrix in="SourceAlpha" type="matrix" values="0 0 0 0 0 0 0 0 0 0 0 0 0 0 0 0 0 0 127 0" result="hardAlpha"/>
<feOffset dy="2.26765"/>
<feGaussianBlur stdDeviation="1.13383"/>
<feComposite in2="hardAlpha" operator="arithmetic" k2="-1" k3="1"/>
<feColorMatrix type="matrix" values="0 0 0 0 1 0 0 0 0 1 0 0 0 0 1 0 0 0 0.15 0"/>
<feBlend mode="normal" in2="shape" result="effect2_innerShadow_0_1"/>
<feColorMatrix in="SourceAlpha" type="matrix" values="0 0 0 0 0 0 0 0 0 0 0 0 0 0 0 0 0 0 127 0" result="hardAlpha"/>
<feOffset/>
<feGaussianBlur stdDeviation="17.0074"/>
<feComposite in2="hardAlpha" operator="arithmetic" k2="-1" k3="1"/>
<feColorMatrix type="matrix" values="0 0 0 0 1 0 0 0 0 1 0 0 0 0 1 0 0 0 0.05 0"/>
<feBlend mode="normal" in2="effect2_innerShadow_0_1" result="effect3_innerShadow_0_1"/>
</filter>
<filter id="filter1_bii_0_1" x="-44.853" y="-44.4237" width="251.706" height="251.706" filterUnits="userSpaceOnUse" color-interpolation-filters="sRGB">
<feFlood flood-opacity="0" result="BackgroundImageFix"/>
<feGaussianBlur in="BackgroundImageFix" stdDeviation="22.6765"/>
<feComposite in2="SourceAlpha" operator="in" result="effect1_backgroundBlur_0_1"/>
<feBlend mode="normal" in="SourceGraphic" in2="effect1_backgroundBlur_0_1" result="shape"/>
<feColorMatrix in="SourceAlpha" type="matrix" values="0 0 0 0 0 0 0 0 0 0 0 0 0 0 0 0 0 0 127 0" result="hardAlpha"/>
<feOffset dy="2.26765"/>
<feGaussianBlur stdDeviation="1.13383"/>
<feComposite in2="hardAlpha" operator="arithmetic" k2="-1" k3="1"/>
<feColorMatrix type="matrix" values="0 0 0 0 1 0 0 0 0 1 0 0 0 0 1 0 0 0 0.15 0"/>
<feBlend mode="normal" in2="shape" result="effect2_innerShadow_0_1"/>
<feColorMatrix in="SourceAlpha" type="matrix" values="0 0 0 0 0 0 0 0 0 0 0 0 0 0 0 0 0 0 127 0" result="hardAlpha"/>
<feOffset/>
<feGaussianBlur stdDeviation="17.0074"/>
<feComposite in2="hardAlpha" operator="arithmetic" k2="-1" k3="1"/>
<feColorMatrix type="matrix" values="0 0 0 0 1 0 0 0 0 1 0 0 0 0 1 0 0 0 0.05 0"/>
<feBlend mode="normal" in2="effect2_innerShadow_0_1" result="effect3_innerShadow_0_1"/>
</filter>
<linearGradient id="paint0_linear_0_1" x1="71.5" y1="5.92938" x2="183.378" y2="47.7401" gradientUnits="userSpaceOnUse">
<stop stop-color="#41BFB3"/>
<stop offset="1" stop-color="#3EBEB8"/>
</linearGradient>
<linearGradient id="paint1_linear_0_1" x1="86.4739" y1="52.3427" x2="54.3758" y2="89.6496" gradientUnits="userSpaceOnUse">
<stop stop-color="#C072F7"/>
<stop offset="0.3952" stop-color="#722DC1"/>
<stop offset="0.7666" stop-color="#339EFF"/>
<stop offset="1" stop-color="#78D2FF"/>
</linearGradient>
<linearGradient id="paint2_linear_0_1" x1="106.529" y1="52.3427" x2="74.4314" y2="89.6496" gradientUnits="userSpaceOnUse">
<stop stop-color="#C072F7"/>
<stop offset="0.3952" stop-color="#722DC1"/>
<stop offset="0.7666" stop-color="#339EFF"/>
<stop offset="1" stop-color="#78D2FF"/>
</linearGradient>
<clipPath id="clip0_0_1">
<rect width="1512" height="7562" fill="white" transform="translate(-344 -3514)"/>
</clipPath>
</defs>
</svg>
