<svg width="33" height="32" viewBox="0 0 33 32" fill="none" xmlns="http://www.w3.org/2000/svg">
<path fill-rule="evenodd" clip-rule="evenodd" d="M16.6255 31.4302C19.722 31.4302 22.749 30.512 25.3236 28.7916C27.8983 27.0713 29.905 24.6261 31.09 21.7653C32.275 18.9045 32.585 15.7566 31.9809 12.7196C31.3768 9.68254 29.8857 6.89286 27.6961 4.70329C25.5066 2.51373 22.7169 1.02261 19.6799 0.418513C16.6429 -0.185587 13.4949 0.124459 10.6341 1.30944C7.7733 2.49443 5.32812 4.50113 3.60779 7.07579C1.88746 9.65044 0.969238 12.6774 0.969238 15.7739C0.969238 19.9262 2.61873 23.9085 5.55485 26.8446C8.49096 29.7807 12.4732 31.4302 16.6255 31.4302ZM19.0679 8.65746C20.2674 8.86103 21.436 9.21738 22.545 9.71781C22.5547 9.72145 22.5628 9.72854 22.5677 9.73774C24.5523 12.5097 25.4507 15.9135 25.0927 19.3037C25.0919 19.3114 25.0895 19.3188 25.0856 19.3255C25.0816 19.3321 25.0763 19.3378 25.0699 19.3421C23.7763 20.2846 22.3326 21.0016 20.8 21.4628C20.7892 21.4662 20.7776 21.4661 20.7669 21.4625C20.7562 21.4589 20.7469 21.4521 20.7402 21.4429C20.4159 20.9996 20.1248 20.5329 19.8692 20.0467C19.8657 20.04 19.8636 20.0327 19.8632 20.0252C19.8627 20.0177 19.8639 20.0102 19.8666 20.0032C19.8693 19.9962 19.8735 19.9898 19.8788 19.9846C19.8842 19.9793 19.8906 19.9752 19.8976 19.9727C20.3584 19.8019 20.804 19.5929 21.2298 19.3478C21.2372 19.3429 21.2432 19.3362 21.2474 19.3284C21.2515 19.3206 21.2537 19.3118 21.2537 19.303C21.2537 19.2941 21.2515 19.2854 21.2474 19.2776C21.2432 19.2698 21.2372 19.2631 21.2298 19.2582C21.1402 19.1927 21.0505 19.1158 20.9651 19.0532C20.9568 19.048 20.9472 19.0453 20.9374 19.0453C20.9276 19.0453 20.9179 19.048 20.9096 19.0532C19.5639 19.6739 18.0996 19.9953 16.6177 19.9953C15.1357 19.9953 13.6714 19.6739 12.3257 19.0532C12.3167 19.0492 12.3068 19.0478 12.297 19.049C12.2872 19.0503 12.2779 19.0542 12.2702 19.0603C12.1848 19.1301 12.0951 19.2027 12.0055 19.2639C11.9981 19.2688 11.9921 19.2755 11.988 19.2833C11.9838 19.2911 11.9816 19.2998 11.9816 19.3087C11.9816 19.3175 11.9838 19.3263 11.988 19.3341C11.9921 19.3419 11.9981 19.3486 12.0055 19.3535C12.4325 19.5963 12.878 19.8052 13.3377 19.9783C13.3449 19.9808 13.3514 19.9847 13.3569 19.9899C13.3624 19.9951 13.3668 20.0015 13.3696 20.0085C13.3724 20.0155 13.3737 20.0231 13.3734 20.0307C13.373 20.0382 13.371 20.0456 13.3676 20.0524C13.1159 20.5411 12.8241 21.0081 12.4951 21.4486C12.4883 21.4576 12.479 21.4643 12.4683 21.4679C12.4576 21.4714 12.4461 21.4717 12.4353 21.4685C10.903 21.0064 9.45954 20.2895 8.16542 19.3478C8.15907 19.3431 8.15376 19.3372 8.14984 19.3303C8.14592 19.3234 8.14347 19.3158 8.14265 19.308C7.79546 15.916 8.69724 12.5138 10.679 9.73916C10.6843 9.73032 10.6923 9.72335 10.7017 9.71923C11.8106 9.21841 12.9792 8.86204 14.1788 8.65888C14.1897 8.65738 14.2008 8.65915 14.2107 8.66397C14.2206 8.66878 14.2288 8.67642 14.2344 8.68592C14.3971 8.9693 14.5439 9.26153 14.6742 9.56125C15.9683 9.3679 17.2841 9.3679 18.5782 9.56125C18.7057 9.26245 18.8482 8.97029 19.0052 8.68592C19.0108 8.67472 19.0201 8.66584 19.0316 8.66089C19.0431 8.65594 19.0559 8.6538 19.0679 8.65746ZM12.2588 15.7013C12.2402 16.1288 12.3908 16.5463 12.6781 16.8634C12.9653 17.1805 13.366 17.3715 13.7931 17.3951C14.2211 17.3737 14.6231 17.1833 14.9108 16.8657C15.1985 16.5481 15.3483 16.1293 15.3274 15.7013C15.3391 15.4891 15.3086 15.2767 15.2376 15.0763C15.1666 14.876 15.0566 14.6917 14.9139 14.5342C14.7712 14.3766 14.5986 14.249 14.4063 14.1586C14.2139 14.0682 14.0055 14.0169 13.7931 14.0076C13.3652 14.029 12.9632 14.2194 12.6755 14.537C12.3878 14.8545 12.2379 15.2733 12.2588 15.7013ZM17.9335 15.7013C17.9118 15.916 17.9353 16.1327 18.0026 16.3377C18.0699 16.5426 18.1793 16.7312 18.324 16.8912C18.4686 17.0512 18.6452 17.1791 18.8424 17.2667C19.0395 17.3542 19.2528 17.3994 19.4685 17.3994C19.6842 17.3994 19.8975 17.3542 20.0947 17.2667C20.2918 17.1791 20.4684 17.0512 20.613 16.8912C20.7577 16.7312 20.8672 16.5426 20.9344 16.3377C21.0017 16.1327 21.0252 15.916 21.0035 15.7013C21.0252 15.4867 21.0017 15.27 20.9344 15.065C20.8672 14.8601 20.7577 14.6715 20.613 14.5115C20.4684 14.3515 20.2918 14.2236 20.0947 14.136C19.8975 14.0485 19.6842 14.0033 19.4685 14.0033C19.2528 14.0033 19.0395 14.0485 18.8424 14.136C18.6452 14.2236 18.4686 14.3515 18.324 14.5115C18.1793 14.6715 18.0699 14.8601 18.0026 15.065C17.9353 15.27 17.9118 15.4867 17.9335 15.7013Z" fill="white"/>
</svg>
