<svg width="46" height="49" viewBox="0 0 46 49" fill="none" xmlns="http://www.w3.org/2000/svg">
<path d="M11.75 8.08203C10.7083 8.08203 9.82333 8.44703 9.095 9.17703C8.365 9.90536 8 10.7904 8 11.832C8 12.8737 8.365 13.7587 9.095 14.487C9.82333 15.217 10.7083 15.582 11.75 15.582C12.7917 15.582 13.6767 15.217 14.405 14.487C15.135 13.7587 15.5 12.8737 15.5 11.832C15.5 10.7904 15.135 9.90536 14.405 9.17703C13.6767 8.44703 12.7917 8.08203 11.75 8.08203ZM11.75 33.082C10.7083 33.082 9.82333 33.447 9.095 34.177C8.365 34.9054 8 35.7904 8 36.832C8 37.8737 8.365 38.7587 9.095 39.487C9.82333 40.217 10.7083 40.582 11.75 40.582C12.7917 40.582 13.6767 40.217 14.405 39.487C15.135 38.7587 15.5 37.8737 15.5 36.832C15.5 35.7904 15.135 34.9054 14.405 34.177C13.6767 33.447 12.7917 33.082 11.75 33.082ZM3 0.582031H43C43.7083 0.582031 44.3017 0.821198 44.78 1.29953C45.26 1.77953 45.5 2.3737 45.5 3.08203V20.582C45.5 21.2904 45.26 21.8837 44.78 22.362C44.3017 22.842 43.7083 23.082 43 23.082H3C2.29167 23.082 1.69833 22.842 1.22 22.362C0.74 21.8837 0.5 21.2904 0.5 20.582V3.08203C0.5 2.3737 0.74 1.77953 1.22 1.29953C1.69833 0.821198 2.29167 0.582031 3 0.582031ZM5.5 5.58203V18.082H40.5V5.58203H5.5ZM3 25.582H43C43.7083 25.582 44.3017 25.8212 44.78 26.2995C45.26 26.7795 45.5 27.3737 45.5 28.082V45.582C45.5 46.2904 45.26 46.8837 44.78 47.362C44.3017 47.842 43.7083 48.082 43 48.082H3C2.29167 48.082 1.69833 47.842 1.22 47.362C0.74 46.8837 0.5 46.2904 0.5 45.582V28.082C0.5 27.3737 0.74 26.7795 1.22 26.2995C1.69833 25.8212 2.29167 25.582 3 25.582ZM5.5 30.582V43.082H40.5V30.582H5.5Z" fill="#27538C"/>
</svg>
