<svg width="62" height="64" viewBox="0 0 62 64" fill="none" xmlns="http://www.w3.org/2000/svg">
<path d="M60.6147 28.4444L33.4426 1.2549C31.7705 -0.418301 29.2623 -0.418301 27.5901 1.2549L21.7377 7.11112L28.8443 14.2222C30.5164 13.8039 32.6065 14.2222 33.8606 15.4771C35.1147 16.732 35.5328 18.8236 35.1148 20.4968L42.2213 27.6078C43.8934 27.1895 45.9836 27.6079 47.2377 28.8628C48.9098 30.536 48.9098 33.8824 47.2377 35.5556C45.5656 37.2288 42.2213 37.2288 40.5492 35.5556C39.2951 34.3007 38.877 32.2091 39.7131 30.5359L33.4426 24.2614V41.4118C33.8606 41.8301 34.2787 41.8301 34.6967 42.2484C36.3689 43.9216 36.3689 47.268 34.6967 48.9412C33.0246 50.6144 29.6803 50.6144 28.0082 48.9412C26.3361 47.268 26.3361 43.9216 28.0082 42.2484C28.4262 41.8301 28.8442 41.4118 29.6803 40.9935V23.8431C29.2623 23.4248 28.4262 23.4248 28.0082 23.0065C26.7541 21.7516 26.3361 19.6601 27.1721 17.9869L20.0656 10.8758L1.2541 29.6994C-0.418033 31.3726 -0.418033 33.8824 1.2541 35.5556L28.4262 62.7451C30.0984 64.4183 32.6066 64.4183 34.2787 62.7451L61.4508 35.5556C62.2869 32.6275 62.2869 29.6993 60.6147 28.4444Z" fill="white"/>
</svg>
