<svg width="18" height="17" viewBox="0 0 18 17" fill="none" xmlns="http://www.w3.org/2000/svg">
<path d="M8.9999 0.666656C7.90555 0.666656 6.82192 0.882205 5.81087 1.30099C4.79982 1.71978 3.88116 2.33361 3.10734 3.10743C1.54454 4.67024 0.666565 6.78985 0.666565 8.99999C0.666565 12.6833 3.05823 15.8083 6.36656 16.9167C6.78323 16.9833 6.91656 16.725 6.91656 16.5V15.0917C4.60823 15.5917 4.11656 13.975 4.11656 13.975C3.73323 13.0083 3.19157 12.75 3.19157 12.75C2.43323 12.2333 3.2499 12.25 3.2499 12.25C4.08323 12.3083 4.5249 13.1083 4.5249 13.1083C5.2499 14.375 6.4749 14 6.9499 13.8C7.0249 13.2583 7.24156 12.8917 7.4749 12.6833C5.6249 12.475 3.68323 11.7583 3.68323 8.58332C3.68323 7.65832 3.9999 6.91666 4.54156 6.32499C4.45823 6.11666 4.16656 5.24999 4.6249 4.12499C4.6249 4.12499 5.3249 3.89999 6.91656 4.97499C7.5749 4.79166 8.29156 4.69999 8.9999 4.69999C9.70823 4.69999 10.4249 4.79166 11.0832 4.97499C12.6749 3.89999 13.3749 4.12499 13.3749 4.12499C13.8332 5.24999 13.5416 6.11666 13.4582 6.32499C13.9999 6.91666 14.3166 7.65832 14.3166 8.58332C14.3166 11.7667 12.3666 12.4667 10.5082 12.675C10.8082 12.9333 11.0832 13.4417 11.0832 14.2167V16.5C11.0832 16.725 11.2166 16.9917 11.6416 16.9167C14.9499 15.8 17.3332 12.6833 17.3332 8.99999C17.3332 7.90564 17.1177 6.82201 16.6989 5.81096C16.2801 4.79991 15.6663 3.88125 14.8925 3.10743C14.1186 2.33361 13.2 1.71978 12.1889 1.30099C11.1779 0.882205 10.0942 0.666656 8.9999 0.666656Z" fill="white"/>
</svg>
