<svg width="50" height="51" viewBox="0 0 50 51" fill="none" xmlns="http://www.w3.org/2000/svg">
<path d="M25.0001 50.0822C21.5417 50.0822 18.2917 49.4255 15.2501 48.1122C12.2084 46.8005 9.56256 45.0197 7.31256 42.7697C5.06256 40.5197 3.28173 37.8738 1.97006 34.8322C0.656728 31.7905 6.10352e-05 28.5405 6.10352e-05 25.0822C6.10352e-05 21.6238 0.656728 18.3738 1.97006 15.3322C3.28173 12.2905 5.06256 9.64465 7.31256 7.39465C9.56256 5.14465 12.2084 3.36299 15.2501 2.04965C18.2917 0.737987 21.5417 0.0821533 25.0001 0.0821533C28.4584 0.0821533 31.7084 0.737987 34.7501 2.04965C37.7917 3.36299 40.4376 5.14465 42.6876 7.39465C44.9376 9.64465 46.7184 12.2905 48.0301 15.3322C49.3434 18.3738 50.0001 21.6238 50.0001 25.0822C50.0001 28.5405 49.3434 31.7905 48.0301 34.8322C46.7184 37.8738 44.9376 40.5197 42.6876 42.7697C40.4376 45.0197 37.7917 46.8005 34.7501 48.1122C31.7084 49.4255 28.4584 50.0822 25.0001 50.0822ZM22.5001 44.9572V40.0822C21.1251 40.0822 19.9484 39.593 18.9701 38.6147C17.9901 37.6347 17.5001 36.4572 17.5001 35.0822V32.5822L5.50006 20.5822C5.37506 21.3322 5.26006 22.0822 5.15506 22.8322C5.05173 23.5822 5.00006 24.3322 5.00006 25.0822C5.00006 30.1238 6.65673 34.5405 9.97006 38.3322C13.2817 42.1238 17.4584 44.3322 22.5001 44.9572ZM39.7501 38.5822C40.5834 37.6655 41.3334 36.6755 42.0001 35.6122C42.6667 34.5505 43.2192 33.4463 43.6576 32.2997C44.0942 31.1547 44.4276 29.978 44.6576 28.7697C44.8859 27.5613 45.0001 26.3322 45.0001 25.0822C45.0001 20.9988 43.8651 17.2697 41.5951 13.8947C39.3234 10.5197 36.2917 8.08215 32.5001 6.58215V7.58215C32.5001 8.95715 32.0109 10.1338 31.0326 11.1122C30.0526 12.0922 28.8751 12.5822 27.5001 12.5822H22.5001V17.5822C22.5001 18.2905 22.2609 18.8838 21.7826 19.3622C21.3026 19.8422 20.7084 20.0822 20.0001 20.0822H15.0001V25.0822H30.0001C30.7084 25.0822 31.3026 25.3213 31.7826 25.7997C32.2609 26.2797 32.5001 26.8738 32.5001 27.5822V35.0822H35.0001C36.0834 35.0822 37.0626 35.4047 37.9376 36.0497C38.8126 36.6963 39.4167 37.5405 39.7501 38.5822Z" fill="#27538C"/>
</svg>
