<svg width="68" height="68" viewBox="0 0 68 68" fill="none" xmlns="http://www.w3.org/2000/svg">
    <path d="M53.3309 4.43643e-06C49.447 -0.00301894 45.7206 1.53936 42.9696 4.28858C40.2187 7.0378 38.668 10.7692 38.658 14.6637V30.9222C37.1469 31.0245 35.6018 31.0889 34 31.0889C32.3982 31.0889 30.8607 31.1533 29.342 31.2442V14.6637C29.2802 10.803 27.7074 7.12133 24.9627 4.41302C22.2181 1.70471 18.5217 0.186832 14.671 0.186832C10.8203 0.186832 7.1239 1.70471 4.37927 4.41302C1.63465 7.12133 0.0617857 10.803 0 14.6637V53.5219C0.0617857 57.3827 1.63465 61.0643 4.37927 63.7726C7.1239 66.4809 10.8203 67.9988 14.671 67.9988C18.5217 67.9988 22.2181 66.4809 24.9627 63.7726C27.7074 61.0643 29.2802 57.3827 29.342 53.5219V37.2634C30.8531 37.1612 32.3982 37.0968 34 37.0968C35.6018 37.0968 37.1393 37.0324 38.658 36.9415V53.5219C38.7198 57.3827 40.2926 61.0643 43.0373 63.7726C45.7819 66.4809 49.4783 67.9988 53.329 67.9988C57.1797 67.9988 60.8761 66.4809 63.6207 63.7726C66.3654 61.0643 67.9382 57.3827 68 53.5219V14.6637C67.99 10.7699 66.4398 7.03903 63.6897 4.28992C60.9396 1.54081 57.2141 -0.00201511 53.3309 4.43643e-06ZM14.6691 6.00792C16.9613 6.0069 19.1602 6.91768 20.7835 8.54041C22.4068 10.1631 23.3218 12.3653 23.3278 14.6637V31.8806C19.0354 32.5043 14.8437 33.6926 10.8611 35.4149C9.13555 36.1743 7.51116 37.1465 6.02555 38.309V14.6637C6.03155 12.3679 6.94449 10.1681 8.5645 8.54576C10.1845 6.92346 12.3796 6.01091 14.6691 6.00792ZM23.3278 53.5219C23.3278 55.8246 22.4155 58.033 20.7917 59.6612C19.1679 61.2895 16.9655 62.2042 14.6691 62.2042C12.3727 62.2042 10.1703 61.2895 8.54651 59.6612C6.9227 58.033 6.01045 55.8246 6.01045 53.5219V49.624C6.01045 46.1806 8.73044 42.9191 13.2902 40.8886C16.5031 39.4987 19.8743 38.5102 23.3278 37.9453V53.5219ZM53.3309 62.1777C51.0387 62.1787 48.8398 61.2679 47.2165 59.6452C45.5932 58.0225 44.6782 55.8203 44.6722 53.5219V36.3051C48.9646 35.6814 53.1563 34.493 57.1389 32.7708C58.8645 32.0114 60.4888 31.0392 61.9744 29.8767V53.5219C61.9685 55.8177 61.0555 58.0176 59.4355 59.6399C57.8155 61.2622 55.6204 62.1747 53.3309 62.1777ZM54.7098 27.2743C51.4969 28.6642 48.1257 29.6527 44.6722 30.2176V14.6637C44.6722 12.361 45.5845 10.1526 47.2083 8.52439C48.8321 6.89614 51.0345 5.9814 53.3309 5.9814C55.6273 5.9814 57.8297 6.89614 59.4535 8.52439C61.0773 10.1526 61.9896 12.361 61.9896 14.6637V18.5616C61.9896 21.9899 59.2696 25.2514 54.7098 27.2743Z" fill="url(#paint0_linear_1_327)"/>
    <defs>
    <linearGradient id="paint0_linear_1_327" x1="4.30666" y1="62.9327" x2="63.4667" y2="3.77268" gradientUnits="userSpaceOnUse">
    <stop stop-color="#00AEE9"/>
    <stop offset="1" stop-color="#69FABD"/>
    </linearGradient>
    </defs>
    </svg>
    