<svg width="510" height="510" viewBox="0 0 510 510" fill="none" xmlns="http://www.w3.org/2000/svg">
<rect width="510" height="510" fill="#F5F5F5"/>
<g clip-path="url(#clip0_0_1)">
<rect width="1440" height="4629" transform="translate(-771 -141)" fill="white"/>
<path d="M-773.188 -141H666.812V759H-773.188V-141Z" fill="#41BEB3" fill-opacity="0.02"/>
<circle cx="255" cy="255" r="98.7826" stroke="#20B486" stroke-opacity="0.25" stroke-width="2"/>
<circle cx="255.616" cy="255.616" r="162.225" stroke="#20B486" stroke-opacity="0.25" stroke-width="2"/>
<circle cx="255" cy="255" r="210.884" stroke="#20B486" stroke-opacity="0.25" stroke-width="2"/>
<circle cx="255" cy="255" r="254" stroke="#20B486" stroke-opacity="0.25" stroke-width="2"/>
<g opacity="0.1">
<path d="M-829.822 220.279C-846.761 239.363 -853.652 264.541 -849.141 290.869C-846.002 308.575 -837.303 326.428 -822.622 341.487C-795.607 369.201 -758.29 389.583 -719.292 402.461C-695.326 410.306 -670.809 415.606 -646.333 418.233C-634.832 419.457 -623.381 419.998 -612.061 419.854C-557.192 419.022 -514.57 440.768 -464.377 464.393C-433.538 478.969 -399.341 493.504 -366.688 503.138C-325.571 515.297 -258.39 523.539 -240.663 487.46C-237.956 481.977 -236.735 475.99 -235.859 469.873C-234.609 461.033 -234.082 451.926 -230.857 443.691C-222.244 421.532 -196.025 409.436 -170.367 400.765C-129.689 387.054 -81.2932 369.547 -77.5295 325.451C-74.5336 290.633 -104.521 255.161 -138.837 230.752C-161.098 214.778 -185.659 201.679 -211.536 191.979C-238.414 181.975 -267.089 177.999 -293.659 165.382C-344.185 141.409 -387.924 106.438 -439.443 86.0326C-474.527 72.258 -510.906 62.7252 -547.424 57.7374C-595.161 51.3696 -641.182 53.8744 -670.535 82.0391C-689.183 99.9262 -698.912 124.093 -717.141 142.7C-748.359 174.684 -799.964 187.002 -829.822 220.279Z" stroke="#41BFB3" stroke-miterlimit="10"/>
<path d="M-842.016 219.298C-859.313 238.799 -866.267 264.56 -861.497 291.459C-858.211 309.55 -849.297 327.72 -834.373 343.131C-806.695 371.754 -768.442 393.252 -728.194 406.962C-703.538 415.317 -678.254 420.961 -652.997 423.748C-641.153 425.043 -629.36 425.609 -617.708 425.442C-561.061 424.508 -517.262 447.052 -465.676 471.404C-433.612 486.594 -398.054 501.683 -364.081 511.641C-321.386 524.17 -251.282 532.619 -233.146 494.571C-230.375 488.789 -229.172 482.47 -228.337 476.029C-227.129 466.717 -226.662 457.118 -223.426 448.425C-214.652 425.082 -187.475 412.35 -160.816 403.239C-118.56 388.824 -68.0962 370.585 -64.6469 324.529C-61.9517 288.427 -93.7087 251.849 -129.532 226.949C-152.785 210.661 -178.35 197.366 -205.216 187.589C-233.095 177.56 -262.797 173.789 -290.215 160.859C-342.373 136.314 -387.182 100.053 -440.22 78.5056C-473.637 64.9271 -512.91 53.7078 -551.131 48.6556C-600.163 42.1817 -647.387 45.692 -677.269 75.2706C-696.359 94.1712 -706.267 119.449 -725.083 138.857C-757.314 172.221 -811.027 184.783 -842.016 219.298Z" stroke="#41BFB3" stroke-miterlimit="10"/>
<path d="M-854.217 218.309C-871.868 238.234 -878.887 264.581 -873.864 292.052C-870.422 310.508 -861.31 329.033 -846.096 344.854C-817.793 374.422 -778.528 396.983 -737.048 411.545C-711.704 420.424 -685.647 426.418 -659.605 429.361C-647.406 430.728 -635.258 431.318 -623.262 431.126C-564.844 430.094 -519.914 453.456 -466.91 478.529C-433.657 494.281 -396.706 509.968 -361.421 520.251C-317.112 533.186 -244.126 541.817 -225.584 501.793C-222.754 495.703 -221.56 489.068 -220.755 482.29C-219.6 472.501 -219.244 462.423 -215.931 453.289C-207.067 428.771 -178.847 415.383 -151.187 405.832C-107.403 390.726 -54.827 371.769 -51.7074 323.722C-49.2676 286.334 -82.7561 248.727 -120.163 223.259C-144.414 206.671 -170.985 193.193 -198.84 183.348C-227.783 173.189 -258.465 169.603 -286.784 156.348C-340.563 131.237 -386.457 93.6556 -441.014 70.9827C-475.239 56.7461 -515.623 44.7297 -554.814 39.5328C-605.218 32.929 -653.609 37.4962 -684.005 68.502C-703.537 88.4162 -713.667 114.756 -733.042 135C-766.266 169.766 -822.088 182.554 -854.217 218.309Z" stroke="#41BFB3" stroke-miterlimit="10"/>
<path d="M-866.421 217.329C-884.42 237.675 -891.503 264.6 -886.233 292.637C-882.621 311.506 -873.288 330.32 -857.813 346.566C-828.854 377.011 -788.62 400.68 -745.92 416.09C-719.891 425.486 -693.066 431.83 -666.24 434.937C-653.713 436.37 -641.239 436.985 -628.925 436.777C-568.731 435.636 -522.641 459.801 -468.19 485.596C-433.741 501.909 -395.388 518.191 -358.807 528.804C-312.913 542.125 -237.011 550.947 -218.052 508.952C-215.166 502.565 -213.99 495.599 -213.219 488.494C-212.109 478.226 -211.839 467.661 -208.489 458.08C-199.491 432.384 -170.262 418.349 -141.642 408.368C-96.321 392.568 -41.6322 372.876 -38.8309 322.862C-36.6625 284.174 -71.8978 245.507 -110.877 219.512C-136.118 202.587 -163.704 188.899 -192.565 178.978C-222.502 168.792 -254.198 165.399 -283.371 151.876C-338.766 126.188 -385.788 87.3491 -441.817 63.4962C-476.867 48.6403 -518.345 35.7706 -558.596 30.4692C-610.215 23.6962 -659.798 29.3266 -690.74 61.7332C-710.714 82.661 -721.054 110.085 -740.991 131.141C-775.222 167.302 -833.155 180.326 -866.421 217.329Z" stroke="#41BFB3" stroke-miterlimit="10"/>
<path d="M-672.863 440.519C-659.979 442.033 -647.147 442.678 -634.487 442.447C-572.519 441.214 -525.28 466.175 -469.411 492.691C-433.725 509.624 -394.015 526.453 -356.106 537.421C-308.598 551.13 -229.806 560.149 -210.45 516.18C-203.248 499.832 -206.705 479.9 -200.949 462.959C-191.824 436.087 -161.599 421.398 -131.956 410.964C-85.103 394.479 -28.3095 374.055 -25.8219 322.063C-23.9173 282.09 -60.9033 242.356 -101.45 215.824C-127.686 198.591 -156.281 184.71 -186.135 174.715C-217.106 164.46 -249.819 161.271 -279.841 147.434C-336.876 121.159 -384.998 80.9693 -442.548 56.0433C-524.445 20.5468 -641.493 -5.2095 -697.469 54.9625C-717.881 76.9114 -728.434 105.413 -748.946 127.275C-784.154 164.833 -844.212 178.105 -878.585 216.339C-909.697 250.913 -908.224 307.287 -869.545 348.196C-821.734 398.832 -743.891 432.282 -672.863 440.519Z" stroke="#41BFB3" stroke-miterlimit="10"/>
</g>
<circle cx="497" cy="172" r="11" fill="url(#paint0_linear_0_1)"/>
<circle cx="83.4204" cy="440.42" r="21.42" fill="#41BEB3"/>
<g filter="url(#filter0_d_0_1)">
<rect x="-79.9999" y="234" width="225.16" height="90.84" rx="18.36" fill="#F5F5F4" shape-rendering="crispEdges"/>
<g filter="url(#filter1_d_0_1)">
</g>
<path d="M13.2738 276.36V273.59L19.7458 267.598C20.2962 267.065 20.7579 266.585 21.1307 266.159C21.5095 265.733 21.7966 265.316 21.9919 264.908C22.1872 264.493 22.2849 264.046 22.2849 263.567C22.2849 263.034 22.1635 262.576 21.9209 262.191C21.6782 261.8 21.3468 261.501 20.9265 261.294C20.5063 261.081 20.0299 260.975 19.4972 260.975C18.9409 260.975 18.4555 261.087 18.0412 261.312C17.6269 261.537 17.3073 261.86 17.0824 262.28C16.8575 262.7 16.7451 263.2 16.7451 263.78H13.0963C13.0963 262.59 13.3656 261.558 13.9042 260.682C14.4428 259.806 15.1974 259.128 16.168 258.649C17.1387 258.169 18.2573 257.93 19.5238 257.93C20.8259 257.93 21.9593 258.16 22.9241 258.622C23.8947 259.078 24.6493 259.711 25.1879 260.522C25.7265 261.333 25.9958 262.262 25.9958 263.31C25.9958 263.996 25.8597 264.674 25.5874 265.343C25.3211 266.011 24.8446 266.754 24.1581 267.571C23.4715 268.382 22.5038 269.355 21.255 270.492L18.6006 273.093V273.217H26.2355V276.36H13.2738ZM29.1275 258.178H33.8682L38.8753 270.394H39.0884L44.0955 258.178H48.8363V276.36H45.1076V264.526H44.9566L40.2514 276.271H37.7123L33.0071 264.481H32.8561V276.36H29.1275V258.178ZM57.3301 273.59V261.019H60.5084V273.59H57.3301ZM52.6338 268.894V265.715H65.2048V268.894H52.6338Z" fill="#101828"/>
<path opacity="0.5" d="M20.5785 294.98C20.4613 294.621 20.3069 294.3 20.1151 294.016C19.9269 293.728 19.7014 293.483 19.4386 293.281C19.1794 293.078 18.8846 292.924 18.5544 292.817C18.2241 292.711 17.8619 292.658 17.4677 292.658C16.8214 292.658 16.2337 292.824 15.7046 293.158C15.1755 293.492 14.7547 293.984 14.4422 294.634C14.1297 295.284 13.9734 296.081 13.9734 297.025C13.9734 297.97 14.1314 298.767 14.4475 299.417C14.7635 300.067 15.1915 300.559 15.7312 300.893C16.271 301.226 16.8783 301.393 17.553 301.393C18.178 301.393 18.7284 301.26 19.2042 300.994C19.6836 300.724 20.0565 300.344 20.3229 299.854C20.5927 299.36 20.7277 298.78 20.7277 298.112L21.1325 298.197H17.8513V297.025H22.0061V298.197C22.0061 299.096 21.8143 299.877 21.4308 300.541C21.0508 301.205 20.5253 301.72 19.8541 302.086C19.1865 302.448 18.4194 302.629 17.553 302.629C16.5871 302.629 15.7383 302.402 15.0068 301.947C14.2788 301.493 13.7106 300.846 13.3023 300.008C12.8974 299.17 12.695 298.176 12.695 297.025C12.695 296.163 12.8104 295.387 13.0412 294.698C13.2756 294.005 13.6059 293.416 14.032 292.929C14.4582 292.443 14.9624 292.07 15.5448 291.811C16.1272 291.551 16.7682 291.422 17.4677 291.422C18.043 291.422 18.5792 291.509 19.0764 291.683C19.5771 291.853 20.0228 292.096 20.4134 292.413C20.8076 292.725 21.1361 293.1 21.3988 293.536C21.6616 293.97 21.8427 294.451 21.9422 294.98H20.5785ZM24.6108 302.48V294.298H25.868V302.48H24.6108ZM25.2501 292.935C25.005 292.935 24.7937 292.851 24.6162 292.684C24.4422 292.517 24.3552 292.317 24.3552 292.082C24.3552 291.848 24.4422 291.647 24.6162 291.48C24.7937 291.313 25.005 291.23 25.2501 291.23C25.4951 291.23 25.7046 291.313 25.8786 291.48C26.0562 291.647 26.1449 291.848 26.1449 292.082C26.1449 292.317 26.0562 292.517 25.8786 292.684C25.7046 292.851 25.4951 292.935 25.2501 292.935ZM31.7287 294.298V295.364H27.4886V294.298H31.7287ZM28.7244 292.338H29.9815V300.136C29.9815 300.491 30.033 300.758 30.136 300.935C30.2425 301.109 30.3775 301.226 30.5408 301.287C30.7077 301.344 30.8835 301.372 31.0681 301.372C31.2066 301.372 31.3203 301.365 31.4091 301.351C31.4978 301.333 31.5689 301.319 31.6221 301.308L31.8778 302.437C31.7926 302.469 31.6736 302.501 31.5209 302.533C31.3682 302.569 31.1747 302.587 30.9403 302.587C30.5852 302.587 30.2372 302.51 29.8963 302.357C29.5589 302.205 29.2784 301.972 29.0547 301.66C28.8345 301.347 28.7244 300.953 28.7244 300.477V292.338ZM35.0525 297.558V302.48H33.7954V291.571H35.0525V295.577H35.1591C35.3508 295.154 35.6385 294.818 36.022 294.57C36.4091 294.318 36.924 294.192 37.5667 294.192C38.1243 294.192 38.6125 294.303 39.0316 294.527C39.4506 294.747 39.7755 295.087 40.0064 295.545C40.2407 295.999 40.3579 296.578 40.3579 297.281V302.48H39.1008V297.366C39.1008 296.716 38.9321 296.214 38.5948 295.859C38.261 295.5 37.7976 295.321 37.2045 295.321C36.7926 295.321 36.4233 295.408 36.0966 295.582C35.7734 295.756 35.5177 296.01 35.3295 296.344C35.1449 296.677 35.0525 297.082 35.0525 297.558ZM47.814 299.135V294.298H49.0711V302.48H47.814V301.095H47.7287C47.537 301.511 47.2387 301.864 46.8339 302.155C46.429 302.443 45.9177 302.587 45.2998 302.587C44.7884 302.587 44.3339 302.475 43.9361 302.251C43.5384 302.024 43.2259 301.683 42.9986 301.228C42.7714 300.77 42.6577 300.193 42.6577 299.497V294.298H43.9148V299.412C43.9148 300.008 44.0817 300.484 44.4155 300.839C44.7529 301.194 45.1826 301.372 45.7046 301.372C46.0171 301.372 46.3349 301.292 46.6581 301.132C46.9848 300.973 47.2582 300.727 47.4784 300.397C47.7021 300.067 47.814 299.646 47.814 299.135ZM51.544 302.48V291.571H52.8011V295.598H52.9076C53 295.456 53.1278 295.275 53.2912 295.055C53.4581 294.831 53.696 294.632 54.0049 294.458C54.3174 294.28 54.74 294.192 55.2727 294.192C55.9616 294.192 56.5689 294.364 57.0944 294.708C57.62 295.053 58.0302 295.541 58.3249 296.173C58.6196 296.805 58.767 297.551 58.767 298.41C58.767 299.277 58.6196 300.028 58.3249 300.664C58.0302 301.296 57.6218 301.786 57.0998 302.134C56.5777 302.478 55.9758 302.65 55.294 302.65C54.7684 302.65 54.3476 302.563 54.0316 302.389C53.7155 302.212 53.4723 302.011 53.3018 301.788C53.1314 301.56 53 301.372 52.9076 301.223H52.7585V302.48H51.544ZM52.7798 298.389C52.7798 299.007 52.8703 299.552 53.0515 300.024C53.2326 300.493 53.4971 300.861 53.8451 301.127C54.1931 301.39 54.6193 301.521 55.1235 301.521C55.6491 301.521 56.0877 301.383 56.4392 301.106C56.7944 300.825 57.0607 300.449 57.2382 299.976C57.4194 299.501 57.5099 298.971 57.5099 298.389C57.5099 297.814 57.4211 297.295 57.2436 296.834C57.0696 296.368 56.805 296.001 56.4499 295.731C56.0983 295.458 55.6562 295.321 55.1235 295.321C54.6122 295.321 54.1825 295.451 53.8345 295.71C53.4865 295.965 53.2237 296.324 53.0461 296.786C52.8686 297.244 52.7798 297.778 52.7798 298.389ZM73.8576 294.98H72.5365C72.4584 294.6 72.3217 294.266 72.1264 293.979C71.9346 293.691 71.7002 293.449 71.4233 293.254C71.1498 293.055 70.8462 292.906 70.5124 292.807C70.1786 292.707 69.8306 292.658 69.4684 292.658C68.8078 292.658 68.2095 292.824 67.6733 293.158C67.1406 293.492 66.7162 293.984 66.4002 294.634C66.0877 295.284 65.9314 296.081 65.9314 297.025C65.9314 297.97 66.0877 298.767 66.4002 299.417C66.7162 300.067 67.1406 300.559 67.6733 300.893C68.2095 301.226 68.8078 301.393 69.4684 301.393C69.8306 301.393 70.1786 301.344 70.5124 301.244C70.8462 301.145 71.1498 300.997 71.4233 300.802C71.7002 300.603 71.9346 300.36 72.1264 300.072C72.3217 299.781 72.4584 299.447 72.5365 299.071H73.8576C73.7581 299.628 73.577 300.127 73.3142 300.568C73.0515 301.008 72.7248 301.383 72.3341 301.692C71.9435 301.997 71.5049 302.23 71.0184 302.389C70.5355 302.549 70.0188 302.629 69.4684 302.629C68.538 302.629 67.7105 302.402 66.9861 301.947C66.2617 301.493 65.6917 300.846 65.2762 300.008C64.8608 299.17 64.653 298.176 64.653 297.025C64.653 295.875 64.8608 294.881 65.2762 294.042C65.6917 293.204 66.2617 292.558 66.9861 292.104C67.7105 291.649 68.538 291.422 69.4684 291.422C70.0188 291.422 70.5355 291.502 71.0184 291.661C71.5049 291.821 71.9435 292.056 72.3341 292.365C72.7248 292.67 73.0515 293.043 73.3142 293.483C73.577 293.92 73.7581 294.419 73.8576 294.98ZM79.1457 302.65C78.407 302.65 77.7589 302.475 77.2014 302.123C76.6474 301.772 76.2142 301.28 75.9017 300.648C75.5927 300.015 75.4383 299.277 75.4383 298.432C75.4383 297.579 75.5927 296.835 75.9017 296.2C76.2142 295.564 76.6474 295.071 77.2014 294.719C77.7589 294.367 78.407 294.192 79.1457 294.192C79.8843 294.192 80.5306 294.367 81.0846 294.719C81.6421 295.071 82.0753 295.564 82.3843 296.2C82.6968 296.835 82.853 297.579 82.853 298.432C82.853 299.277 82.6968 300.015 82.3843 300.648C82.0753 301.28 81.6421 301.772 81.0846 302.123C80.5306 302.475 79.8843 302.65 79.1457 302.65ZM79.1457 301.521C79.7067 301.521 80.1684 301.377 80.5306 301.09C80.8928 300.802 81.1609 300.424 81.3349 299.955C81.5089 299.486 81.5959 298.979 81.5959 298.432C81.5959 297.885 81.5089 297.375 81.3349 296.903C81.1609 296.431 80.8928 296.049 80.5306 295.758C80.1684 295.466 79.7067 295.321 79.1457 295.321C78.5846 295.321 78.1229 295.466 77.7607 295.758C77.3985 296.049 77.1304 296.431 76.9564 296.903C76.7824 297.375 76.6954 297.885 76.6954 298.432C76.6954 298.979 76.7824 299.486 76.9564 299.955C77.1304 300.424 77.3985 300.802 77.7607 301.09C78.1229 301.377 78.5846 301.521 79.1457 301.521ZM84.772 302.48V294.298H85.9865V295.577H86.093C86.2635 295.14 86.5387 294.801 86.9186 294.559C87.2986 294.314 87.7549 294.192 88.2876 294.192C88.8274 294.192 89.2766 294.314 89.6353 294.559C89.9975 294.801 90.2798 295.14 90.4822 295.577H90.5674C90.777 295.154 91.0912 294.818 91.5103 294.57C91.9293 294.318 92.4318 294.192 93.0177 294.192C93.7493 294.192 94.3476 294.421 94.8128 294.879C95.278 295.333 95.5106 296.042 95.5106 297.004V302.48H94.2535V297.004C94.2535 296.4 94.0884 295.969 93.7581 295.71C93.4279 295.451 93.039 295.321 92.5916 295.321C92.0163 295.321 91.5706 295.495 91.2546 295.843C90.9385 296.187 90.7805 296.624 90.7805 297.153V302.48H89.5021V296.876C89.5021 296.411 89.3512 296.036 89.0493 295.752C88.7475 295.465 88.3586 295.321 87.8828 295.321C87.5561 295.321 87.2507 295.408 86.9666 295.582C86.686 295.756 86.4588 295.997 86.2848 296.306C86.1143 296.612 86.0291 296.965 86.0291 297.366V302.48H84.772ZM97.8091 302.48V294.298H99.0236V295.577H99.1301C99.3006 295.14 99.5758 294.801 99.9558 294.559C100.336 294.314 100.792 294.192 101.325 294.192C101.864 294.192 102.314 294.314 102.672 294.559C103.035 294.801 103.317 295.14 103.519 295.577H103.605C103.814 295.154 104.128 294.818 104.547 294.57C104.966 294.318 105.469 294.192 106.055 294.192C106.786 294.192 107.385 294.421 107.85 294.879C108.315 295.333 108.548 296.042 108.548 297.004V302.48H107.291V297.004C107.291 296.4 107.125 295.969 106.795 295.71C106.465 295.451 106.076 295.321 105.629 295.321C105.053 295.321 104.608 295.495 104.292 295.843C103.976 296.187 103.818 296.624 103.818 297.153V302.48H102.539V296.876C102.539 296.411 102.388 296.036 102.086 295.752C101.785 295.465 101.396 295.321 100.92 295.321C100.593 295.321 100.288 295.408 100.004 295.582C99.7232 295.756 99.4959 295.997 99.3219 296.306C99.1514 296.612 99.0662 296.965 99.0662 297.366V302.48H97.8091ZM110.846 302.48V294.298H112.103V302.48H110.846ZM111.485 292.935C111.24 292.935 111.029 292.851 110.852 292.684C110.678 292.517 110.591 292.317 110.591 292.082C110.591 291.848 110.678 291.647 110.852 291.48C111.029 291.313 111.24 291.23 111.485 291.23C111.73 291.23 111.94 291.313 112.114 291.48C112.292 291.647 112.38 291.848 112.38 292.082C112.38 292.317 112.292 292.517 112.114 292.684C111.94 292.851 111.73 292.935 111.485 292.935ZM117.964 294.298V295.364H113.724V294.298H117.964ZM114.96 292.338H116.217V300.136C116.217 300.491 116.268 300.758 116.371 300.935C116.478 301.109 116.613 301.226 116.776 301.287C116.943 301.344 117.119 301.372 117.303 301.372C117.442 301.372 117.556 301.365 117.644 301.351C117.733 301.333 117.804 301.319 117.857 301.308L118.113 302.437C118.028 302.469 117.909 302.501 117.756 302.533C117.604 302.569 117.41 302.587 117.176 302.587C116.821 302.587 116.473 302.51 116.132 302.357C115.794 302.205 115.514 301.972 115.29 301.66C115.07 301.347 114.96 300.953 114.96 300.477V292.338ZM125.504 296.131L124.375 296.45C124.304 296.262 124.199 296.079 124.06 295.902C123.925 295.72 123.741 295.571 123.506 295.454C123.272 295.337 122.972 295.278 122.606 295.278C122.106 295.278 121.688 295.394 121.354 295.625C121.024 295.852 120.859 296.141 120.859 296.493C120.859 296.805 120.973 297.052 121.2 297.233C121.427 297.414 121.782 297.565 122.265 297.686L123.48 297.984C124.211 298.162 124.756 298.433 125.115 298.799C125.474 299.161 125.653 299.628 125.653 300.2C125.653 300.669 125.518 301.088 125.248 301.457C124.982 301.827 124.609 302.118 124.13 302.331C123.65 302.544 123.093 302.65 122.457 302.65C121.623 302.65 120.932 302.469 120.385 302.107C119.838 301.745 119.492 301.216 119.346 300.52L120.539 300.221C120.653 300.662 120.868 300.992 121.184 301.212C121.504 301.432 121.921 301.542 122.436 301.542C123.022 301.542 123.487 301.418 123.831 301.17C124.179 300.917 124.353 300.616 124.353 300.264C124.353 299.98 124.254 299.742 124.055 299.55C123.856 299.355 123.551 299.209 123.139 299.114L121.775 298.794C121.026 298.616 120.476 298.341 120.124 297.968C119.776 297.592 119.602 297.121 119.602 296.557C119.602 296.095 119.732 295.687 119.991 295.332C120.254 294.976 120.61 294.698 121.061 294.495C121.516 294.293 122.031 294.192 122.606 294.192C123.416 294.192 124.052 294.369 124.513 294.724C124.978 295.079 125.309 295.548 125.504 296.131Z" fill="#101828"/>
</g>
<g filter="url(#filter2_d_0_1)">
<rect x="346" y="236" width="154.92" height="86.96" rx="18.36" fill="#F5F5F4" shape-rendering="crispEdges"/>
<g filter="url(#filter3_d_0_1)">
<rect x="364.36" y="255" width="48.96" height="48.96" rx="12.24" fill="#41BFB3"/>
<g clip-path="url(#clip1_0_1)">
<path d="M401.271 284.899H400.188V283.942H401.271C402.036 283.942 402.674 283.305 402.674 282.54V275.846C402.674 274.635 401.654 273.615 400.443 273.615H393.43C392.219 273.615 391.199 274.635 391.199 275.846V282.54C391.199 283.305 391.836 283.942 392.601 283.942H393.685V284.899H392.601C391.263 284.899 390.243 283.815 390.243 282.54V275.846C390.243 274.061 391.645 272.659 393.43 272.659H400.506C402.291 272.659 403.694 274.061 403.694 275.846V282.54C403.694 283.879 402.61 284.899 401.271 284.899ZM396.936 271.639C395.024 271.639 393.43 270.045 393.43 268.132C393.43 266.22 395.024 264.626 396.936 264.626C398.849 264.626 400.443 266.22 400.443 268.132C400.443 270.045 398.913 271.639 396.936 271.639ZM396.936 265.646C395.534 265.646 394.386 266.794 394.386 268.196C394.386 269.599 395.534 270.746 396.936 270.746C398.339 270.746 399.486 269.599 399.486 268.196C399.486 266.794 398.339 265.646 396.936 265.646Z" fill="#F5F5F4"/>
<path d="M398.594 294.334C397.956 294.334 397.383 294.015 397 293.569C396.618 294.015 396.044 294.334 395.406 294.334C394.259 294.334 393.303 293.377 393.303 292.23V276.675H394.259V292.23C394.259 292.867 394.769 293.377 395.406 293.377C396.044 293.377 396.49 292.804 396.49 292.23V284.452H397.446V292.23C397.446 292.867 397.956 293.377 398.594 293.377C399.231 293.377 399.741 292.867 399.741 292.23V276.675H400.698V292.23C400.698 293.377 399.741 294.334 398.594 294.334Z" fill="#F5F5F4"/>
<path d="M391.709 287.704H374.05V267.686H392.028V268.642H375.006V286.747H391.709V287.704Z" fill="#F5F5F4"/>
<path d="M388.585 276.611H377.62V277.567H388.585V276.611Z" fill="#F5F5F4"/>
<path d="M388.585 279.862H377.62V280.819H388.585V279.862Z" fill="#F5F5F4"/>
<path d="M388.585 283.177H377.62V284.134H388.585V283.177Z" fill="#F5F5F4"/>
</g>
</g>
<path d="M434.959 260.818V279H431.115V264.467H431.008L426.844 267.077V263.668L431.345 260.818H434.959ZM439.28 279V276.23L445.752 270.238C446.302 269.705 446.764 269.225 447.137 268.799C447.516 268.373 447.803 267.956 447.998 267.548C448.193 267.133 448.291 266.686 448.291 266.207C448.291 265.674 448.17 265.216 447.927 264.831C447.684 264.44 447.353 264.141 446.933 263.934C446.512 263.721 446.036 263.615 445.503 263.615C444.947 263.615 444.462 263.727 444.047 263.952C443.633 264.177 443.313 264.5 443.089 264.92C442.864 265.34 442.751 265.84 442.751 266.42H439.102C439.102 265.23 439.372 264.198 439.91 263.322C440.449 262.446 441.203 261.768 442.174 261.289C443.145 260.809 444.263 260.57 445.53 260.57C446.832 260.57 447.965 260.8 448.93 261.262C449.901 261.718 450.655 262.351 451.194 263.162C451.733 263.973 452.002 264.902 452.002 265.95C452.002 266.636 451.866 267.314 451.594 267.983C451.327 268.651 450.851 269.394 450.164 270.211C449.478 271.022 448.51 271.995 447.261 273.132L444.607 275.733V275.857H452.242V279H439.28ZM460.46 276.23V263.659H463.639V276.23H460.46ZM455.764 271.534V268.355H468.335V271.534H455.764Z" fill="#101828"/>
<path opacity="0.5" d="M435.705 291.5H434.384C434.306 291.12 434.169 290.786 433.974 290.499C433.782 290.211 433.548 289.969 433.271 289.774C432.997 289.575 432.694 289.426 432.36 289.327C432.026 289.227 431.678 289.178 431.316 289.178C430.655 289.178 430.057 289.344 429.521 289.678C428.988 290.012 428.564 290.504 428.248 291.154C427.935 291.804 427.779 292.601 427.779 293.545C427.779 294.49 427.935 295.287 428.248 295.937C428.564 296.587 428.988 297.079 429.521 297.413C430.057 297.746 430.655 297.913 431.316 297.913C431.678 297.913 432.026 297.864 432.36 297.764C432.694 297.665 432.997 297.517 433.271 297.322C433.548 297.123 433.782 296.88 433.974 296.592C434.169 296.301 434.306 295.967 434.384 295.591H435.705C435.606 296.148 435.424 296.647 435.162 297.088C434.899 297.528 434.572 297.903 434.182 298.212C433.791 298.517 433.352 298.75 432.866 298.909C432.383 299.069 431.866 299.149 431.316 299.149C430.385 299.149 429.558 298.922 428.834 298.467C428.109 298.013 427.539 297.366 427.124 296.528C426.708 295.69 426.5 294.696 426.5 293.545C426.5 292.395 426.708 291.401 427.124 290.562C427.539 289.724 428.109 289.078 428.834 288.624C429.558 288.169 430.385 287.942 431.316 287.942C431.866 287.942 432.383 288.022 432.866 288.181C433.352 288.341 433.791 288.576 434.182 288.885C434.572 289.19 434.899 289.563 435.162 290.003C435.424 290.44 435.606 290.939 435.705 291.5ZM440.993 299.17C440.254 299.17 439.606 298.995 439.049 298.643C438.495 298.292 438.062 297.8 437.749 297.168C437.44 296.536 437.286 295.797 437.286 294.952C437.286 294.099 437.44 293.355 437.749 292.72C438.062 292.084 438.495 291.591 439.049 291.239C439.606 290.887 440.254 290.712 440.993 290.712C441.732 290.712 442.378 290.887 442.932 291.239C443.489 291.591 443.923 292.084 444.232 292.72C444.544 293.355 444.7 294.099 444.7 294.952C444.7 295.797 444.544 296.536 444.232 297.168C443.923 297.8 443.489 298.292 442.932 298.643C442.378 298.995 441.732 299.17 440.993 299.17ZM440.993 298.041C441.554 298.041 442.016 297.897 442.378 297.61C442.74 297.322 443.008 296.944 443.182 296.475C443.356 296.006 443.443 295.499 443.443 294.952C443.443 294.405 443.356 293.895 443.182 293.423C443.008 292.951 442.74 292.569 442.378 292.278C442.016 291.987 441.554 291.841 440.993 291.841C440.432 291.841 439.97 291.987 439.608 292.278C439.246 292.569 438.978 292.951 438.804 293.423C438.63 293.895 438.543 294.405 438.543 294.952C438.543 295.499 438.63 296.006 438.804 296.475C438.978 296.944 439.246 297.322 439.608 297.61C439.97 297.897 440.432 298.041 440.993 298.041ZM447.876 294.078V299H446.619V288.091H447.876V292.097H447.983C448.175 291.674 448.462 291.338 448.846 291.09C449.233 290.838 449.748 290.712 450.391 290.712C450.948 290.712 451.436 290.824 451.856 291.047C452.275 291.267 452.599 291.607 452.83 292.065C453.065 292.519 453.182 293.098 453.182 293.801V299H451.925V293.886C451.925 293.237 451.756 292.734 451.419 292.379C451.085 292.02 450.622 291.841 450.028 291.841C449.617 291.841 449.247 291.928 448.921 292.102C448.597 292.276 448.342 292.53 448.153 292.864C447.969 293.197 447.876 293.602 447.876 294.078ZM458.806 299.17C458.067 299.17 457.419 298.995 456.861 298.643C456.307 298.292 455.874 297.8 455.562 297.168C455.253 296.536 455.098 295.797 455.098 294.952C455.098 294.099 455.253 293.355 455.562 292.72C455.874 292.084 456.307 291.591 456.861 291.239C457.419 290.887 458.067 290.712 458.806 290.712C459.544 290.712 460.19 290.887 460.744 291.239C461.302 291.591 461.735 292.084 462.044 292.72C462.357 293.355 462.513 294.099 462.513 294.952C462.513 295.797 462.357 296.536 462.044 297.168C461.735 297.8 461.302 298.292 460.744 298.643C460.19 298.995 459.544 299.17 458.806 299.17ZM458.806 298.041C459.367 298.041 459.828 297.897 460.19 297.61C460.553 297.322 460.821 296.944 460.995 296.475C461.169 296.006 461.256 295.499 461.256 294.952C461.256 294.405 461.169 293.895 460.995 293.423C460.821 292.951 460.553 292.569 460.19 292.278C459.828 291.987 459.367 291.841 458.806 291.841C458.244 291.841 457.783 291.987 457.421 292.278C457.058 292.569 456.79 292.951 456.616 293.423C456.442 293.895 456.355 294.405 456.355 294.952C456.355 295.499 456.442 296.006 456.616 296.475C456.79 296.944 457.058 297.322 457.421 297.61C457.783 297.897 458.244 298.041 458.806 298.041ZM464.432 299V290.818H465.646V292.054H465.732C465.881 291.649 466.151 291.321 466.541 291.069C466.932 290.816 467.372 290.69 467.862 290.69C467.955 290.69 468.07 290.692 468.209 290.696C468.347 290.699 468.452 290.705 468.523 290.712V291.99C468.48 291.979 468.383 291.963 468.23 291.942C468.081 291.917 467.923 291.905 467.756 291.905C467.358 291.905 467.003 291.988 466.69 292.155C466.381 292.319 466.136 292.546 465.955 292.837C465.778 293.125 465.689 293.453 465.689 293.822V299H464.432ZM474.084 290.818V291.884H469.844V290.818H474.084ZM471.08 288.858H472.337V296.656C472.337 297.011 472.388 297.278 472.491 297.455C472.598 297.629 472.733 297.746 472.896 297.807C473.063 297.864 473.239 297.892 473.423 297.892C473.562 297.892 473.675 297.885 473.764 297.871C473.853 297.853 473.924 297.839 473.977 297.828L474.233 298.957C474.148 298.989 474.029 299.021 473.876 299.053C473.723 299.089 473.53 299.107 473.296 299.107C472.94 299.107 472.592 299.03 472.251 298.877C471.914 298.725 471.634 298.492 471.41 298.18C471.19 297.867 471.08 297.473 471.08 296.997V288.858ZM481.624 292.651L480.495 292.97C480.424 292.782 480.319 292.599 480.18 292.422C480.045 292.24 479.861 292.091 479.626 291.974C479.392 291.857 479.092 291.798 478.726 291.798C478.225 291.798 477.808 291.914 477.474 292.145C477.144 292.372 476.979 292.661 476.979 293.013C476.979 293.325 477.093 293.572 477.32 293.753C477.547 293.934 477.902 294.085 478.385 294.206L479.6 294.504C480.331 294.682 480.876 294.953 481.235 295.319C481.594 295.681 481.773 296.148 481.773 296.72C481.773 297.189 481.638 297.608 481.368 297.977C481.102 298.347 480.729 298.638 480.25 298.851C479.77 299.064 479.213 299.17 478.577 299.17C477.742 299.17 477.052 298.989 476.505 298.627C475.958 298.265 475.612 297.736 475.466 297.04L476.659 296.741C476.773 297.182 476.988 297.512 477.304 297.732C477.623 297.952 478.041 298.062 478.556 298.062C479.142 298.062 479.607 297.938 479.951 297.69C480.299 297.437 480.473 297.136 480.473 296.784C480.473 296.5 480.374 296.262 480.175 296.07C479.976 295.875 479.671 295.729 479.259 295.634L477.895 295.314C477.146 295.136 476.595 294.861 476.244 294.488C475.896 294.112 475.722 293.641 475.722 293.077C475.722 292.615 475.851 292.207 476.111 291.852C476.373 291.496 476.73 291.218 477.181 291.015C477.636 290.813 478.151 290.712 478.726 290.712C479.536 290.712 480.171 290.889 480.633 291.244C481.098 291.599 481.429 292.068 481.624 292.651Z" fill="#101828"/>
</g>
</g>
<defs>
<filter id="filter0_d_0_1" x="-118.25" y="214.11" width="301.66" height="167.34" filterUnits="userSpaceOnUse" color-interpolation-filters="sRGB">
<feFlood flood-opacity="0" result="BackgroundImageFix"/>
<feColorMatrix in="SourceAlpha" type="matrix" values="0 0 0 0 0 0 0 0 0 0 0 0 0 0 0 0 0 0 127 0" result="hardAlpha"/>
<feOffset dy="18.36"/>
<feGaussianBlur stdDeviation="19.125"/>
<feComposite in2="hardAlpha" operator="out"/>
<feColorMatrix type="matrix" values="0 0 0 0 0 0 0 0 0 0 0 0 0 0 0 0 0 0 0.15 0"/>
<feBlend mode="normal" in2="BackgroundImageFix" result="effect1_dropShadow_0_1"/>
<feBlend mode="normal" in="SourceGraphic" in2="effect1_dropShadow_0_1" result="shape"/>
</filter>
<filter id="filter1_d_0_1" x="-99.8899" y="235.05" width="125.46" height="125.46" filterUnits="userSpaceOnUse" color-interpolation-filters="sRGB">
<feFlood flood-opacity="0" result="BackgroundImageFix"/>
<feColorMatrix in="SourceAlpha" type="matrix" values="0 0 0 0 0 0 0 0 0 0 0 0 0 0 0 0 0 0 127 0" result="hardAlpha"/>
<feOffset dy="18.36"/>
<feGaussianBlur stdDeviation="19.125"/>
<feComposite in2="hardAlpha" operator="out"/>
<feColorMatrix type="matrix" values="0 0 0 0 0.0509804 0 0 0 0 0.0470588 0 0 0 0 0.219608 0 0 0 0.15 0"/>
<feBlend mode="normal" in2="BackgroundImageFix" result="effect1_dropShadow_0_1"/>
<feBlend mode="normal" in="SourceGraphic" in2="effect1_dropShadow_0_1" result="shape"/>
</filter>
<filter id="filter2_d_0_1" x="307.75" y="216.11" width="231.42" height="163.46" filterUnits="userSpaceOnUse" color-interpolation-filters="sRGB">
<feFlood flood-opacity="0" result="BackgroundImageFix"/>
<feColorMatrix in="SourceAlpha" type="matrix" values="0 0 0 0 0 0 0 0 0 0 0 0 0 0 0 0 0 0 127 0" result="hardAlpha"/>
<feOffset dy="18.36"/>
<feGaussianBlur stdDeviation="19.125"/>
<feComposite in2="hardAlpha" operator="out"/>
<feColorMatrix type="matrix" values="0 0 0 0 0 0 0 0 0 0 0 0 0 0 0 0 0 0 0.15 0"/>
<feBlend mode="normal" in2="BackgroundImageFix" result="effect1_dropShadow_0_1"/>
<feBlend mode="normal" in="SourceGraphic" in2="effect1_dropShadow_0_1" result="shape"/>
</filter>
<filter id="filter3_d_0_1" x="326.11" y="235.11" width="125.46" height="125.46" filterUnits="userSpaceOnUse" color-interpolation-filters="sRGB">
<feFlood flood-opacity="0" result="BackgroundImageFix"/>
<feColorMatrix in="SourceAlpha" type="matrix" values="0 0 0 0 0 0 0 0 0 0 0 0 0 0 0 0 0 0 127 0" result="hardAlpha"/>
<feOffset dy="18.36"/>
<feGaussianBlur stdDeviation="19.125"/>
<feComposite in2="hardAlpha" operator="out"/>
<feColorMatrix type="matrix" values="0 0 0 0 0.0509804 0 0 0 0 0.0470588 0 0 0 0 0.219608 0 0 0 0.15 0"/>
<feBlend mode="normal" in2="BackgroundImageFix" result="effect1_dropShadow_0_1"/>
<feBlend mode="normal" in="SourceGraphic" in2="effect1_dropShadow_0_1" result="shape"/>
</filter>
<linearGradient id="paint0_linear_0_1" x1="497" y1="161" x2="502.5" y2="198" gradientUnits="userSpaceOnUse">
<stop stop-color="#41BEB3"/>
<stop offset="1" stop-color="#DEB483"/>
</linearGradient>
<clipPath id="clip0_0_1">
<rect width="1440" height="4629" fill="white" transform="translate(-771 -141)"/>
</clipPath>
<clipPath id="clip1_0_1">
<rect width="30.6" height="30.6" fill="white" transform="translate(373.54 264.18)"/>
</clipPath>
</defs>
</svg>
