<svg width="43" height="48" viewBox="0 0 43 48" fill="none" xmlns="http://www.w3.org/2000/svg">
<path d="M21.2313 48C20.6938 48 19.8875 47.7355 19.35 47.4711L13.4375 44.0331C12.6312 43.5041 12.9 43.2397 13.1688 43.2397C14.5125 42.7107 14.5125 42.7107 15.8563 41.9173C16.125 41.9173 16.125 41.9173 16.3937 41.9173L20.9625 44.562C21.2313 44.562 21.2312 44.562 21.5 44.562L39.2375 34.5124C39.5062 34.5124 39.5062 34.2479 39.5062 33.9835V13.6198C39.5062 13.3554 39.5062 13.0909 39.2375 13.0909L21.5 3.04132C21.2312 3.04132 21.2313 3.04132 20.9625 3.04132L3.22499 13.0909C2.95624 13.0909 2.95625 13.3554 2.95625 13.6198V33.9835C2.95625 34.2479 2.95624 34.5124 3.22499 34.5124L8.0625 37.157C10.75 38.4793 12.3625 36.8926 12.3625 35.3058V15.2066C12.3625 14.9422 12.6313 14.6777 12.9 14.6777H15.05C15.3187 14.6777 15.5875 14.9422 15.5875 15.2066V35.3058C15.5875 38.7438 13.7063 40.8595 10.4813 40.8595C9.40625 40.8595 8.6 40.8595 6.45 39.8016L1.88124 37.157C0.806242 36.3636 0 35.3058 0 33.9835V13.6198C0 12.2975 0.806242 10.9752 1.88124 10.4463L19.6188 0.396694C20.6938 -0.132231 22.3062 -0.132231 23.3812 0.396694L41.1188 10.4463C42.1938 11.2397 43 12.2975 43 13.6198V33.9835C43 35.3058 42.1938 36.6281 41.1188 37.157L23.3812 47.2066C22.575 48 22.0375 48 21.2313 48ZM26.875 34.2479C19.0812 34.2479 17.4688 30.8099 17.4688 27.6364C17.4688 27.3719 17.7375 27.1075 18.0062 27.1075H20.1562C20.425 27.1075 20.6937 27.3719 20.6937 27.6364C20.9625 30.0165 22.0375 31.0744 26.875 31.0744C30.6375 31.0744 32.25 30.281 32.25 28.1653C32.25 27.1074 31.7125 26.314 26.0687 25.5207C21.2312 24.9917 18.275 23.9339 18.275 20.2314C18.275 16.7934 21.2313 14.6777 26.3375 14.6777C31.9813 14.6777 34.9375 16.5289 35.2062 20.7603V21.0248L34.9375 21.2892H32.5187C32.25 21.2892 31.9813 21.0248 31.9813 20.7603C31.4438 18.3802 30.1 17.5868 26.3375 17.5868C22.3063 17.5868 21.7687 18.9091 21.7687 19.9669C21.7687 21.2892 22.3063 21.5537 27.95 22.3471C33.325 23.1405 36.0125 24.1983 36.0125 27.9008C35.475 31.8678 32.25 34.2479 26.875 34.2479Z" fill="white"/>
</svg>
