<svg width="41" height="34" viewBox="0 0 41 34" fill="none" xmlns="http://www.w3.org/2000/svg">
    <path d="M39.6837 2.07261C38.7781 1.45466 37.5648 1.40316 36.3173 1.88379L35.0699 2.38158L22.6465 7.70281L20.9718 5.90046L17.6909 2.36442C17.6054 2.27859 16.9902 1.59198 16.0675 0.974029C14.5978 0.0127745 13.0941 -0.244704 11.7099 0.235924L11.6928 0.253089L2.43084 4.38992C2.39666 4.40708 2.37957 4.40708 2.3454 4.42425C2.08907 4.54441 1.5935 4.87054 1.11502 5.437L1.04667 5.36834L0.7049 5.98629C0.687811 6.02062 0.653635 6.05495 0.636546 6.08928L0.414396 6.48408L0.431484 6.51841C0.226422 6.99904 0.0897146 7.47967 0.0384491 7.99462C-0.0128164 8.44092 -0.0128164 8.93871 0.0384491 9.47083V28.8847C0.0384491 30.0863 0.499838 31.0647 1.35426 31.6484C1.84983 31.9917 2.46501 32.1633 3.11438 32.1633C3.62703 32.1633 4.17386 32.0603 4.7207 31.8372L5.52385 31.511L18.4598 25.9838L20.1345 27.7862L24.8338 32.8843L24.8851 32.9358C24.9535 32.9872 26.1838 34 27.8072 34C28.2003 34 28.6104 33.9485 29.0376 33.794L29.0718 33.7768L38.6926 29.2281C39.1882 28.9877 39.5983 28.6616 39.9572 28.2325L40.0255 28.3011L40.4185 27.5115C40.4527 27.4429 40.4869 27.357 40.5211 27.2884L40.6065 27.1167L40.5894 27.0996C40.8458 26.4301 40.9483 25.7607 40.9825 25.28L40.9996 24.3703V4.83621C41.0166 3.63465 40.5382 2.63906 39.6837 2.07261ZM5.07955 30.3438L4.29348 30.6528C3.43906 30.9961 2.61881 30.9789 2.07198 30.5841C1.57641 30.2408 1.28591 29.6229 1.28591 28.8333V9.41934V9.36784C1.23464 8.90438 1.23464 8.49241 1.28591 8.13194C1.303 7.92596 1.33717 7.73714 1.38844 7.53116L8.00169 14.6719L15.2814 22.5508L17.5541 24.9882L17.5883 25.0226L5.07955 30.3438ZM39.7692 25.1942C39.7521 25.4517 39.7179 25.7435 39.6496 26.0525L38.5901 24.9024L38.5217 24.8166L35.5312 21.5895L25.7737 11.05L23.5522 8.66407L35.5483 3.53165L36.7787 3.03386C37.6331 2.69056 38.4534 2.70772 39.0002 3.08536C39.5129 3.42866 39.7863 4.04661 39.7863 4.83621V24.336L39.7692 25.1942Z" fill="#464646"/>
    </svg>
    