<svg width="50" height="50" viewBox="0 0 50 50" fill="none" xmlns="http://www.w3.org/2000/svg">
<rect width="50" height="50" fill="#F5F5F5"/>
<g clip-path="url(#clip0_0_1)">
<rect width="1440" height="4629" transform="translate(-709 -395)" fill="white"/>
<path d="M-711.188 -395H728.812V505H-711.188V-395Z" fill="#41BEB3" fill-opacity="0.02"/>
<g opacity="0.1">
<path d="M-731.225 -30.773C-747.026 -12.9975 -753.973 10.8753 -750.053 35.0979C-747.372 51.6707 -739.345 68.5221 -725.409 82.4339C-700.385 107.402 -666.036 124.597 -630.687 134.81C-608.821 141.111 -586.615 145.359 -564.485 147.473C-554.016 148.477 -543.593 148.94 -533.271 148.861C-483.727 148.32 -444.565 167.662 -398.638 189.103C-371.424 201.91 -341.389 214.743 -312.648 223.394C-276.327 234.388 -217.842 242.045 -201.347 211.881C-198.811 207.301 -197.527 202.329 -196.576 197.157C-195.175 189.749 -194.389 182.1 -191.321 175.169C-183.089 156.553 -159.883 146.389 -137.177 139.032C-101.046 127.414 -58.9838 112.085 -54.2867 73.9041C-50.4921 42.9548 -75.329 10.7618 -104.84 -12.1298C-124.12 -27.1307 -145.636 -39.6413 -168.51 -49.1516C-192.324 -58.9672 -217.929 -63.5382 -241.961 -75.2505C-287.63 -97.5123 -328.087 -128.488 -375.085 -145.552C-405.279 -156.513 -440.093 -164.385 -474.283 -169.017C-518.113 -174.951 -560.511 -175.596 -588.335 -151.666C-605.604 -136.807 -614.77 -115.895 -631.256 -99.6668C-659.503 -71.9435 -704.817 -60.3141 -731.225 -30.773Z" stroke="#41BFB3" stroke-miterlimit="10"/>
<path d="M-743.419 -31.7535C-759.608 -13.5797 -766.564 10.9062 -762.416 35.6916C-759.584 52.6396 -751.307 69.876 -737.107 84.1089C-711.444 109.993 -676.118 128.276 -639.557 139.356C-616.984 146.176 -594.003 150.773 -571.089 153.052C-560.28 154.125 -549.519 154.611 -538.87 154.507C-487.551 153.874 -447.238 174.021 -399.88 196.188C-371.462 209.588 -340.046 222.995 -310.025 231.981C-272.07 243.348 -210.711 251.206 -193.798 219.072C-191.207 214.194 -189.959 208.853 -189.023 203.392C-187.663 195.513 -186.952 187.401 -183.847 180.005C-175.492 160.206 -151.286 149.397 -127.611 141.608C-89.9717 129.277 -45.8018 113.24 -41.4145 73.0901C-37.904 40.8528 -64.4621 7.57651 -95.5167 -15.8411C-115.796 -31.1591 -138.324 -43.864 -162.195 -53.444C-187.03 -63.3226 -213.649 -67.7005 -238.542 -79.7137C-285.823 -102.544 -327.373 -134.855 -375.882 -153.029C-406.909 -164.625 -442.774 -173.36 -477.981 -178.1C-523.108 -184.182 -566.723 -183.775 -595.052 -158.437C-612.784 -142.568 -622.13 -120.57 -639.199 -103.552C-668.453 -74.3982 -715.842 -62.5506 -743.419 -31.7535Z" stroke="#41BFB3" stroke-miterlimit="10"/>
<path d="M-755.626 -32.7573C-772.215 -14.0913 -779.041 10.507 -774.78 36.2675C-771.804 53.5754 -763.32 71.1128 -748.913 85.7931C-722.558 112.588 -686.266 131.954 -648.461 143.892C-625.197 151.231 -601.452 156.178 -577.763 158.621C-566.609 159.77 -555.504 160.285 -544.52 160.164C-491.426 159.423 -449.972 180.351 -401.181 203.269C-371.55 217.261 -338.748 231.233 -307.391 240.538C-267.883 252.299 -203.589 260.352 -186.279 226.243C-183.628 221.058 -182.406 215.406 -181.499 209.574C-180.2 201.22 -179.578 192.597 -176.421 184.784C-167.931 163.808 -142.721 152.36 -118.04 144.122C-78.8813 131.101 -32.5986 114.329 -28.525 72.202C-25.2672 38.7205 -53.5397 4.28176 -86.2382 -19.6021C-107.502 -35.2366 -131.04 -48.1247 -155.906 -57.7479C-181.759 -67.6819 -209.403 -71.8722 -235.145 -84.1807C-284.047 -107.578 -326.688 -141.224 -376.705 -160.518C-408.507 -172.78 -445.528 -182.327 -481.741 -187.175C-528.147 -193.403 -572.953 -191.933 -601.837 -165.192C-620.026 -148.306 -629.558 -125.229 -647.217 -107.418C-677.408 -76.8607 -726.905 -64.7693 -755.626 -32.7573Z" stroke="#41BFB3" stroke-miterlimit="10"/>
<path d="M-767.822 -33.7207C-784.761 -14.6368 -791.652 10.5405 -787.141 36.8685C-784.002 54.5745 -775.303 72.4282 -760.622 87.4872C-733.607 115.201 -696.29 135.583 -657.292 148.461C-633.326 156.306 -608.809 161.606 -584.333 164.233C-572.832 165.457 -561.381 165.998 -550.061 165.854C-495.192 165.022 -452.57 186.768 -402.377 210.393C-371.538 224.969 -337.341 239.504 -304.688 249.138C-263.571 261.297 -196.39 269.539 -178.663 233.46C-175.956 227.977 -174.735 221.99 -173.859 215.873C-172.609 207.033 -172.082 197.926 -168.857 189.691C-160.244 167.532 -134.025 155.436 -108.367 146.765C-67.6888 133.054 -19.2932 115.547 -15.5295 71.4507C-12.5336 36.6327 -42.5208 1.16059 -76.8368 -23.2479C-99.0982 -39.2223 -123.659 -52.3211 -149.536 -62.0206C-176.414 -72.0252 -205.089 -76.0008 -231.659 -88.6185C-282.185 -112.591 -325.924 -147.562 -377.443 -167.967C-412.527 -181.742 -448.906 -191.275 -485.424 -196.263C-533.161 -202.63 -579.182 -200.126 -608.535 -171.961C-627.183 -154.074 -636.912 -129.907 -655.141 -111.3C-686.359 -79.3156 -737.964 -66.9978 -767.822 -33.7207Z" stroke="#41BFB3" stroke-miterlimit="10"/>
<path d="M-780.016 -34.7024C-797.313 -15.2006 -804.267 10.5604 -799.497 37.4588C-796.211 55.5497 -787.297 73.7196 -772.373 89.1309C-744.695 117.754 -706.442 139.252 -666.194 152.962C-641.538 161.317 -616.254 166.961 -590.997 169.748C-579.153 171.043 -567.36 171.609 -555.708 171.442C-499.061 170.508 -455.262 193.052 -403.676 217.404C-371.612 232.594 -336.054 247.683 -302.081 257.641C-259.386 270.17 -189.282 278.619 -171.146 240.571C-168.375 234.789 -167.172 228.47 -166.337 222.029C-165.129 212.717 -164.662 203.118 -161.426 194.425C-152.652 171.082 -125.475 158.35 -98.816 149.239C-56.5596 134.824 -6.09625 116.585 -2.64692 70.5289C0.0482959 34.4271 -31.7087 -2.15059 -67.5323 -27.0508C-90.7851 -43.3388 -116.35 -56.634 -143.216 -66.4108C-171.095 -76.4402 -200.797 -80.211 -228.215 -93.1412C-280.373 -117.686 -325.182 -153.947 -378.22 -175.494C-411.637 -189.073 -450.91 -200.292 -489.131 -205.344C-538.163 -211.818 -585.387 -208.308 -615.269 -178.729C-634.359 -159.829 -644.267 -134.551 -663.083 -115.143C-695.314 -81.779 -749.027 -69.2174 -780.016 -34.7024Z" stroke="#41BFB3" stroke-miterlimit="10"/>
<path d="M-792.217 -35.6914C-809.868 -15.7662 -816.887 10.5805 -811.864 38.0517C-808.422 56.508 -799.31 75.033 -784.096 90.8535C-755.793 120.422 -716.528 142.983 -675.048 157.545C-649.704 166.424 -623.647 172.418 -597.605 175.361C-585.406 176.728 -573.258 177.318 -561.262 177.126C-502.844 176.094 -457.914 199.456 -404.91 224.529C-371.657 240.281 -334.706 255.968 -299.421 266.251C-255.112 279.186 -182.126 287.817 -163.584 247.793C-160.754 241.703 -159.56 235.068 -158.755 228.29C-157.6 218.501 -157.244 208.423 -153.931 199.289C-145.067 174.771 -116.847 161.383 -89.1873 151.832C-45.4028 136.726 7.17299 117.769 10.2926 69.722C12.7324 32.3336 -20.7561 -5.27338 -58.1628 -30.7412C-82.4137 -47.3286 -108.985 -60.8074 -136.84 -70.6517C-165.783 -80.8107 -196.465 -84.3965 -224.784 -97.6519C-278.563 -122.763 -324.457 -160.344 -379.014 -183.017C-413.239 -197.254 -453.623 -209.27 -492.814 -214.467C-543.218 -221.071 -591.609 -216.504 -622.005 -185.498C-641.537 -165.584 -651.667 -139.244 -671.042 -119C-704.266 -84.2345 -760.088 -71.4464 -792.217 -35.6914Z" stroke="#41BFB3" stroke-miterlimit="10"/>
<path d="M-804.421 -36.6709C-822.42 -16.3255 -829.503 10.5996 -824.233 38.6365C-820.621 57.5062 -811.288 76.3204 -795.813 92.5661C-766.854 123.011 -726.62 146.68 -683.92 162.09C-657.891 171.486 -631.066 177.83 -604.24 180.937C-591.713 182.37 -579.239 182.985 -566.925 182.777C-506.731 181.636 -460.641 205.801 -406.19 231.596C-371.741 247.909 -333.388 264.191 -296.807 274.804C-250.913 288.125 -175.011 296.947 -156.052 254.952C-153.166 248.565 -151.99 241.599 -151.219 234.494C-150.109 224.226 -149.839 213.661 -146.489 204.08C-137.491 178.384 -108.262 164.349 -79.6418 154.368C-34.321 138.568 20.3678 118.876 23.1691 68.8617C25.3375 30.1736 -9.89775 -8.49324 -48.8767 -34.4883C-74.1176 -51.4127 -101.704 -65.1012 -130.565 -75.0221C-160.502 -85.208 -192.198 -88.6007 -221.371 -102.124C-276.766 -127.812 -323.788 -166.651 -379.817 -190.504C-414.867 -205.36 -456.345 -218.229 -496.596 -223.531C-548.215 -230.304 -597.798 -224.673 -628.74 -192.267C-648.714 -171.339 -659.054 -143.915 -678.991 -122.859C-713.222 -86.6978 -771.155 -73.6737 -804.421 -36.6709Z" stroke="#41BFB3" stroke-miterlimit="10"/>
<path d="M-610.863 186.519C-597.979 188.033 -585.147 188.678 -572.487 188.447C-510.519 187.214 -463.28 212.175 -407.411 238.691C-371.725 255.624 -332.015 272.453 -294.106 283.421C-246.598 297.13 -167.806 306.149 -148.45 262.18C-141.248 245.832 -144.705 225.9 -138.949 208.959C-129.824 182.087 -99.5987 167.398 -69.9558 156.964C-23.103 140.479 33.6905 120.055 36.1781 68.063C38.0827 28.0903 1.09669 -11.644 -39.45 -38.176C-65.6862 -55.4094 -94.281 -69.2904 -124.135 -79.2853C-155.106 -89.5397 -187.819 -92.7295 -217.841 -106.566C-274.876 -132.841 -322.998 -173.031 -380.548 -197.957C-462.445 -233.453 -579.493 -259.209 -635.469 -199.038C-655.881 -177.089 -666.434 -148.587 -686.946 -126.725C-722.154 -89.1672 -782.212 -75.8952 -816.585 -37.6606C-847.697 -3.08741 -846.224 53.2865 -807.545 94.1964C-759.734 144.832 -681.891 178.282 -610.863 186.519Z" stroke="#41BFB3" stroke-miterlimit="10"/>
</g>
<g filter="url(#filter0_d_0_1)">
<rect x="-17.9999" y="-20" width="225.16" height="90.84" rx="18.36" fill="#F5F5F4" shape-rendering="crispEdges"/>
<g filter="url(#filter1_d_0_1)">
<rect x="0.360123" y="0.939941" width="48.96" height="48.96" rx="12.24" fill="#3EB5AA"/>
<g clip-path="url(#clip1_0_1)">
<path d="M27.7 35.35H21.4L20.65 33.325H9.32502V14.05C9.32502 13.15 10.075 12.4 10.975 12.4H39.025C39.925 12.4 40.675 13.15 40.675 14.05V33.4H29.2L27.7 35.35ZM22.225 34.225H27.175L28.675 32.2H39.55V14.05C39.55 13.75 39.325 13.525 39.025 13.525H10.975C10.675 13.525 10.45 13.75 10.45 14.05V32.275H21.475L22.225 34.225Z" fill="white"/>
<path d="M37.6 37.6H12.4C9.70002 37.6 7.52502 35.425 7.52502 32.725V32.125H21.4L22.15 34.15H27.1L28.6 32.125H42.4V32.725C42.475 35.425 40.225 37.6 37.6 37.6ZM8.72502 33.325C9.02502 35.125 10.525 36.475 12.4 36.475H37.525C39.4 36.475 40.975 35.125 41.2 33.325H29.2L27.7 35.35H21.4L20.65 33.325H8.72502Z" fill="white"/>
<path d="M19.525 16.375H13.75V21.4H19.525V16.375Z" fill="white"/>
<path d="M20.05 21.925H13.15V15.775H20.05V21.925ZM14.275 20.8H18.925V16.9H14.275V20.8Z" fill="white"/>
<path d="M19.525 24.325H13.75V29.3499H19.525V24.325Z" fill="white"/>
<path d="M20.05 29.95H13.15V23.8H20.05V29.95ZM14.275 28.825H18.925V24.925H14.275V28.825Z" fill="white"/>
<path d="M36.55 18.25H23.125V19.375H36.55V18.25Z" fill="white"/>
<path d="M36.55 26.275H23.125V27.4H36.55V26.275Z" fill="white"/>
</g>
</g>
</g>
</g>
<defs>
<filter id="filter0_d_0_1" x="-56.2499" y="-39.89" width="301.66" height="167.34" filterUnits="userSpaceOnUse" color-interpolation-filters="sRGB">
<feFlood flood-opacity="0" result="BackgroundImageFix"/>
<feColorMatrix in="SourceAlpha" type="matrix" values="0 0 0 0 0 0 0 0 0 0 0 0 0 0 0 0 0 0 127 0" result="hardAlpha"/>
<feOffset dy="18.36"/>
<feGaussianBlur stdDeviation="19.125"/>
<feComposite in2="hardAlpha" operator="out"/>
<feColorMatrix type="matrix" values="0 0 0 0 0 0 0 0 0 0 0 0 0 0 0 0 0 0 0.15 0"/>
<feBlend mode="normal" in2="BackgroundImageFix" result="effect1_dropShadow_0_1"/>
<feBlend mode="normal" in="SourceGraphic" in2="effect1_dropShadow_0_1" result="shape"/>
</filter>
<filter id="filter1_d_0_1" x="-37.8899" y="-18.9501" width="125.46" height="125.46" filterUnits="userSpaceOnUse" color-interpolation-filters="sRGB">
<feFlood flood-opacity="0" result="BackgroundImageFix"/>
<feColorMatrix in="SourceAlpha" type="matrix" values="0 0 0 0 0 0 0 0 0 0 0 0 0 0 0 0 0 0 127 0" result="hardAlpha"/>
<feOffset dy="18.36"/>
<feGaussianBlur stdDeviation="19.125"/>
<feComposite in2="hardAlpha" operator="out"/>
<feColorMatrix type="matrix" values="0 0 0 0 0.0509804 0 0 0 0 0.0470588 0 0 0 0 0.219608 0 0 0 0.15 0"/>
<feBlend mode="normal" in2="BackgroundImageFix" result="effect1_dropShadow_0_1"/>
<feBlend mode="normal" in="SourceGraphic" in2="effect1_dropShadow_0_1" result="shape"/>
</filter>
<clipPath id="clip0_0_1">
<rect width="1440" height="4629" fill="white" transform="translate(-709 -395)"/>
</clipPath>
<clipPath id="clip1_0_1">
<rect width="36" height="36" fill="white" transform="translate(7.00002 7)"/>
</clipPath>
</defs>
</svg>
