<svg width="32" height="32" viewBox="0 0 32 32" fill="none" xmlns="http://www.w3.org/2000/svg">
<path fill-rule="evenodd" clip-rule="evenodd" d="M16.0636 31.4314C19.1602 31.4314 22.1873 30.5131 24.7621 28.7927C27.3368 27.0723 29.3436 24.6271 30.5286 21.7662C31.7137 18.9052 32.0237 15.7572 31.4196 12.72C30.8155 9.6829 29.3243 6.89312 27.1347 4.70347C24.945 2.51382 22.1552 1.02265 19.1181 0.418525C16.081 -0.185598 12.9329 0.12446 10.072 1.30949C7.21106 2.49452 4.76579 4.5013 3.04539 7.07605C1.325 9.65081 0.406738 12.6779 0.406738 15.7745C0.406738 19.927 2.05629 23.9094 4.99252 26.8456C7.92875 29.7818 11.9111 31.4314 16.0636 31.4314ZM9.15058 22.8075V13.5094H12.0552V22.8075H9.15058ZM12.1944 9.67256C12.276 9.87661 12.3167 10.0947 12.3143 10.3144V10.3672C12.308 10.703 12.2026 11.0295 12.0115 11.3057C11.8203 11.5819 11.5519 11.7955 11.2399 11.9198C10.9278 12.0441 10.586 12.0735 10.2574 12.0043C9.92867 11.9352 9.62771 11.7705 9.3922 11.5311C9.15669 11.2916 8.9971 10.9879 8.93345 10.6581C8.8698 10.3283 8.90491 9.98709 9.03439 9.67717C9.16386 9.36725 9.38194 9.10244 9.66128 8.91594C9.94063 8.72944 10.2688 8.62954 10.6047 8.62877H10.6575C10.9885 8.63101 11.3115 8.73138 11.5855 8.91718C11.8594 9.10297 12.0722 9.36585 12.1968 9.67256H12.1944ZM19.5525 13.2718C20.052 13.2552 20.5491 13.347 21.0097 13.541C21.4703 13.735 21.8833 14.0266 22.2203 14.3956C22.5573 14.7647 22.8102 15.2024 22.9617 15.6787C23.1132 16.1549 23.1596 16.6583 23.0978 17.1543L23.075 22.8027H20.168V17.8273C20.168 16.3624 19.4817 15.7877 18.5579 15.7877H18.4475C17.9415 15.835 17.4746 16.08 17.1482 16.4695C16.8218 16.859 16.6622 17.3616 16.7043 17.8681V22.8135H13.7996V13.5154H16.5303V14.7787H16.6119C16.9281 14.2935 17.3661 13.8997 17.8821 13.6365C18.398 13.3734 18.974 13.2501 19.5525 13.279V13.2718Z" fill="white"/>
</svg>
