<svg width="93" height="28" viewBox="0 0 93 28" fill="none" xmlns="http://www.w3.org/2000/svg">
<path d="M0.641113 19.7862V0.593506H4.03008V19.7862H0.641113Z" fill="black"/>
<path d="M12.7051 5.86267C8.36003 5.86267 5.35315 9.18619 5.35315 12.9903C5.35315 17.2359 8.62429 20.1607 12.7389 20.1607C16.6439 20.1607 20.0325 17.2897 20.0325 12.9811C20.0325 9.35802 17.2246 5.86267 12.7051 5.86267ZM12.6652 9.11498C14.9391 9.11498 16.6129 10.8759 16.6129 13.0025C16.6129 15.2573 14.7676 16.9022 12.7266 16.9022C10.315 16.9022 8.79738 15.0007 8.79738 13.0086C8.79738 10.825 10.5109 9.11498 12.6652 9.11498Z" fill="black"/>
<path d="M28.5472 5.86267C24.2022 5.86267 21.1953 9.18619 21.1953 12.9903C21.1953 17.2359 24.4664 20.1607 28.5811 20.1607C32.4861 20.1607 35.8747 17.2897 35.8747 12.9811C35.8747 10.4439 34.7703 9.31813 34.7703 9.31813L35.7095 8.99769V6.26146H30.8962C30.8962 6.26146 29.8528 5.86267 28.5472 5.86267ZM28.5074 9.11498C30.7813 9.11498 32.4551 10.8759 32.4551 13.0025C32.4551 15.2573 30.6098 16.9022 28.5689 16.9022C26.1572 16.9022 24.6395 15.0007 24.6395 13.0086C24.6395 10.825 26.353 9.11498 28.5074 9.11498Z" fill="black"/>
<path d="M32.4311 20.7242C32.4311 22.9791 30.5858 24.6363 28.5449 24.6363C26.1332 24.6363 24.6095 22.7165 24.6095 20.7242H21.1714C21.1714 24.97 24.4426 27.8946 28.5571 27.8946C32.4623 27.8946 35.8509 25.0329 35.8509 20.7242H32.4311Z" fill="black"/>
<path d="M37.2322 19.7862V6.26135H40.6212V19.7862H37.2322Z" fill="black"/>
<path d="M43.9119 19.786V9.2906H42.0946V6.26122H43.9119V2.10803H47.3009V6.26122H49.1673V9.2906H47.3009V19.786H43.9119Z" fill="black"/>
<path d="M41.1637 2.42004C41.1637 3.65304 40.1589 4.65257 38.9195 4.65257C37.6801 4.65257 36.6754 3.65304 36.6754 2.42004C36.6754 1.18704 37.6801 0.1875 38.9195 0.1875C40.1589 0.1875 41.1637 1.18704 41.1637 2.42004Z" fill="black"/>
<path d="M56.7864 5.85352C52.4207 5.85352 49.6063 9.17877 49.6063 13.1124C49.6063 17.1775 52.43 20.1697 56.857 20.1697C60.9865 20.1697 63.0179 17.6046 63.0179 17.6046L60.7525 15.3478C60.7525 15.3478 59.0419 17.1832 56.8999 17.1832C55.1143 17.1832 53.6867 16.1917 53.1885 14.3737H63.7484V13.4453C63.7484 9.74101 61.5932 5.85352 56.7864 5.85352ZM56.6788 8.82181C58.2401 8.82181 59.8367 9.6527 60.1937 11.6374H53.0964C53.3777 10.2423 54.6045 8.82181 56.6788 8.82181Z" fill="black"/>
<path d="M72.2253 20.1714C67.8473 20.1714 64.8641 16.8542 64.8641 12.9431C64.8641 8.90669 68.2356 5.85083 72.2112 5.85083C76.0545 5.85083 78.0217 8.5499 78.0217 8.5499L75.6576 10.8911C75.6576 10.8911 74.2883 9.13089 72.1952 9.13089C69.8754 9.13089 68.289 10.8963 68.289 12.9948C68.289 15.2106 69.9764 16.9106 72.1691 16.9106C74.2958 16.9106 75.6544 15.1532 75.6544 15.1532L78.0422 17.4932C78.0422 17.4932 76.094 20.1714 72.2253 20.1714Z" fill="black"/>
<path d="M79.2752 19.7959V0.544556H82.6642V7.61757C82.6642 7.61757 83.9618 5.8508 86.7844 5.8508C90.3332 5.8508 92.389 8.47508 92.389 11.8315V19.7959H89V12.341C89 10.0861 87.5888 9.15063 86.0255 9.15063C84.2444 9.15063 82.6642 10.159 82.6642 12.5155V19.7959H79.2752Z" fill="black"/>
</svg>
