<svg width="266" height="52" viewBox="0 0 266 52" fill="none" xmlns="http://www.w3.org/2000/svg">
<g clip-path="url(#clip0_1_1890)">
<path fill-rule="evenodd" clip-rule="evenodd" d="M174.094 16.8185V20.1127H205.891L206.75 21.0437V26.1283L205.891 27.0592H174.094V30.3535H205.891L206.75 31.2128V36.2974L205.891 37.2283H168.079L167.219 36.2974V10.8746L168.079 9.9436H205.891L206.75 10.8746V15.9591L205.891 16.8185H174.094Z" fill="#C6C6C6"/>
<path fill-rule="evenodd" clip-rule="evenodd" d="M261.749 37.2283H259.171L258.312 36.2974V10.8746L259.171 9.9436H261.749H264.256L265.187 10.8746V36.2974L264.256 37.2283H261.749Z" fill="#C6C6C6"/>
<path fill-rule="evenodd" clip-rule="evenodd" d="M126.113 20.1127V18.4656V16.8185H151.822H153.183H155.26H157.838L158.769 15.8875V15.8159V14.5269V14.312V13.8823V13.3811V12.2352V10.8746L157.838 9.9436H155.26H120.098L119.167 10.8746V13.3811V15.9591V31.2128V33.7909V36.2974L120.098 37.2283H148.528H155.26H157.838L158.769 36.2974V33.7909V32.8599V31.356V30.4967V29.3509V27.0592V21.0437L157.838 20.1127H156.406H155.26H152.753H141.009L140.149 21.0437V26.1283L141.009 27.0592H151.822V30.3535H148.528H126.113V28.7063V27.0592V20.1127Z" fill="#C6C6C6"/>
<path fill-rule="evenodd" clip-rule="evenodd" d="M218.781 16.8185H236.04H244.562V20.1127V25.2689V32.5735V36.2974L245.421 37.2283H246.925H247.999H250.506L251.437 36.2974V33.7909V25.2689V24.4812V23.6218V23.5502V22.6908V21.0437V20.1843V17.6062L250.649 16.8185H248.93H247.14H245.923V10.8746L244.992 9.9436H243.631H236.04H212.766L211.906 10.8746V13.3811V15.9591V25.2689V32.5735V36.2974L212.766 37.2283H214.269H215.344H217.85L218.781 36.2974V33.7909V25.2689V16.8185Z" fill="#C6C6C6"/>
<path fill-rule="evenodd" clip-rule="evenodd" d="M78.5622 16.8185H95.821H104.343V20.1127V25.2689V32.5735V36.2974L105.274 37.2283H106.706H107.78H110.359L111.218 36.2974V33.7909V25.2689V24.4812V23.6218V23.5502V22.6908V21.0437V20.1843V17.6062L110.43 16.8185H108.711H106.921H105.704V10.8746L104.773 9.9436H103.412H95.821H72.5466L71.6873 10.8746V13.3811V15.9591V25.2689V32.5735V36.2974L72.5466 37.2283H74.0505H75.1247H77.6312L78.5622 36.2974V33.7909V25.2689V16.8185Z" fill="#C6C6C6"/>
<path d="M264.973 48.3284C264.973 48.042 264.901 47.8271 264.758 47.5407C264.615 47.1826 264.4 46.8962 264.185 46.6097C263.898 46.3233 263.612 46.18 263.325 46.0368C262.967 45.8936 262.609 45.822 262.251 45.822H250.65C250.435 45.822 250.22 45.7504 250.077 45.6071C249.934 45.4639 249.862 45.2491 249.862 45.0342C249.862 44.8194 249.934 44.6045 250.077 44.4613C250.22 44.3181 250.435 44.2465 250.65 44.2465H265.044V43.1007C265.044 42.5994 264.615 42.1697 264.113 42.1697H250.65C250.292 42.1697 249.862 42.2413 249.576 42.3845C249.218 42.5277 248.931 42.7426 248.716 42.9574C248.43 43.2439 248.287 43.5303 248.143 43.8168C248 44.1032 247.929 44.3897 247.929 44.6762V45.1774C247.929 45.4639 248 45.7503 248.143 46.0368C248.287 46.3949 248.501 46.6813 248.716 46.8962C249.003 47.1826 249.289 47.3258 249.576 47.4691C249.934 47.6123 250.292 47.6839 250.65 47.6839H262.323C262.538 47.6839 262.681 47.7555 262.896 47.8988C263.039 48.042 263.111 48.2568 263.111 48.4717C263.111 48.6865 263.039 48.8297 262.896 48.973C262.753 49.1162 262.538 49.1878 262.323 49.1878H248.788C248.287 49.1878 247.857 49.6175 247.857 50.1188V51.2646H262.251C262.609 51.2646 263.039 51.193 263.325 51.0498C263.684 50.9065 263.97 50.6917 264.185 50.4768C264.471 50.1904 264.615 49.9039 264.758 49.6175C264.829 49.4026 264.901 49.1162 264.973 48.9013V48.3284Z" fill="#3EBEB8"/>
<path d="M200.306 50.3336C200.306 49.8323 199.876 49.4026 199.375 49.4026H185.911V43.1007C185.911 42.5994 185.482 42.1697 184.98 42.1697H183.906V50.5485C183.906 51.0498 184.336 51.4794 184.837 51.4794H185.911H200.377V50.3336H200.306Z" fill="#3EBEB8"/>
<path d="M242.2 46.8246C242.414 46.6097 242.558 46.3233 242.701 46.0368C242.844 45.7503 242.844 45.3923 242.844 45.0342C242.844 44.6045 242.773 44.2465 242.629 43.8884C242.486 43.5303 242.271 43.2439 241.985 42.9574C241.698 42.671 241.412 42.5277 241.054 42.3845C240.696 42.2413 240.338 42.1697 239.98 42.1697H229.667H227.232C226.803 42.1697 226.445 42.2413 226.23 42.3845C226.015 42.5277 225.872 42.7426 225.872 43.1723V48.6865C225.872 49.1162 225.943 49.4743 226.087 49.8323C226.23 50.1904 226.445 50.4768 226.659 50.6917C226.874 50.9065 227.161 51.1214 227.447 51.2646C227.734 51.4078 228.092 51.4794 228.378 51.4794H229.596H238.977H239.908C240.266 51.4794 240.696 51.4078 240.982 51.2646C241.34 51.1214 241.627 50.9065 241.913 50.6917C242.2 50.4052 242.343 50.1188 242.558 49.8323C242.701 49.4743 242.773 49.1162 242.773 48.7581C242.773 48.4001 242.701 48.1136 242.629 47.7555C242.486 47.3975 242.343 47.111 242.2 46.8246ZM240.051 47.8271C240.266 47.8271 240.481 47.8988 240.624 48.042C240.767 48.1852 240.839 48.4001 240.839 48.6149C240.839 48.8297 240.767 49.0446 240.624 49.1878C240.481 49.331 240.266 49.4026 240.051 49.4026H239.049H229.667H228.521C228.307 49.4026 228.163 49.331 228.02 49.2594C227.877 49.1878 227.877 49.0446 227.877 48.9013V44.2465H239.049H240.051C240.266 44.2465 240.481 44.3181 240.624 44.4613C240.767 44.6045 240.839 44.8194 240.839 45.0342C240.839 45.3207 240.767 45.4639 240.553 45.6071C240.409 45.7504 240.194 45.7504 240.051 45.7504H230.598C230.097 45.7504 229.667 46.18 229.667 46.6813V47.8271H240.051Z" fill="#3EBEB8"/>
<path d="M220.787 50.2621C220.715 50.1189 220.644 50.0473 220.572 49.904L215.487 42.9575C215.273 42.5994 214.914 42.3846 214.556 42.1698C214.198 41.9549 213.769 41.8833 213.339 41.8833C212.909 41.8833 212.48 41.9549 212.05 42.1698C211.692 42.3846 211.334 42.671 211.119 42.9575L205.461 50.6918C205.175 51.0498 205.461 51.5511 205.891 51.5511H207.323L212.551 44.533C212.623 44.3898 212.766 44.3182 212.909 44.1749C213.053 44.0317 213.196 43.9601 213.339 43.9601C213.482 43.9601 213.625 44.0317 213.769 44.1749C213.912 44.3182 214.055 44.4614 214.127 44.533L217.707 49.4027H212.694C212.694 49.4027 212.694 49.4027 212.623 49.4027H211.692C211.191 49.4027 210.761 49.8324 210.761 50.4053V51.5511H212.694H217.922H219.784H219.856C220.071 51.5511 220.285 51.4795 220.5 51.3363C220.715 51.1215 220.858 50.835 220.858 50.5485C220.858 50.5485 220.858 50.4053 220.787 50.2621Z" fill="#3EBEB8"/>
<path fill-rule="evenodd" clip-rule="evenodd" d="M18.1919 39.5913C17.9055 39.7345 17.6906 39.8778 17.4042 39.9494L7.0202 44.3178L18.1919 39.5913Z" fill="#258A7D"/>
<path fill-rule="evenodd" clip-rule="evenodd" d="M13.1076 15.243L16.4018 1.06348L3.36813 7.29386C3.36813 7.29386 3.36813 7.29386 3.29651 7.29386C3.08167 7.43709 2.07908 8.00999 1.36295 9.37065C1.00488 10.0152 0.79004 10.8029 0.718426 11.7339C0.646813 12.3068 0.646813 12.9513 0.79004 13.6675L1.50618 41.1671C1.57779 44.1748 4.08426 45.6787 7.09203 44.3897L18.1921 39.5916L27.287 35.7244L34.9497 32.4302L13.1076 15.243Z" fill="#3EBEB8"/>
<path fill-rule="evenodd" clip-rule="evenodd" d="M57.7226 33.2895L57.0065 5.7183C56.9348 2.71054 54.4284 1.20665 51.4206 2.4957L50.6328 2.85376L41.0366 6.86412C40.4637 7.15058 39.8192 7.43703 39.3179 7.86671L31.5836 11.3042L22.632 15.3861L49.9167 36.0824L50.0599 30.1385L54.4284 34.5786L50.2032 36.2973C50.2032 36.2973 51.9935 40.9522 55.1445 39.3767C56.1471 38.8754 56.72 38.0876 57.1497 37.2999C57.5794 36.2973 57.7226 35.2947 57.7942 34.5069L57.7226 33.2895Z" fill="#3EBEB8"/>
<path fill-rule="evenodd" clip-rule="evenodd" d="M57.7228 34.507V33.2896C57.7228 33.2896 57.7945 33.7909 57.7228 34.507Z" fill="#258A7D"/>
<path fill-rule="evenodd" clip-rule="evenodd" d="M57.0785 37.2999C56.7204 38.1592 56.0759 38.947 55.0733 39.3766L41.6816 46.1083C39.0319 47.1109 36.597 45.1773 36.597 45.1773L27.2156 35.6527L22.6324 30.9263L11.962 20.1126L9.5271 17.6061L1.36316 9.29897C2.07929 7.93831 3.08188 7.36541 3.29672 7.22218H3.36834L16.402 0.991807C18.4788 0.204058 20.4124 0.920186 21.8446 1.77955C23.2053 2.5673 24.0646 3.56989 24.0646 3.56989L31.6557 11.3041L35.8809 15.601L50.132 30.1385L54.5004 34.5785L57.0785 37.2999Z" fill="#54FCEF"/>
</g>
<defs>
<clipPath id="clip0_1_1890">
<rect width="264.515" height="50.8989" fill="white" transform="translate(0.671387 0.6521)"/>
</clipPath>
</defs>
</svg>
