<svg width="829" height="747" viewBox="0 0 829 747" fill="none" xmlns="http://www.w3.org/2000/svg">
    <g id="Mesh">
    <path id="Vector" d="M331.537 405.836C349.049 413.184 365.7 422.88 383.756 428.494C401.813 434.109 422.551 434.953 435.059 425.266C445.951 416.835 448.297 402.154 445.376 388.276C437.448 350.299 389.714 316.618 346.976 318.795C330.372 319.641 314.705 325.09 297.691 322.343C276.063 318.86 256.589 302.798 234.978 300.368C213.809 297.981 196.367 309.409 184.949 322.982C175.611 334.075 168.764 347.355 168.903 362.153C168.996 372.305 173.072 383.755 182.898 390.878C196.292 400.589 214.531 398.767 228.955 394.609C263.48 384.639 294.173 390.159 331.537 405.836Z" stroke="#41BFB3" stroke-miterlimit="10"/>
    <path id="Vector_2" d="M172.798 321.975C163.088 333.452 156.233 347.36 156.585 362.712C156.83 373.237 161.158 384.982 171.21 392.52C185.303 403.103 204.484 402.454 220.109 399.112C229.877 396.979 240.022 395.707 250.405 395.312C255.353 395.14 260.279 395.182 265.183 395.439C286.333 396.497 307.063 402.944 330.284 412.875C338.161 416.24 346.054 419.954 353.895 423.396C364.691 428.17 376.777 432.691 386.712 434.089C388.289 434.313 389.793 434.504 391.299 434.66C393.467 434.873 395.63 435.002 397.946 435.102C404.763 435.429 411.536 435.455 418.239 435.18C429.849 434.569 440.926 431.454 447.955 424.394C458.02 414.306 459.126 398.906 454.684 384.526C451.631 374.758 446.302 365.315 439.047 356.818C431.567 348.018 422.195 340.275 411.837 333.39C392.109 320.282 368.765 311.18 346.241 311.282C328.816 311.346 312.059 316.088 294.067 313.226C271.137 309.597 250.293 293.959 228.356 293.579C219.827 293.419 212.289 295.838 204.916 299.049C192.6 304.424 181.048 312.281 172.798 321.975Z" stroke="#41BFB3" stroke-miterlimit="10"/>
    <path id="Vector_3" d="M160.637 320.972C150.516 332.817 143.677 347.364 144.261 363.267C144.66 374.172 149.224 386.218 159.502 394.171C174.303 405.623 194.435 406.145 211.261 403.619C221.879 402.002 232.749 401.077 243.788 400.85C249.1 400.747 254.372 400.817 259.604 401.06C282.52 402.019 304.408 409.232 329.075 419.891C338.154 423.831 347.439 428.106 356.572 431.912C368.967 437.05 383.902 441.75 394.301 441.236C395.937 441.153 397.432 441.028 398.907 440.848C401.018 440.578 403.095 440.221 405.459 439.879C411.751 438.949 419.927 438.467 427.863 437.71C440.999 436.391 453.767 432.38 460.903 423.532C470.255 411.939 470.019 395.692 464.053 380.784C459.947 370.667 453.593 361.044 445.383 352.515C436.889 343.644 426.501 336.105 415.297 328.925C393.944 315.237 369.532 304.695 345.485 303.804C327.206 303.111 309.339 307.126 290.297 304.158C266.066 300.384 243.757 285.295 221.572 286.807C212.442 287.434 204.847 291.164 196.888 295.191C183.68 301.941 169.984 310.016 160.637 320.972Z" stroke="#41BFB3" stroke-miterlimit="10"/>
    <path id="Vector_4" d="M148.459 319.959C137.96 332.198 131.14 347.392 131.927 363.827C132.478 375.106 137.297 387.456 147.79 395.818C163.319 408.144 184.36 409.863 202.413 408.13C213.859 407.029 225.463 406.448 237.179 406.39C242.833 406.361 248.443 406.455 254.009 406.672C278.684 407.534 301.753 415.524 327.783 426.948C338.077 431.469 348.737 436.31 359.171 440.443C373.14 445.968 390.986 450.841 401.8 448.376C403.383 448.015 404.922 447.566 406.41 447.033C408.48 446.292 410.471 445.45 412.882 444.666C419.28 442.559 428.472 441.427 437.383 440.203C452.04 438.185 466.552 433.326 473.734 422.629C482.486 409.64 480.825 392.454 473.306 376.999C468.169 366.539 460.803 356.733 451.645 348.159C442.124 339.227 430.74 331.913 418.67 324.401C395.698 310.141 370.213 298.167 344.646 296.274C325.626 294.865 306.638 298.13 286.583 295.055C261.05 291.135 237.262 276.718 214.85 280.015C205.102 281.449 197.483 286.465 188.98 291.298C174.752 299.463 158.955 307.788 148.459 319.959Z" stroke="#41BFB3" stroke-miterlimit="10"/>
    <path id="Vector_5" d="M136.285 318.97C125.391 331.593 118.562 347.399 119.58 364.386C120.278 376.05 125.308 388.726 136.075 397.484C152.266 410.7 174.251 413.515 193.552 412.647C206.04 412.099 218.395 411.826 230.561 411.935C236.574 411.988 242.537 412.105 248.453 412.286C274.937 413.039 299.121 421.833 326.558 433.98C338.068 439.081 350.103 444.506 361.845 448.957C377.431 454.859 398.135 459.928 409.378 455.5C411.006 454.853 412.549 454.085 413.993 453.203C416.017 451.983 417.922 450.656 420.374 449.432C426.931 446.142 437.105 444.387 446.993 442.712C463.184 440.001 479.457 434.34 486.672 421.745C494.887 407.413 491.743 389.223 482.657 373.232C476.495 362.43 468.118 352.434 457.999 343.809C447.466 334.812 435.05 327.67 422.131 319.88C397.548 305.052 370.995 291.662 343.907 288.766C324.095 286.636 304.004 289.137 282.929 285.982C256.095 281.923 230.827 268.271 208.171 273.253C197.807 275.537 190.142 281.776 181.077 287.437C165.783 296.968 147.892 305.525 136.285 318.97Z" stroke="#41BFB3" stroke-miterlimit="10"/>
    <path id="Vector_6" d="M124.104 317.992C112.818 331.006 105.995 347.438 107.237 364.998C108.094 377.035 113.38 390.017 124.356 399.188C141.248 413.295 164.164 417.253 184.71 417.207C197.911 417.186 211.06 417.264 223.965 417.524C230.331 417.649 236.62 417.794 242.832 417.958C271.074 418.624 296.472 428.198 325.339 441.088C338.061 446.763 351.482 452.77 364.522 457.54C381.68 463.841 405.289 469.102 416.958 462.703C418.644 461.765 420.196 460.674 421.594 459.447C423.552 457.602 425.654 455.877 427.888 454.281C434.569 449.809 445.74 447.383 456.624 445.296C474.342 441.893 492.444 435.474 499.616 420.939C507.34 405.26 502.654 386.062 492.046 369.565C484.852 358.426 475.461 348.235 464.382 339.543C452.823 330.493 439.394 323.543 425.627 315.458C399.42 300.055 371.805 285.262 343.163 281.303C322.561 278.459 301.304 280.203 279.232 276.902C251.053 272.715 224.31 259.895 201.412 266.492C190.434 269.651 182.726 277.103 173.099 283.576C156.882 294.498 136.835 303.294 124.104 317.992Z" stroke="#41BFB3" stroke-miterlimit="10"/>
    <path id="Vector_7" d="M111.897 316.986C100.24 330.393 93.4038 347.449 94.8721 365.572C95.8805 377.984 101.407 391.277 112.632 400.85C130.21 415.853 154.065 420.934 175.843 421.74C189.762 422.253 203.692 422.677 217.344 423.084C224.061 423.277 230.709 423.461 237.251 423.602C267.26 424.162 293.782 434.539 324.063 448.159C337.988 454.427 352.79 461.008 367.141 466.104C385.926 472.78 412.416 478.242 424.486 469.877C426.226 468.643 427.781 467.232 429.126 465.666C430.995 463.328 433.07 461.133 435.338 459.094C442.146 453.447 454.316 450.376 466.185 447.853C485.435 443.75 505.396 436.556 512.503 420.094C519.828 403.157 513.541 382.889 501.343 365.809C493.129 354.339 482.725 343.96 470.675 335.213C458.128 326.109 443.657 319.368 429.061 310.973C401.234 295.003 372.553 278.817 342.385 273.812C321.01 270.25 298.592 271.228 275.512 267.818C246.061 263.476 217.913 251.573 194.713 259.723C183.136 263.788 175.403 272.45 165.186 279.715C147.932 292.083 125.779 301.071 111.897 316.986Z" stroke="#41BFB3" stroke-miterlimit="10"/>
    <path id="Vector_8" d="M99.7253 316.031C87.6803 329.837 80.8385 347.514 82.5344 366.182C83.6898 378.98 89.452 392.592 100.906 402.564C119.168 418.462 143.972 424.664 166.954 426.321C181.59 427.368 196.309 428.136 210.7 428.694C217.772 428.961 224.769 429.17 231.628 429.292C263.416 429.751 291.102 440.938 322.793 455.281C337.935 462.13 354.088 469.284 369.772 474.709C390.116 481.778 419.508 487.442 432.016 477.094C433.817 475.559 435.381 473.825 436.678 471.924C438.547 469.282 440.194 466.499 442.795 463.958C449.734 457.126 462.905 453.41 475.766 450.449C496.544 445.655 518.416 437.716 525.407 419.298C532.324 401.086 524.415 379.727 510.617 362.136C501.384 350.341 489.973 339.77 476.958 330.954C463.412 321.755 447.985 315.192 432.496 306.505C403.045 289.961 373.304 272.397 341.595 266.333C319.4 262.091 295.895 262.301 271.784 258.753C241.034 254.262 211.464 243.315 187.964 252.967C175.801 257.96 168.01 267.789 157.214 275.869C138.973 289.593 114.724 298.848 99.7253 316.031Z" stroke="#41BFB3" stroke-miterlimit="10"/>
    <path id="Vector_9" d="M87.5394 315.053C75.1026 329.25 68.2638 347.546 70.1784 366.779C71.4935 379.95 77.483 393.885 89.1832 404.251C108.133 421.052 133.873 428.37 158.101 430.832C173.463 432.411 188.963 433.526 204.101 434.232C211.528 434.574 218.847 434.799 226.058 434.908C259.636 435.307 288.455 447.259 321.579 462.353C337.933 469.793 355.492 477.516 372.463 483.273C394.437 490.725 426.726 496.584 439.615 484.268C441.474 482.432 443.04 480.376 444.281 478.142C446.105 475.022 447.667 471.752 450.315 468.77C457.382 460.763 471.547 456.445 485.396 452.981C507.701 447.512 531.528 438.861 538.358 418.436C544.901 398.96 535.358 376.522 520.034 358.383C509.78 346.263 497.36 335.499 483.372 326.61C468.755 317.378 452.281 311.016 435.944 302.016C404.888 284.935 374.085 266.003 340.83 258.856C317.833 253.928 293.184 253.315 268.089 249.686C236.025 245.051 205.089 235.081 181.242 246.212C168.499 252.132 160.656 263.118 149.277 272.006C130.045 287.172 103.665 296.625 87.5394 315.053Z" stroke="#41BFB3" stroke-miterlimit="10"/>
    <path id="Vector_10" d="M75.3421 314.112C62.5338 328.703 55.6853 347.629 57.8315 367.416C59.2896 380.964 65.5148 395.219 77.4524 405.982C97.091 423.686 123.783 432.116 149.255 435.453C165.342 437.564 181.624 439.025 197.496 439.892C205.285 440.309 212.947 440.561 220.482 440.646C255.82 440.905 285.806 453.692 320.336 469.484C337.903 477.515 356.848 485.803 375.114 491.872C398.656 499.731 433.843 505.786 447.175 491.476C449.088 489.336 450.656 486.959 451.846 484.396C453.628 480.804 455.1 477.041 457.801 473.624C464.991 464.435 480.174 459.433 494.997 455.587C518.838 449.425 544.61 440.003 551.29 417.647C557.488 396.873 546.279 373.312 529.432 354.669C518.166 342.224 504.732 331.267 489.762 322.314C474.124 313.001 456.637 306.849 439.442 297.556C406.755 279.868 374.881 259.57 340.097 251.352C316.326 245.741 290.529 244.332 264.426 240.594C231.056 235.812 198.753 226.853 174.551 239.431C161.244 246.344 153.301 258.446 141.367 268.143C121.096 284.713 92.6134 294.4 75.3421 314.112Z" stroke="#41BFB3" stroke-miterlimit="10"/>
    <path id="Vector_11" d="M63.1508 313.092C49.9628 328.079 43.1052 347.619 45.4663 367.963C47.0797 381.894 53.5405 396.468 65.7238 407.626C86.0386 426.228 113.675 435.771 140.391 439.967C157.247 442.589 174.1 444.412 190.874 445.426C199.011 445.917 207.045 446.202 214.905 446.289C252.016 446.457 283.155 460.048 319.112 476.559C337.878 485.176 358.203 494.073 377.774 500.451C402.921 508.718 441.031 514.944 454.735 498.668C456.705 496.217 458.279 493.514 459.423 490.62C461.152 486.552 462.542 482.311 465.279 478.446C472.608 468.087 488.784 462.425 504.604 458.149C529.972 451.295 557.73 441.144 564.215 416.808C570.078 394.793 557.205 370.187 538.738 350.993C526.463 338.208 512.016 327.039 496.058 317.997C479.391 308.623 460.89 302.664 442.843 293.068C408.531 274.805 375.601 253.172 339.273 243.853C314.739 237.581 287.798 235.384 260.676 231.531C225.987 226.58 192.362 218.664 167.785 232.685C153.963 240.56 145.886 253.788 133.341 264.309C112.151 282.261 81.5563 292.184 63.1508 313.092Z" stroke="#41BFB3" stroke-miterlimit="10"/>
    <path id="Vector_12" d="M50.9932 312.104C37.4218 327.48 30.5544 347.65 33.1388 368.55C34.9119 382.854 41.5956 397.76 54.0207 409.305C75.0359 428.816 103.609 439.457 131.557 444.505C149.137 447.665 166.743 449.835 184.261 451C192.753 451.565 201.127 451.877 209.297 451.912C248.188 451.98 280.482 466.382 317.853 483.606C337.835 492.821 359.538 502.285 380.437 508.986C407.181 517.644 448.164 524.072 462.307 505.811C464.328 503.056 465.906 500.038 467.007 496.823C468.687 492.269 469.992 487.542 472.78 483.243C480.233 471.702 497.391 465.432 514.213 460.682C541.153 453.185 570.889 442.256 577.147 415.948C582.697 392.661 568.128 366.965 548.081 347.229C534.801 334.144 519.348 322.803 502.415 313.715C484.736 304.275 465.213 298.511 446.314 288.613C410.374 269.785 376.392 246.806 338.523 236.393C313.162 229.426 285.111 226.415 256.965 222.421C220.974 217.349 186.06 210.434 161.047 225.888C146.702 234.745 138.496 249.088 125.422 260.412C103.2 279.8 70.5016 289.958 50.9932 312.104Z" stroke="#41BFB3" stroke-miterlimit="10"/>
    <path id="Vector_13" d="M38.762 311.137C24.8109 326.909 17.9881 347.687 20.7504 369.145C22.6705 383.834 29.5816 399.062 42.2759 411.03C63.9463 431.452 93.4886 443.184 122.673 449.092C140.988 452.777 159.366 455.292 177.651 456.617C186.495 457.249 195.221 457.593 203.716 457.607C244.374 457.568 277.824 472.783 316.613 490.727C337.804 500.526 360.899 510.588 383.099 517.59C411.436 526.633 455.346 533.257 469.889 513.065C471.963 509.974 473.529 506.599 474.551 503.021C476.19 497.995 477.405 492.775 480.242 488.035C487.83 475.315 506.021 468.392 523.795 463.215C552.263 455.026 584.02 443.368 590.043 415.089C595.276 390.523 578.996 363.707 557.396 343.481C543.111 330.075 526.647 318.538 508.727 309.376C490.022 299.883 469.49 294.32 449.733 284.111C412.173 264.716 377.115 240.398 337.719 228.88C311.554 221.245 282.376 217.424 253.235 213.344C215.985 208.164 179.773 202.287 154.357 219.148C139.493 228.995 131.162 244.444 117.514 256.574C94.2535 277.348 59.4434 287.742 38.762 311.137Z" stroke="#41BFB3" stroke-miterlimit="10"/>
    <path id="Vector_14" d="M26.5674 310.15C12.2405 326.326 5.37551 347.726 8.37448 369.709C10.4542 384.771 17.5843 400.323 30.5088 412.655C52.8939 434.051 83.3654 446.849 113.819 453.609C132.852 457.819 151.993 460.678 171.039 462.156C180.238 462.863 189.304 463.233 198.125 463.226C240.561 463.086 275.151 479.117 315.329 497.78C337.736 508.178 362.206 518.782 385.716 526.127C415.655 535.569 462.45 542.4 477.4 520.181C479.552 516.811 481.153 513.144 482.166 509.267C483.752 503.765 484.914 498.051 487.761 492.886C495.472 478.984 514.672 471.413 533.439 465.798C563.476 456.908 597.235 444.534 603.014 414.269C607.946 388.437 589.972 360.574 566.79 339.781C551.5 326.056 534.023 314.325 515.113 305.094C495.375 295.533 473.841 290.168 453.236 279.663C414.052 259.694 377.902 234.006 337.002 221.411C310.034 213.109 279.728 208.477 249.58 204.288C210.983 198.938 173.552 194.087 147.617 212.385C132.259 223.233 123.779 239.776 109.552 252.722C85.3024 274.887 48.3887 285.515 26.5674 310.15Z" stroke="#41BFB3" stroke-miterlimit="10"/>
    <path id="Vector_15" d="M14.376 309.17C-0.305623 325.736 -7.23383 347.772 -3.96307 370.332C-1.74021 385.772 5.62112 401.654 18.7995 414.378C41.8095 436.607 73.2698 450.533 104.915 458.156C124.665 462.89 144.573 466.095 164.388 467.73C173.946 468.519 183.357 468.906 192.503 468.879C236.71 468.64 272.464 485.48 314.101 504.854C337.7 515.839 363.56 527.015 388.382 534.686C419.922 544.51 469.628 551.542 484.967 527.351C487.159 523.674 488.751 519.689 489.704 515.491C491.245 509.51 492.292 503.325 495.221 497.711C503.063 482.624 523.244 474.368 543.007 468.358C574.548 458.748 610.39 445.672 615.912 413.433C620.547 386.325 600.878 357.372 576.099 336.058C559.809 321.999 541.318 310.06 521.411 300.748C500.683 291.167 478.111 286.002 456.653 275.194C415.853 254.648 378.625 227.673 336.203 213.928C308.435 204.966 277.007 199.515 245.843 195.218C205.944 189.729 167.231 185.929 140.861 205.626C125.012 217.464 116.363 235.099 101.581 248.872C76.3546 272.434 37.4138 283.337 14.376 309.17Z" stroke="#41BFB3" stroke-miterlimit="10"/>
    <path id="Vector_16" d="M2.1739 308.193C-12.8719 325.185 -19.8041 347.807 -16.3305 370.919C-13.9645 386.736 -6.3637 402.945 7.0602 416.064C30.7458 439.208 63.1674 454.227 96.0486 462.71C116.51 467.968 137.185 471.523 157.771 473.321C167.538 474.177 177.262 474.585 186.903 474.542C232.893 474.21 269.791 491.856 312.854 511.949C337.666 523.525 364.911 535.266 391.037 543.265C424.166 553.482 476.778 560.708 492.531 534.539C494.776 530.554 496.37 526.247 497.273 521.723C498.772 515.27 499.73 508.593 502.706 502.536C510.676 486.274 531.876 477.411 552.613 470.925C585.689 460.655 623.587 446.824 628.837 412.599C633.2 384.208 611.797 354.184 585.447 332.342C568.158 317.978 548.662 305.855 527.773 296.479C506.005 286.797 482.42 281.825 460.101 270.716C417.68 249.604 379.393 221.285 335.393 206.447C306.826 196.824 274.226 190.566 242.104 186.148C200.928 180.496 160.974 177.754 134.124 198.852C117.792 211.697 108.977 230.431 93.6249 245C67.4006 269.972 26.3351 281.123 2.1739 308.193Z" stroke="#41BFB3" stroke-miterlimit="10"/>
    <path id="Vector_17" d="M-10.0224 307.205C-25.4479 324.594 -32.3852 347.836 -28.6845 371.512C-26.1339 387.695 -18.3516 404.246 -4.67771 417.75C19.6796 441.802 53.0708 457.911 87.1799 467.256C108.345 473.038 129.784 476.94 151.14 478.898C161.25 479.828 171.315 480.266 181.288 480.209C229.053 479.768 267.099 498.229 311.576 519.034C337.604 531.21 366.227 543.518 393.665 551.842C428.396 562.441 483.975 569.905 500.064 541.717C502.366 537.426 503.965 532.799 504.823 527.951C506.269 521.022 507.14 513.859 510.161 507.37C518.262 489.922 540.438 480.42 562.184 473.492C596.78 462.533 636.766 447.956 641.731 411.772C645.806 382.103 622.694 350.983 594.767 328.624C576.488 313.943 555.989 301.626 534.114 292.182C511.313 282.414 486.693 277.666 463.558 266.254C419.513 244.566 380.146 214.918 334.659 198.964C305.296 188.689 271.624 181.581 238.42 177.055C195.909 171.273 154.727 169.577 127.399 192.101C110.593 205.95 101.617 225.774 85.6738 241.152C58.4519 267.518 15.2788 278.896 -10.0224 307.205Z" stroke="#41BFB3" stroke-miterlimit="10"/>
    <path id="Vector_18" d="M-22.2253 306.227C-38.0259 324.003 -44.9728 347.875 -41.0526 372.098C-38.3716 388.671 -30.3449 405.522 -16.4095 419.434C8.61513 444.402 42.9637 461.597 78.3128 471.81C100.179 478.111 122.385 482.359 144.515 484.473C154.984 485.477 165.407 485.94 175.729 485.861C225.273 485.32 264.435 504.662 310.362 526.103C337.576 538.91 367.611 551.743 396.352 560.394C432.673 571.388 491.158 579.045 507.653 548.881C510.189 544.301 511.473 539.329 512.424 534.157C513.825 526.749 514.611 519.1 517.679 512.169C525.911 493.553 549.117 483.389 571.823 476.032C607.954 464.414 650.016 449.085 654.713 410.904C658.508 379.955 633.671 347.762 604.16 324.87C584.88 309.869 563.364 297.359 540.49 287.848C516.676 278.033 491.071 273.462 467.039 261.75C421.37 239.488 380.913 208.512 333.915 191.448C303.721 180.487 268.907 172.615 234.717 167.983C190.887 162.049 148.489 161.404 120.665 185.334C103.396 200.193 94.2305 221.105 77.744 237.333C49.4972 265.056 4.18273 276.686 -22.2253 306.227Z" stroke="#41BFB3" stroke-miterlimit="10"/>
    <path id="Vector_19" d="M-34.4191 305.246C-50.6076 323.42 -57.5635 347.906 -53.4162 372.692C-50.5838 389.64 -42.3072 406.876 -28.1073 421.109C-2.44409 446.993 32.8823 465.276 69.4429 476.356C92.0158 483.176 114.997 487.773 137.911 490.052C148.72 491.125 159.481 491.611 170.13 491.507C221.449 490.874 261.762 511.021 309.12 533.188C337.538 546.588 368.954 559.995 398.975 568.981C436.93 580.348 498.289 588.206 515.202 556.072C517.793 551.194 519.041 545.853 519.977 540.392C521.337 532.513 522.048 524.401 525.153 517.005C533.508 497.206 557.714 486.397 581.389 478.608C619.028 466.277 663.198 450.24 667.585 410.09C671.096 377.853 644.538 344.577 613.483 321.159C593.204 305.841 570.676 293.136 546.805 283.556C521.97 273.677 495.351 269.3 470.458 257.286C423.177 234.456 381.627 202.145 333.118 183.971C302.091 172.375 266.226 163.64 231.019 158.9C185.892 152.818 142.277 153.225 113.948 178.563C96.2164 194.432 86.8698 216.43 69.8012 233.448C40.5473 262.602 -6.84174 274.449 -34.4191 305.246Z" stroke="#41BFB3" stroke-miterlimit="10"/>
    <path id="Vector_20" d="M-46.6256 304.243C-63.2145 322.909 -70.0407 347.507 -65.7802 373.268C-62.804 390.575 -54.3199 408.113 -39.9133 422.793C-13.558 449.588 22.7341 468.954 60.5392 480.892C83.803 488.231 107.548 493.178 131.237 495.621C142.391 496.77 153.496 497.285 164.48 497.164C217.574 496.423 259.028 517.351 307.819 540.269C337.45 554.261 370.252 568.233 401.609 577.538C441.117 589.299 505.411 597.352 522.721 563.243C525.372 558.058 526.594 552.406 527.501 546.574C528.8 538.22 529.422 529.597 532.579 521.784C541.069 500.808 566.279 489.36 590.96 481.122C630.119 468.101 676.401 451.329 680.475 409.202C683.733 375.72 655.46 341.282 622.762 317.398C601.498 301.763 577.96 288.875 553.094 279.252C527.241 269.318 499.597 265.128 473.855 252.819C424.953 229.422 382.312 195.776 332.295 176.482C300.493 164.22 263.472 154.673 227.259 149.825C180.853 143.597 136.047 145.067 107.163 171.808C88.9736 188.694 79.4416 211.771 61.7826 229.582C31.5925 260.139 -17.9049 272.231 -46.6256 304.243Z" stroke="#41BFB3" stroke-miterlimit="10"/>
    <path id="Vector_21" d="M-58.8217 303.279C-75.7614 322.363 -82.6523 347.541 -78.1415 373.869C-75.0024 391.575 -66.303 409.428 -51.6216 424.487C-24.6073 452.201 12.7103 472.583 51.7078 485.461C75.6736 493.306 100.191 498.606 124.667 501.233C136.168 502.457 147.619 502.998 158.939 502.854C213.808 502.022 256.43 523.768 306.623 547.393C337.462 561.969 371.659 576.504 404.312 586.138C445.429 598.297 512.61 606.539 530.337 570.46C533.044 564.977 534.265 558.99 535.141 552.873C536.391 544.033 536.918 534.926 540.143 526.691C548.756 504.532 574.975 492.436 600.633 483.765C641.311 470.054 689.707 452.547 693.471 408.451C696.466 373.633 666.479 338.161 632.163 313.752C609.902 297.778 585.341 284.679 559.464 274.979C532.586 264.975 503.911 260.999 477.341 248.382C426.815 224.409 383.076 189.438 331.557 169.033C296.473 155.258 260.094 145.725 223.576 140.737C175.839 134.37 129.818 136.874 100.465 165.039C81.8175 182.926 72.0876 207.093 53.8585 225.7C22.641 257.684 -28.9642 270.002 -58.8217 303.279Z" stroke="#41BFB3" stroke-miterlimit="10"/>
    <path id="Vector_22" d="M-71.0163 302.298C-88.3128 321.799 -95.2675 347.56 -90.4974 374.459C-87.2113 392.55 -78.2968 410.72 -63.3725 426.131C-35.6949 454.754 2.55847 476.252 42.8056 489.962C67.4618 498.317 92.7462 503.961 118.003 506.748C129.847 508.043 141.64 508.609 153.292 508.442C209.939 507.508 253.738 530.052 305.324 554.404C337.388 569.594 372.946 584.683 406.919 594.641C449.614 607.17 519.718 615.619 537.854 577.571C540.625 571.789 541.828 565.47 542.663 559.029C543.871 549.717 544.338 540.118 547.574 531.425C556.348 508.082 583.525 495.35 610.184 486.239C652.44 471.824 702.904 453.585 706.353 407.529C709.048 371.427 677.291 334.849 641.468 309.949C618.215 293.661 592.65 280.366 565.784 270.589C537.905 260.56 508.203 256.789 480.785 243.859C428.627 219.314 383.818 183.053 330.78 161.506C297.363 147.927 258.09 136.708 219.869 131.656C170.837 125.182 123.613 128.692 93.7309 158.271C74.6412 177.171 64.7331 202.449 45.9175 221.857C13.6865 255.221 -40.027 267.783 -71.0163 302.298Z" stroke="#41BFB3" stroke-miterlimit="10"/>
    <path id="Vector_23" d="M-83.217 301.309C-100.868 321.234 -107.887 347.581 -102.864 375.052C-99.422 393.508 -90.31 412.033 -75.0956 427.854C-46.7927 457.422 -7.52773 479.983 33.9518 494.545C59.2963 503.424 85.3528 509.418 111.395 512.361C123.594 513.728 135.742 514.318 147.738 514.126C206.156 513.094 251.086 536.456 304.09 561.529C337.343 577.281 374.294 592.968 409.579 603.251C453.888 616.186 526.874 624.817 545.416 584.793C548.246 578.703 549.44 572.068 550.245 565.29C551.4 555.501 551.756 545.423 555.069 536.289C563.933 511.771 592.153 498.383 619.813 488.832C663.597 473.726 716.173 454.769 719.293 406.722C721.732 369.334 688.244 331.727 650.837 306.259C626.586 289.671 600.015 276.193 572.16 266.348C543.217 256.189 512.535 252.603 484.216 239.348C430.437 214.237 384.543 176.656 329.986 153.983C295.761 139.746 255.377 127.73 216.186 122.533C165.782 115.929 117.391 120.496 86.9946 151.502C67.4629 171.416 57.3332 197.756 37.9584 218C4.73371 252.766 -51.0877 265.554 -83.217 301.309Z" stroke="#41BFB3" stroke-miterlimit="10"/>
    <path id="Vector_24" d="M-95.421 300.329C-113.42 320.675 -120.503 347.6 -115.233 375.637C-111.621 394.506 -102.288 413.32 -86.813 429.566C-57.8538 460.011 -17.6199 483.68 25.08 499.09C51.1092 508.486 77.9342 514.83 104.76 517.937C117.287 519.37 129.761 519.985 142.075 519.777C202.269 518.636 248.359 542.801 302.81 568.596C337.259 584.909 375.612 601.191 412.193 611.804C458.087 625.125 533.989 633.947 552.948 591.952C555.834 585.565 557.01 578.599 557.781 571.494C558.891 561.226 559.161 550.661 562.511 541.08C571.509 515.384 600.738 501.349 629.358 491.368C674.679 475.568 729.368 455.876 732.169 405.862C734.337 367.174 699.102 328.507 660.123 302.512C634.882 285.587 607.296 271.899 578.435 261.978C548.498 251.792 516.802 248.399 487.629 234.876C432.234 209.188 385.212 170.349 329.183 146.496C294.133 131.64 252.655 118.771 212.404 113.469C160.785 106.696 111.202 112.327 80.2595 144.733C60.2858 165.661 49.9459 193.085 30.0089 214.141C-4.22171 250.302 -62.1554 263.326 -95.421 300.329Z" stroke="#41BFB3" stroke-miterlimit="10"/>
    <path id="Vector_25" d="M98.1367 523.519C111.021 525.033 123.853 525.678 136.513 525.447C198.481 524.214 245.72 549.175 301.589 575.691C337.275 592.624 376.985 609.453 414.894 620.421C462.402 634.13 541.194 643.149 560.55 599.18C567.752 582.832 564.295 562.9 570.051 545.959C579.176 519.087 609.401 504.398 639.044 493.964C685.897 477.479 742.691 457.055 745.178 405.063C747.083 365.09 710.097 325.356 669.55 298.824C643.314 281.591 614.719 267.71 584.865 257.715C553.894 247.46 521.181 244.271 491.159 230.434C434.124 204.159 386.002 163.969 328.452 139.043C246.555 103.547 129.507 77.7905 73.5313 137.962C53.1194 159.911 42.5656 188.413 22.0541 210.275C-13.1536 247.833 -73.2124 261.105 -107.585 299.339C-138.697 333.913 -137.224 390.287 -98.5454 431.196C-50.7341 481.832 27.1091 515.282 98.1367 523.519Z" stroke="#41BFB3" stroke-miterlimit="10"/>
    </g>
    </svg>
    