<svg width="94" height="32" viewBox="0 0 94 32" fill="none" xmlns="http://www.w3.org/2000/svg">
<path d="M7.05375 3.46991C6.27744 1.92775 5.50114 0.385542 5.11298 0C5.11298 0.385542 4.33668 1.92775 3.17222 3.46991C-4.59084 18.1205 4.33675 28.1446 4.33675 28.1446C4.33675 29.6867 4.72481 32 4.72481 32H5.11298H5.50116C5.50116 32 5.50118 29.6867 5.88934 28.1446C5.88934 27.759 15.205 18.1205 7.05375 3.46991ZM5.11298 27.7591C5.11298 27.7591 4.72481 27.3735 4.72481 26.9879L5.11298 11.1808L5.50116 26.9879C5.50116 27.3735 5.11298 27.7591 5.11298 27.7591ZM26.0732 6.93977H28.7903V7.71084H28.4022C28.014 7.71084 28.014 8.09643 28.014 8.48197V21.9759C28.014 22.3615 28.4022 22.747 28.4022 22.747H28.7903V23.5181H25.297V22.747H25.6852C26.0733 22.747 26.0732 22.3615 26.0732 21.9759V9.25304L22.1917 23.5181C22.1917 23.9036 21.8036 23.9037 21.8036 23.9037C21.8036 23.9037 21.4155 23.9036 21.4155 23.5181L17.1457 8.86748V21.5904C17.1457 21.9759 17.5339 22.3614 17.5339 22.3614H17.9221V23.1325H15.205V22.3614H15.5932C15.9813 22.3614 15.9813 21.9759 15.9813 21.5904V8.09641V7.71084L15.5932 7.32533H15.205V6.55426H18.3102L22.1917 20.0482L26.0732 6.93977ZM48.9743 20.8193L49.7506 21.2048V21.9759H46.6454V21.2048H47.0336C47.0336 21.2048 47.4216 21.2048 47.4216 20.8193V20.4337V13.8795C47.4216 13.1085 47.4217 12.3374 47.0336 11.9518C46.6454 11.5663 46.2572 11.1808 45.8691 11.1808C45.4809 11.1808 44.7046 11.1807 44.3165 11.9518C43.9283 12.3374 43.5401 12.7229 43.5401 13.494C43.5401 14.2651 43.1521 14.6506 43.1521 15.4217V20.8193C43.1521 21.2048 43.1521 21.2048 43.1521 21.2048L43.5401 21.5904H43.9283V22.3614H40.8231V21.5904H41.2113C41.2113 21.5904 41.5993 21.5904 41.5993 21.2048V20.8193V12.7229C41.5993 12.3374 41.5993 12.3374 41.5993 11.9518H41.2113H40.8231V11.1808L42.3757 10.0241H42.7639L43.1521 11.9518C43.9284 10.4097 44.7046 9.63855 45.8691 9.63855C46.6454 9.63855 47.4217 10.0241 47.8098 10.7952C48.198 11.5663 48.5862 12.3374 48.5862 13.8795V20.4337C48.9743 20.4337 48.9743 20.8193 48.9743 20.8193ZM77.6976 8.09641C76.9213 7.32532 75.7568 6.93977 74.9805 6.93977H70.7108V7.71084H71.099C71.099 7.71084 71.4872 7.71086 71.4872 8.09641C71.4872 8.09641 71.4872 8.48194 71.4872 8.86748V22.3614C71.4872 22.747 71.4872 22.747 71.4872 23.1325L71.099 23.5181H70.7108V24.2892H74.9805C76.145 24.2892 76.9213 23.9036 77.6976 23.1325C78.4739 22.3614 79.2503 21.5904 79.6384 20.0482C80.0266 18.8916 80.4146 17.3494 80.4146 15.4217C80.4146 13.8795 80.0266 11.9518 79.6384 10.7952C79.2503 10.0241 78.4739 8.86749 77.6976 8.09641ZM78.8621 15.8072C78.8621 17.3494 78.8621 18.8916 78.0858 19.6627C77.6977 20.8193 77.3094 21.5904 76.5331 21.9759C75.7568 22.3615 75.3687 22.747 74.5923 22.747H73.8161C73.8161 22.747 73.4279 22.747 73.4279 22.3614C73.4279 22.3614 73.4279 21.9759 73.4279 21.5904V8.86748C73.4279 8.48194 73.4279 8.48195 73.4279 8.09641L73.8161 7.71084H74.5923C75.3687 7.71084 76.145 8.09643 76.5331 8.48197C77.3094 8.86751 77.6977 9.63856 78.0858 10.7952C78.474 12.7229 78.8621 14.2651 78.8621 15.8072ZM90.1185 16.5783C89.7303 15.8072 88.954 15.4217 88.1777 15.0362C89.3422 14.2651 90.1185 13.1084 90.1185 11.5663C90.1185 10.7952 90.1186 10.0241 89.7304 9.25304C89.3423 8.48196 88.954 8.09638 88.5659 7.71084C88.1777 7.3253 87.4014 7.32533 86.6251 7.32533H81.9674V8.09641H82.3554C82.3554 8.09641 82.7436 8.09643 82.7436 8.48197C82.7436 8.48197 82.7436 8.8675 82.7436 9.25304V22.747C82.7436 23.1326 82.7436 23.1325 82.7436 23.5181L82.3554 23.9037H81.9674V24.6747H87.0133C87.7896 24.6747 88.5659 24.6747 88.9541 24.2892C89.7304 23.9036 90.1185 23.5181 90.5066 22.747C90.8948 21.9759 90.8948 21.2049 90.8948 20.0482C90.8948 18.5061 90.5066 17.3494 90.1185 16.5783ZM84.2962 22.747C84.2962 22.747 84.2962 22.3615 84.2962 21.9759V15.8072H86.6251C87.4014 15.8072 88.1777 16.1928 88.5659 16.5783C88.954 17.3494 89.3422 18.1205 89.3422 18.8916C89.3422 19.6627 89.3422 20.0482 88.9541 20.4337C88.9541 20.8193 88.5659 21.5904 88.1777 21.5904C87.7896 21.9759 87.4014 21.9759 86.6251 21.9759H84.6844C84.6844 23.1326 84.2962 22.747 84.2962 22.747ZM84.2962 14.6506V9.25304C84.2962 8.8675 84.2962 8.86751 84.2962 8.48197L84.6844 8.09641H85.8489C86.6252 8.09641 87.4015 8.48194 87.7896 8.86748C88.1778 9.63856 88.1777 10.0241 88.1777 11.1808C88.1777 11.9518 88.1778 12.7229 87.7896 13.494C87.4015 13.8795 87.0132 14.2651 86.2369 14.2651L84.2962 14.6506ZM36.9416 10.4097C36.1653 10.0241 35.3889 9.63855 34.6126 9.63855C33.8363 9.63855 33.06 10.0241 32.2837 10.4097C31.5074 10.7952 31.1193 11.5663 30.7311 12.7229C30.343 13.494 29.9548 14.6506 29.9548 16.1928C29.9548 17.3494 29.9548 18.506 30.7311 19.6627C31.1193 20.4338 31.5074 21.2049 32.2837 21.9759C33.06 22.3615 33.8363 22.747 34.6126 22.747C35.3889 22.747 36.1653 22.3615 36.9416 21.9759C37.7179 21.5904 38.106 20.8193 38.4942 19.6627C38.8823 18.8916 39.2705 17.735 39.2705 16.1928C39.2705 15.0362 39.2705 13.8795 38.4942 12.7229C38.106 11.5663 37.7179 10.7952 36.9416 10.4097ZM37.7178 15.8072C37.7178 17.3494 37.3297 18.506 36.9416 19.2771C36.5534 20.0482 35.7771 20.8193 35.0008 20.8193C34.2245 20.8193 33.4482 20.4337 33.06 19.2771C32.6719 18.506 32.2837 16.9639 32.2837 15.8072C32.2837 14.2651 32.6719 13.1085 33.06 12.3374C33.4482 11.5663 34.2245 10.7952 35.0008 10.7952C35.7771 10.7952 36.5534 11.1808 36.9416 12.3374C37.3297 13.1085 37.7178 14.2651 37.7178 15.8072ZM67.2175 10.4097C66.4412 10.0241 65.6648 9.63855 64.8885 9.63855C64.1122 9.63855 63.336 10.0241 62.5597 10.4097C61.7834 10.7952 61.3951 11.5663 61.007 12.7229C60.6188 13.494 60.2308 14.6506 60.2308 16.1928C60.2308 17.3494 60.2307 18.506 61.007 19.6627C61.3951 20.4338 61.7834 21.2049 62.5597 21.9759C63.336 22.3615 64.1122 22.747 64.8885 22.747C65.6648 22.747 66.4412 22.3615 67.2175 21.9759C67.9938 21.5904 68.3819 20.8193 68.7701 19.6627C69.1582 18.8916 69.5464 17.735 69.5464 16.1928C69.5464 15.0362 69.5464 13.8795 68.7701 12.7229C68.3819 11.5663 67.6056 10.7952 67.2175 10.4097ZM67.6056 15.8072C67.6056 17.3494 67.2174 18.506 66.8293 19.2771C66.4411 20.0482 65.6648 20.8193 64.8885 20.8193C64.1122 20.8193 63.3359 20.4337 62.9478 19.2771C62.5596 18.506 62.1715 16.9639 62.1715 15.8072C62.1715 14.2651 62.5596 13.1085 62.9478 12.3374C63.3359 11.5663 64.1122 10.7952 64.8885 10.7952C65.6648 10.7952 66.4411 11.1808 66.8293 12.3374C67.6056 13.1085 67.6056 14.2651 67.6056 15.8072ZM54.7966 6.1687C54.0203 6.1687 53.6322 6.55423 52.8559 6.93977C52.4677 7.32531 51.6913 8.09639 51.6913 8.86748C51.3032 9.63856 51.3032 10.4097 51.3032 11.1808C51.3032 11.9518 51.3032 12.7229 51.6913 13.494C52.0795 14.2651 52.0795 14.6506 52.4677 15.0362L51.3032 17.3494C51.3032 17.7349 51.3032 18.1205 51.3032 18.506C51.3032 18.8916 51.6914 18.8916 52.0795 18.8916H52.4677C52.0795 19.2771 51.6913 19.6627 51.6913 20.0482C51.3032 20.4338 51.3032 21.2048 51.3032 21.5904C51.3032 22.747 51.6914 23.5181 52.0795 24.2892C52.8558 25.0602 53.6322 25.4458 54.7966 25.4458C55.5729 25.4458 56.3492 25.4458 57.1255 25.0602C57.9018 24.6747 58.29 24.2892 58.6782 23.5181C59.0663 22.747 59.4544 21.9759 59.4544 21.2048C59.4544 20.0482 59.0663 19.6627 58.6782 18.8916C58.29 18.1205 57.5137 18.1205 56.3492 18.1205H52.8559L53.6321 16.5783C54.0203 16.5783 54.0203 16.9639 54.4085 16.9639C54.7966 16.9639 54.7965 16.9639 55.1847 16.9639C55.961 16.9639 56.7373 16.5784 57.1255 16.1928C57.5136 15.8073 58.29 15.0362 58.6782 14.6506C59.0663 13.8795 59.0662 13.1085 59.0662 12.3374C59.0662 11.5663 58.6781 9.63856 57.9018 8.86748L59.8426 9.25304V8.09641H56.7374C55.9611 6.55424 55.5729 6.1687 54.7966 6.1687ZM55.9611 14.2651C55.5729 14.6506 55.1848 14.6506 54.7966 14.6506C54.0203 14.6506 53.6321 14.2651 53.2439 13.8795C52.8558 13.1085 52.4677 12.3374 52.4677 11.1808C52.4677 10.0241 52.8558 9.25306 53.2439 8.48197C53.6321 7.71089 54.0203 7.71084 54.7966 7.71084C55.1848 7.71084 55.5729 7.71086 55.9611 8.09641C56.3492 8.48195 56.7374 8.8675 56.7374 9.25304C57.1256 9.63859 57.1255 10.4097 57.1255 11.1808C57.1255 11.9518 57.1256 12.7229 56.7374 13.1085C56.7374 13.494 56.3492 13.8796 55.9611 14.2651ZM53.6321 18.506H55.9611C56.7374 18.506 57.1255 18.506 57.1255 19.2771C57.5136 19.6626 57.5136 20.0482 57.5136 20.8193C57.5136 21.5904 57.1256 22.3614 56.7374 23.1325C56.3493 23.5181 55.5729 23.9037 54.7966 23.9037C54.0203 23.9037 53.6322 23.5181 52.8559 23.1325C52.4677 22.747 52.0795 21.9759 52.0795 21.2048C52.0795 20.8193 52.0795 20.0482 52.4677 19.6627C53.244 19.2771 53.244 18.8916 53.6321 18.506ZM92.4474 16.9639L92.0592 16.5783C92.0592 16.1928 92.0592 16.1928 92.0592 15.8072C92.0592 15.4217 92.0592 15.4217 92.0592 15.0362C92.0592 14.6506 92.4474 14.6506 92.4474 14.6506L92.8356 14.2651C92.8356 14.2651 93.2238 14.2651 93.2238 14.6506L93.6119 15.0362C93.6119 15.4217 93.6119 15.4217 93.6119 15.8072C93.6119 16.1928 93.6119 16.1928 93.6119 16.5783C93.6119 16.9639 93.2238 16.9639 93.2238 16.9639L92.8356 17.3494C92.8356 17.3494 92.4474 17.3494 92.4474 16.9639ZM93.6119 16.9639L94 16.5783C94 16.1928 94 16.1928 94 15.8072C94 15.4217 94 15.4217 94 15.0362C94 14.6506 94.0001 14.6506 93.6119 14.6506H93.2238H92.8356L92.4474 15.0362C92.4474 15.4217 92.4474 15.4217 92.4474 15.8072C92.4474 16.1928 92.4474 16.1928 92.4474 16.5783C92.4474 16.9639 92.4474 16.9639 92.8356 16.9639H93.2238C93.2238 16.9639 93.2238 16.9639 93.6119 16.9639ZM92.4474 16.5783C92.4474 16.1928 92.4474 16.1928 92.4474 16.5783V15.4217H92.8356H93.2238C93.2238 15.4217 93.2238 15.4217 93.2238 15.8072V16.1928C93.2238 16.1928 93.2237 16.1928 92.8356 16.1928V16.5783H92.4474C92.8356 16.1928 92.8356 16.1928 92.4474 16.5783ZM92.8356 15.8072C93.2237 15.8072 93.2237 15.8072 92.8356 15.8072C93.2237 15.4217 93.2237 15.4217 92.8356 15.8072C93.2237 15.4217 93.2237 15.4217 92.8356 15.4217V15.8072Z" fill="white"/>
</svg>
