<svg width="162" height="162" viewBox="0 0 162 162" fill="none" xmlns="http://www.w3.org/2000/svg">
    <rect width="162" height="162" fill="#F5F5F5"/>
    <g clip-path="url(#clip0_0_1)">
    <rect width="1512" height="7562" transform="translate(-1004 -2945)" fill="white"/>
    <rect width="1512" height="1545" transform="translate(-1004 -419)" fill="#010A0F"/>
    <g opacity="0.1">
    <g filter="url(#filter0_b_0_1)">
    <path d="M-175.984 81.0487C-41.1891 92.8417 61.9242 230.174 48.1817 387.251C34.4392 544.329 -97.1937 664.135 -231.989 652.342" stroke="url(#paint0_radial_0_1)" stroke-opacity="0.9" stroke-width="14"/>
    <path d="M-175.984 81.0487C-41.1891 92.8417 61.9242 230.174 48.1817 387.251C34.4392 544.329 -97.1937 664.135 -231.989 652.342" stroke="url(#paint1_radial_0_1)" stroke-opacity="0.9" stroke-width="14"/>
    <path d="M-175.984 81.0487C-41.1891 92.8417 61.9242 230.174 48.1817 387.251C34.4392 544.329 -97.1937 664.135 -231.989 652.342" stroke="url(#paint2_radial_0_1)" stroke-opacity="0.9" stroke-width="14"/>
    <path d="M-175.984 81.0487C-41.1891 92.8417 61.9242 230.174 48.1817 387.251C34.4392 544.329 -97.1937 664.135 -231.989 652.342" stroke="url(#paint3_radial_0_1)" stroke-opacity="0.9" stroke-width="14"/>
    <path d="M-175.984 81.0487C-41.1891 92.8417 61.9242 230.174 48.1817 387.251C34.4392 544.329 -97.1937 664.135 -231.989 652.342" stroke="url(#paint4_radial_0_1)" stroke-opacity="0.9" stroke-width="14"/>
    </g>
    <path d="M39.9631 386.532C53.6968 229.555 -44.3715 92.8143 -178.994 81.0363C-313.62 69.258 -439.183 189.449 -452.917 346.422C-466.65 503.399 -368.582 640.14 -233.959 651.918C-99.3334 663.696 26.2297 543.506 39.9631 386.532Z" fill="url(#paint5_linear_0_1)"/>
    <path d="M39.9631 386.532C53.6968 229.555 -44.3715 92.8143 -178.994 81.0363C-313.62 69.258 -439.183 189.449 -452.917 346.422C-466.65 503.399 -368.582 640.14 -233.959 651.918C-99.3334 663.696 26.2297 543.506 39.9631 386.532Z" stroke="url(#paint6_radial_0_1)" stroke-width="0.5"/>
    <path d="M39.9631 386.532C53.6968 229.555 -44.3715 92.8143 -178.994 81.0363C-313.62 69.258 -439.183 189.449 -452.917 346.422C-466.65 503.399 -368.582 640.14 -233.959 651.918C-99.3334 663.696 26.2297 543.506 39.9631 386.532Z" stroke="url(#paint7_linear_0_1)" stroke-opacity="0.05" stroke-width="0.5"/>
    <g filter="url(#filter1_iii_0_1)">
    <path d="M15.3638 383.528C27.7177 242.323 -60.4988 119.259 -181.673 108.658C-302.848 98.0565 -419.057 208.954 -431.411 350.159C-443.764 491.365 -355.548 614.428 -234.373 625.03C-113.199 635.631 3.00997 524.734 15.3638 383.528Z" fill="#0A0C0E" fill-opacity="0.1"/>
    </g>
    <path d="M14.8657 383.485C27.202 242.48 -60.8863 119.727 -181.717 109.156C-302.554 98.5841 -418.577 209.206 -430.912 350.203C-443.249 491.207 -355.16 613.96 -234.33 624.532C-113.492 635.104 2.53013 524.481 14.8657 383.485Z" stroke="url(#paint8_linear_0_1)" stroke-opacity="0.15"/>
    <path d="M14.8657 383.485C27.202 242.48 -60.8863 119.727 -181.717 109.156C-302.554 98.5841 -418.577 209.206 -430.912 350.203C-443.249 491.207 -355.16 613.96 -234.33 624.532C-113.492 635.104 2.53013 524.481 14.8657 383.485Z" stroke="url(#paint9_linear_0_1)" stroke-opacity="0.25"/>
    </g>
    <g filter="url(#filter2_bii_0_1)">
    <rect x="-228" y="-81" width="619" height="516" rx="10" fill="white" fill-opacity="0.02"/>
    <path fill-rule="evenodd" clip-rule="evenodd" d="M78.5135 52.5668C67.6567 64.5977 69.8603 83.1925 81.979 93.9708C94.0977 104.749 112.708 102.551 123.565 90.5204L156.486 54.292C167.343 42.2611 165.14 23.6662 153.021 12.888C140.902 2.1098 122.292 4.30744 111.435 16.3383L78.5135 52.5668Z" fill="url(#paint10_linear_0_1)"/>
    <g filter="url(#filter3_bii_0_1)">
    <circle cx="81" cy="81.4294" r="80.5" fill="white" fill-opacity="0.03"/>
    </g>
    <path d="M92.1561 81.0855C93.8586 82.6518 94.7439 84.8309 94.7439 87.623C94.7439 90.415 93.9267 92.6282 92.2583 94.2626C90.5899 95.897 88.0362 96.7142 84.6312 96.7142H78.5023L78.4683 78.7702H84.8015C88.0021 78.7361 90.4537 79.5193 92.1561 81.0855ZM89.2619 91.777C90.2494 90.8577 90.726 89.4957 90.726 87.7592C90.726 85.9886 90.2153 84.6267 89.2279 83.7073C88.2404 82.7539 86.7423 82.2772 84.6993 82.2772H82.4521V93.2071H85.0058C86.8444 93.139 88.2745 92.6963 89.2619 91.777Z" fill="#EDEDED"/>
    <path d="M112.722 94.6712C111.156 96.1353 109.351 96.8844 107.24 96.8844C105.129 96.8844 103.392 96.2375 102.03 94.9436C100.668 93.6497 99.9874 91.9132 99.9533 89.734C99.9533 87.5549 100.634 85.8184 102.03 84.5585C103.426 83.2647 105.061 82.6177 106.967 82.6177C108.874 82.6177 110.475 83.1966 111.802 84.3202C113.13 85.4779 113.811 87.0441 113.811 89.0531V91.096H103.733C103.869 91.8451 104.244 92.458 104.925 92.9347C105.605 93.4114 106.355 93.6497 107.172 93.6497C108.534 93.6497 109.623 93.2071 110.509 92.2877L112.722 94.6712ZM109.01 86.4653C108.466 86.0227 107.819 85.7843 107.07 85.7843C106.321 85.7843 105.605 86.0227 104.993 86.4653C104.346 86.942 104.005 87.5549 103.903 88.338H109.964C109.862 87.5549 109.555 86.908 109.01 86.4653Z" fill="#EDEDED"/>
    <path d="M120.451 96.646L114.969 82.822H118.987L122.426 91.5386L125.865 82.822H129.883L124.435 96.68L120.451 96.646Z" fill="#EDEDED"/>
    <path d="M142.311 92.3215C142.311 93.6835 141.8 94.7731 140.813 95.5903C139.826 96.4074 138.532 96.816 136.999 96.816C135.978 96.816 134.888 96.6458 133.799 96.2712C132.675 95.8967 131.688 95.3519 130.802 94.6369L132.505 92.2194C133.935 93.343 135.467 93.8878 137.102 93.8878C137.612 93.8878 137.987 93.7856 138.293 93.5813C138.6 93.3771 138.736 93.1387 138.736 92.7982C138.736 92.4577 138.532 92.1853 138.123 91.9129C137.715 91.6405 137.136 91.3681 136.387 91.1298C135.637 90.8915 135.059 90.6872 134.65 90.5169C134.241 90.3467 133.799 90.1083 133.288 89.7678C132.233 89.1209 131.722 88.1675 131.722 86.8736C131.722 85.6138 132.233 84.5583 133.254 83.7411C134.276 82.9239 135.603 82.5153 137.238 82.5153C138.872 82.5153 140.507 83.0601 142.107 84.1497L140.677 86.7034C139.485 85.8862 138.293 85.4776 137.102 85.4776C135.91 85.4776 135.331 85.8181 135.331 86.465C135.331 86.8396 135.535 87.112 135.91 87.3163C136.284 87.5206 136.897 87.7589 137.783 88.0313C138.668 88.3037 139.281 88.508 139.655 88.6442C140.03 88.7804 140.472 89.0187 140.983 89.3252C141.834 89.9721 142.311 90.9596 142.311 92.3215Z" fill="#EDEDED"/>
    <path d="M50.8545 78.7018H46.8367V90.2786L38.0519 78.7018H34.2725V96.6798H38.2903V85.4095L46.8367 96.6798H50.8545V78.7018Z" fill="#4375D9"/>
    <path d="M70.5349 84.6606C74.8932 81.5281 79.2175 78.3615 83.5758 75.229L84.427 74.582H83.8141C78.3322 74.582 72.8503 74.582 67.3343 74.582C66.9938 74.582 66.8235 74.5139 66.6873 74.1394C64.9849 68.9298 63.2824 63.6862 61.614 58.4767C61.5799 58.3405 61.5118 58.2043 61.4437 58C60.4563 60.9963 59.537 63.8905 58.5836 66.7847C57.7664 69.3044 56.9152 71.8581 56.098 74.4118C56.064 74.6161 55.8937 74.7523 55.6894 74.7863C51.7737 75.229 37.9157 75.6716 34 76.1483L34.034 76.2845C35.0215 76.4207 56.4725 77.7827 57.9026 77.9189C57.9026 77.9189 57.9026 77.9189 57.9367 77.9189C58.141 77.9529 58.3453 77.8167 58.4134 77.6124C58.6177 77.0336 58.8901 76.4888 59.0603 75.9099C59.8094 73.5946 60.5585 71.2792 61.3076 68.9298C61.3757 68.7596 61.4437 68.5893 61.5118 68.3169C61.5799 68.5212 61.648 68.6574 61.6821 68.7936C62.6014 71.6538 63.5548 74.5139 64.4741 77.3741C64.5082 77.6465 64.7806 77.8167 65.0189 77.7827C68.0153 77.7827 71.0457 77.7827 74.076 77.7827H74.4846C74.3825 77.9529 74.2463 78.055 74.1101 78.1572C71.6926 79.9278 69.2751 81.6643 66.8576 83.4348C66.8576 83.4348 66.8576 83.4348 66.8235 83.4348C66.5852 83.571 66.5171 83.8434 66.6533 84.0477C67.6067 86.8057 68.4579 89.5978 69.3772 92.3898C69.4453 92.5941 69.5134 92.8325 69.6156 93.1729L61.4097 87.2143L50.7863 96.9865C50.8544 97.0205 50.8885 97.0205 50.9566 96.9865C54.3274 95.1138 57.6643 93.207 61.0011 91.3343C61.2054 91.164 61.5118 91.1981 61.7161 91.3683C65.5978 94.1944 69.4794 97.0205 73.361 99.8466L75.6423 101.481C75.5742 101.243 75.5402 101.106 75.4721 100.97C73.7696 95.7266 72.0671 90.4831 70.3647 85.2735C70.2966 85.0011 70.2625 84.8309 70.5349 84.6606Z" fill="#4375D9"/>
    <rect x="-227.5" y="-80.5" width="618" height="515" rx="9.5" stroke="white" stroke-opacity="0.1"/>
    </g>
    </g>
    <defs>
    <filter id="filter0_b_0_1" x="-267.599" y="39.0753" width="359.007" height="656.07" filterUnits="userSpaceOnUse" color-interpolation-filters="sRGB">
    <feFlood flood-opacity="0" result="BackgroundImageFix"/>
    <feGaussianBlur in="BackgroundImageFix" stdDeviation="17.5"/>
    <feComposite in2="SourceAlpha" operator="in" result="effect1_backgroundBlur_0_1"/>
    <feBlend mode="normal" in="SourceGraphic" in2="effect1_backgroundBlur_0_1" result="shape"/>
    </filter>
    <filter id="filter1_iii_0_1" x="-436.565" y="103.956" width="457.083" height="525.775" filterUnits="userSpaceOnUse" color-interpolation-filters="sRGB">
    <feFlood flood-opacity="0" result="BackgroundImageFix"/>
    <feBlend mode="normal" in="SourceGraphic" in2="BackgroundImageFix" result="shape"/>
    <feColorMatrix in="SourceAlpha" type="matrix" values="0 0 0 0 0 0 0 0 0 0 0 0 0 0 0 0 0 0 127 0" result="hardAlpha"/>
    <feOffset dx="4" dy="-6"/>
    <feGaussianBlur stdDeviation="2"/>
    <feComposite in2="hardAlpha" operator="arithmetic" k2="-1" k3="1"/>
    <feColorMatrix type="matrix" values="0 0 0 0 0.316667 0 0 0 0 0.316667 0 0 0 0 0.316667 0 0 0 0.25 0"/>
    <feBlend mode="normal" in2="shape" result="effect1_innerShadow_0_1"/>
    <feColorMatrix in="SourceAlpha" type="matrix" values="0 0 0 0 0 0 0 0 0 0 0 0 0 0 0 0 0 0 127 0" result="hardAlpha"/>
    <feOffset dx="-4" dy="6"/>
    <feGaussianBlur stdDeviation="2"/>
    <feComposite in2="hardAlpha" operator="arithmetic" k2="-1" k3="1"/>
    <feColorMatrix type="matrix" values="0 0 0 0 0.270833 0 0 0 0 0.270833 0 0 0 0 0.270833 0 0 0 0.25 0"/>
    <feBlend mode="normal" in2="effect1_innerShadow_0_1" result="effect2_innerShadow_0_1"/>
    <feColorMatrix in="SourceAlpha" type="matrix" values="0 0 0 0 0 0 0 0 0 0 0 0 0 0 0 0 0 0 127 0" result="hardAlpha"/>
    <feOffset dx="-4" dy="-4"/>
    <feGaussianBlur stdDeviation="2"/>
    <feComposite in2="hardAlpha" operator="arithmetic" k2="-1" k3="1"/>
    <feColorMatrix type="matrix" values="0 0 0 0 0.270833 0 0 0 0 0.270833 0 0 0 0 0.270833 0 0 0 0.25 0"/>
    <feBlend mode="normal" in2="effect2_innerShadow_0_1" result="effect3_innerShadow_0_1"/>
    </filter>
    <filter id="filter2_bii_0_1" x="-300.722" y="-153.722" width="764.444" height="661.444" filterUnits="userSpaceOnUse" color-interpolation-filters="sRGB">
    <feFlood flood-opacity="0" result="BackgroundImageFix"/>
    <feGaussianBlur in="BackgroundImageFix" stdDeviation="36.3611"/>
    <feComposite in2="SourceAlpha" operator="in" result="effect1_backgroundBlur_0_1"/>
    <feBlend mode="normal" in="SourceGraphic" in2="effect1_backgroundBlur_0_1" result="shape"/>
    <feColorMatrix in="SourceAlpha" type="matrix" values="0 0 0 0 0 0 0 0 0 0 0 0 0 0 0 0 0 0 127 0" result="hardAlpha"/>
    <feOffset dy="2.26765"/>
    <feGaussianBlur stdDeviation="1.13383"/>
    <feComposite in2="hardAlpha" operator="arithmetic" k2="-1" k3="1"/>
    <feColorMatrix type="matrix" values="0 0 0 0 1 0 0 0 0 1 0 0 0 0 1 0 0 0 0.15 0"/>
    <feBlend mode="normal" in2="shape" result="effect2_innerShadow_0_1"/>
    <feColorMatrix in="SourceAlpha" type="matrix" values="0 0 0 0 0 0 0 0 0 0 0 0 0 0 0 0 0 0 127 0" result="hardAlpha"/>
    <feOffset/>
    <feGaussianBlur stdDeviation="17.0074"/>
    <feComposite in2="hardAlpha" operator="arithmetic" k2="-1" k3="1"/>
    <feColorMatrix type="matrix" values="0 0 0 0 1 0 0 0 0 1 0 0 0 0 1 0 0 0 0.05 0"/>
    <feBlend mode="normal" in2="effect2_innerShadow_0_1" result="effect3_innerShadow_0_1"/>
    </filter>
    <filter id="filter3_bii_0_1" x="-44.853" y="-44.4237" width="251.706" height="251.706" filterUnits="userSpaceOnUse" color-interpolation-filters="sRGB">
    <feFlood flood-opacity="0" result="BackgroundImageFix"/>
    <feGaussianBlur in="BackgroundImageFix" stdDeviation="22.6765"/>
    <feComposite in2="SourceAlpha" operator="in" result="effect1_backgroundBlur_0_1"/>
    <feBlend mode="normal" in="SourceGraphic" in2="effect1_backgroundBlur_0_1" result="shape"/>
    <feColorMatrix in="SourceAlpha" type="matrix" values="0 0 0 0 0 0 0 0 0 0 0 0 0 0 0 0 0 0 127 0" result="hardAlpha"/>
    <feOffset dy="2.26765"/>
    <feGaussianBlur stdDeviation="1.13383"/>
    <feComposite in2="hardAlpha" operator="arithmetic" k2="-1" k3="1"/>
    <feColorMatrix type="matrix" values="0 0 0 0 1 0 0 0 0 1 0 0 0 0 1 0 0 0 0.15 0"/>
    <feBlend mode="normal" in2="shape" result="effect2_innerShadow_0_1"/>
    <feColorMatrix in="SourceAlpha" type="matrix" values="0 0 0 0 0 0 0 0 0 0 0 0 0 0 0 0 0 0 127 0" result="hardAlpha"/>
    <feOffset/>
    <feGaussianBlur stdDeviation="17.0074"/>
    <feComposite in2="hardAlpha" operator="arithmetic" k2="-1" k3="1"/>
    <feColorMatrix type="matrix" values="0 0 0 0 1 0 0 0 0 1 0 0 0 0 1 0 0 0 0.05 0"/>
    <feBlend mode="normal" in2="effect2_innerShadow_0_1" result="effect3_innerShadow_0_1"/>
    </filter>
    <radialGradient id="paint0_radial_0_1" cx="0" cy="0" r="1" gradientUnits="userSpaceOnUse" gradientTransform="translate(85.9486 271.101) rotate(131.521) scale(115.102 51.3348)">
    <stop stop-color="#0A0505"/>
    <stop offset="0.302247" stop-color="#721A31"/>
    <stop offset="0.989583" stop-color="#721A31" stop-opacity="0"/>
    </radialGradient>
    <radialGradient id="paint1_radial_0_1" cx="0" cy="0" r="1" gradientUnits="userSpaceOnUse" gradientTransform="translate(122.568 523.754) rotate(-132.954) scale(288.175 128.524)">
    <stop stop-color="#FF7070"/>
    <stop offset="1" stop-color="#FF7070" stop-opacity="0"/>
    </radialGradient>
    <radialGradient id="paint2_radial_0_1" cx="0" cy="0" r="1" gradientUnits="userSpaceOnUse" gradientTransform="translate(-13.2681 647.887) rotate(-89.7802) scale(144.001 64.2234)">
    <stop stop-color="#FF7070"/>
    <stop offset="1" stop-color="#FF7070" stop-opacity="0"/>
    </radialGradient>
    <radialGradient id="paint3_radial_0_1" cx="0" cy="0" r="1" gradientUnits="userSpaceOnUse" gradientTransform="translate(129.946 496.794) rotate(-138.444) scale(219.103 188.948)">
    <stop offset="0.00401228" stop-color="#311288"/>
    <stop offset="0.317708" stop-color="#6EF2E6"/>
    <stop offset="0.713542" stop-color="#F3F34E"/>
    <stop offset="1" stop-color="#CCFFFA" stop-opacity="0"/>
    </radialGradient>
    <radialGradient id="paint4_radial_0_1" cx="0" cy="0" r="1" gradientUnits="userSpaceOnUse" gradientTransform="translate(-79.462 377.59) rotate(-79.1304) scale(268.91 119.932)">
    <stop stop-color="#767676"/>
    <stop offset="1" stop-color="white" stop-opacity="0"/>
    </radialGradient>
    <linearGradient id="paint5_linear_0_1" x1="41.0002" y1="476.5" x2="-590.5" y2="260" gradientUnits="userSpaceOnUse">
    <stop stop-color="#010101" stop-opacity="0"/>
    <stop stop-opacity="0.9"/>
    <stop offset="0.459707" stop-color="#363636" stop-opacity="0.971584"/>
    <stop offset="0.827067" stop-color="#0A0A0A" stop-opacity="0.995031"/>
    <stop offset="1" stop-color="#010101"/>
    <stop offset="1" stop-color="white" stop-opacity="0"/>
    </linearGradient>
    <radialGradient id="paint6_radial_0_1" cx="0" cy="0" r="1" gradientUnits="userSpaceOnUse" gradientTransform="translate(-548.952 173.394) rotate(30.9442) scale(371.433 320.312)">
    <stop stop-color="#343434"/>
    <stop offset="1" stop-color="#A4A4A4" stop-opacity="0"/>
    </radialGradient>
    <linearGradient id="paint7_linear_0_1" x1="-234.37" y1="364.037" x2="331.989" y2="166.647" gradientUnits="userSpaceOnUse">
    <stop stop-color="#3D3F3E"/>
    <stop offset="1" stop-color="#606261"/>
    </linearGradient>
    <linearGradient id="paint8_linear_0_1" x1="-675.85" y1="596.946" x2="-62.2673" y2="462.688" gradientUnits="userSpaceOnUse">
    <stop stop-color="#58CBC2" stop-opacity="0.25"/>
    <stop offset="1" stop-color="white" stop-opacity="0"/>
    </linearGradient>
    <linearGradient id="paint9_linear_0_1" x1="156.542" y1="330.479" x2="-231.222" y2="401.64" gradientUnits="userSpaceOnUse">
    <stop stop-color="#3D3F3B"/>
    <stop offset="1" stop-color="#EBEBEB" stop-opacity="0.33"/>
    </linearGradient>
    <linearGradient id="paint10_linear_0_1" x1="71.5" y1="5.92938" x2="183.378" y2="47.7401" gradientUnits="userSpaceOnUse">
    <stop stop-color="#41BFB3"/>
    <stop offset="1" stop-color="#3EBEB8"/>
    </linearGradient>
    <clipPath id="clip0_0_1">
    <rect width="1512" height="7562" fill="white" transform="translate(-1004 -2945)"/>
    </clipPath>
    </defs>
    </svg>
    