<svg width="157" height="57" viewBox="0 0 157 57" fill="none" xmlns="http://www.w3.org/2000/svg">
<path d="M91.2385 27.2632C93.4703 29.3164 94.6309 32.1731 94.6309 35.8333C94.6309 39.4934 93.5596 42.3948 91.3724 44.5373C89.1853 46.6798 85.8376 47.7511 81.374 47.7511H73.3396L73.2949 24.228H81.5972C85.793 24.1833 89.0067 25.2099 91.2385 27.2632ZM87.4445 41.2789C88.7389 40.0737 89.3638 38.2883 89.3638 36.0118C89.3638 33.6908 88.6943 31.9053 87.3999 30.7002C86.1054 29.4504 84.1414 28.8255 81.4633 28.8255H78.5173V43.1536H81.865C84.2753 43.0643 86.15 42.484 87.4445 41.2789Z" fill="white"/>
<path d="M118.197 45.0736C116.144 46.9929 113.778 47.9749 111.011 47.9749C108.244 47.9749 105.967 47.1268 104.182 45.4306C102.396 43.7345 101.504 41.458 101.459 38.6014C101.459 35.7447 102.352 33.4682 104.182 31.8167C106.012 30.1205 108.154 29.2725 110.654 29.2725C113.154 29.2725 115.251 30.0313 116.992 31.5043C118.733 33.0219 119.626 35.0751 119.626 37.7086V40.3868H106.414C106.592 41.3688 107.083 42.1722 107.976 42.7971C108.869 43.422 109.851 43.7345 110.922 43.7345C112.707 43.7345 114.136 43.1542 115.296 41.949L118.197 45.0736ZM113.332 34.3163C112.618 33.736 111.77 33.4236 110.788 33.4236C109.806 33.4236 108.869 33.736 108.065 34.3163C107.217 34.9412 106.771 35.7447 106.637 36.7713H114.582C114.448 35.7447 114.046 34.8966 113.332 34.3163Z" fill="white"/>
<path d="M128.331 47.6622L121.145 29.54H126.412L130.92 40.9668L135.428 29.54H140.695L133.553 47.7068L128.331 47.6622Z" fill="white"/>
<path d="M156.987 41.9938C156.987 43.7792 156.318 45.2076 155.023 46.2788C153.729 47.3501 152.033 47.8857 150.024 47.8857C148.685 47.8857 147.257 47.6626 145.828 47.1716C144.355 46.6806 143.061 45.9664 141.9 45.029L144.132 41.8599C146.007 43.3329 148.016 44.0471 150.158 44.0471C150.828 44.0471 151.319 43.9131 151.72 43.6453C152.122 43.3775 152.301 43.0651 152.301 42.6187C152.301 42.1723 152.033 41.8153 151.497 41.4582C150.961 41.1011 150.203 40.744 149.221 40.4315C148.239 40.1191 147.48 39.8513 146.944 39.6281C146.409 39.4049 145.828 39.0925 145.159 38.6461C143.775 37.798 143.106 36.5482 143.106 34.8521C143.106 33.2005 143.775 31.8168 145.114 30.7456C146.453 29.6743 148.194 29.1387 150.337 29.1387C152.479 29.1387 154.622 29.8528 156.719 31.2812L154.845 34.6289C153.283 33.5576 151.72 33.022 150.158 33.022C148.596 33.022 147.837 33.4684 147.837 34.3164C147.837 34.8074 148.105 35.1645 148.596 35.4323C149.087 35.7001 149.89 36.0126 151.051 36.3697C152.211 36.7268 153.015 36.9946 153.506 37.1731C153.997 37.3517 154.577 37.6641 155.247 38.0658C156.362 38.9139 156.987 40.2084 156.987 41.9938Z" fill="white"/>
<path d="M22.0936 27.1389H16.8265V42.3151L5.31048 27.1389H0.355896V50.7067H5.62293V35.9322L16.8265 50.7067H22.0936V27.1389Z" fill="#4375D9"/>
<path d="M47.8943 34.9499C53.6077 30.8434 59.2764 26.6922 64.9898 22.5858L66.1057 21.7377H65.3023C58.1159 21.7377 50.9295 21.7377 43.6985 21.7377C43.2522 21.7377 43.029 21.6484 42.8504 21.1574C40.6186 14.3281 38.3868 7.45419 36.1997 0.624906C36.155 0.446363 36.0658 0.267815 35.9765 0C34.6821 3.92796 33.4769 7.72201 32.2271 11.5161C31.1558 14.8191 30.0399 18.1668 28.9687 21.5145C28.924 21.7823 28.7009 21.9608 28.433 22.0055C23.2999 22.5857 5.13312 23.166 0 23.7909L0.0446352 23.9695C1.33908 24.148 29.4597 25.9334 31.3344 26.112C31.3344 26.112 31.3344 26.112 31.379 26.112C31.6468 26.1566 31.9146 25.9781 32.0039 25.7103C32.2717 24.9515 32.6288 24.2373 32.852 23.4785C33.834 20.4432 34.816 17.408 35.798 14.3281C35.8872 14.1049 35.9765 13.8818 36.0658 13.5247C36.155 13.7925 36.2443 13.971 36.289 14.1496C37.4941 17.899 38.7439 21.6484 39.9491 25.3978C39.9937 25.7549 40.3508 25.9781 40.6633 25.9334C44.5912 25.9334 48.5638 25.9334 52.5364 25.9334H53.072C52.9381 26.1566 52.7596 26.2905 52.581 26.4244C49.4119 28.7455 46.2427 31.0219 43.0736 33.343C43.0736 33.343 43.0736 33.343 43.029 33.343C42.7165 33.5215 42.6273 33.8786 42.8058 34.1464C44.0556 37.7619 45.1715 41.4221 46.3767 45.0822C46.4659 45.35 46.5552 45.6625 46.6891 46.1088L35.9319 38.2976L22.0055 51.1081C22.0947 51.1527 22.1394 51.1527 22.2287 51.1081C26.6476 48.6531 31.0219 46.1535 35.3962 43.6985C35.6641 43.4753 36.0658 43.52 36.3336 43.7431C41.4221 47.4479 46.5106 51.1527 51.5991 54.8575L54.5897 57C54.5004 56.6875 54.4557 56.509 54.3665 56.3305C52.1347 49.4565 49.9029 42.5826 47.6711 35.7533C47.5818 35.3962 47.5372 35.1731 47.8943 34.9499Z" fill="#4375D9"/>
</svg>
