<svg width="91" height="87" viewBox="0 0 91 87" fill="none" xmlns="http://www.w3.org/2000/svg">
<circle cx="45.4219" cy="41.4199" r="24" stroke="#3EBEB8" stroke-width="2"/>
<path opacity="0.5" d="M41.5539 8.64732C36.9552 9.18999 32.5222 10.6944 28.5431 13.0628C24.564 15.4311 21.1278 18.6104 18.4581 22.3939C15.7883 26.1774 13.9447 30.4804 13.0471 35.0231C12.1495 39.5659 12.218 44.2467 13.2481 48.7613L21.4292 46.8945C20.661 43.5279 20.6099 40.0374 21.2792 36.6497C21.9486 33.2621 23.3234 30.0533 25.3143 27.2319C27.3052 24.4104 29.8676 22.0396 32.8349 20.2735C35.8022 18.5073 39.1079 17.3855 42.5372 16.9808L41.5539 8.64732Z" fill="#3EBEB8"/>
<path opacity="0.5" d="M17.3456 58.7653C19.829 62.7846 23.1465 66.2238 27.0738 68.8503C31.001 71.4768 35.4465 73.2294 40.1095 73.9896C44.7726 74.7498 49.5445 74.4998 54.1026 73.2566C58.6607 72.0134 62.8987 69.8059 66.5301 66.7835L61.1619 60.3339C58.454 62.5878 55.2936 64.2339 51.8945 65.161C48.4955 66.0881 44.937 66.2745 41.4597 65.7076C37.9823 65.1407 34.6673 63.8338 31.7387 61.8751C28.81 59.9165 26.3361 57.3519 24.4842 54.3546L17.3456 58.7653Z" fill="#3EBEB8"/>
<path opacity="0.5" d="M74.4954 57.0296C76.6823 52.9563 77.989 48.469 78.3307 43.8585C78.6724 39.248 78.0415 34.6171 76.4789 30.266C74.9163 25.9148 72.4569 21.9406 69.2601 18.6008C66.0633 15.261 62.2004 12.6302 57.9218 10.8789L54.743 18.6448C57.9337 19.9508 60.8143 21.9127 63.1982 24.4032C65.5822 26.8937 67.4162 29.8574 68.5814 33.1021C69.7467 36.3468 70.2171 39.8002 69.9623 43.2383C69.7075 46.6765 68.7331 50.0227 67.1023 53.0602L74.4954 57.0296Z" fill="#3EBEB8"/>
</svg>
