<svg width="49" height="48" viewBox="0 0 49 48" fill="none" xmlns="http://www.w3.org/2000/svg">
<rect x="0.5" width="48" height="48" rx="10" fill="#F4EBFF"/>
<path d="M11.9333 28.3083C11.6941 28.3083 11.5 28.1229 11.5 27.8945V13.2414C11.5 12.557 12.0833 12 12.8 12H36.2C36.9167 12 37.5 12.557 37.5 13.2414V17.3063C37.5 17.5347 37.3059 17.7201 37.0667 17.7201C36.8275 17.7201 36.6333 17.5347 36.6333 17.3063V13.2414C36.6333 13.0138 36.4383 12.8276 36.2 12.8276H12.8C12.5617 12.8276 12.3667 13.0138 12.3667 13.2414V27.8945C12.3667 28.1229 12.1725 28.3083 11.9333 28.3083Z" fill="#41BFB3" stroke="#41BFB3" stroke-width="0.6"/>
<path d="M24.5 36H19.7333C19.4941 36 19.3 35.8146 19.3 35.5862C19.3 35.3578 19.4941 35.1724 19.7333 35.1724H20.6C21.3167 35.1724 21.9 34.6155 21.9 33.9311V31.8621C21.9 31.6337 22.0941 31.4483 22.3333 31.4483C22.5725 31.4483 22.7667 31.6337 22.7667 31.8621V33.9311C22.7667 34.397 22.6046 34.8265 22.3325 35.1724H24.5C24.7392 35.1724 24.9333 35.3578 24.9333 35.5862C24.9333 35.8146 24.7392 36 24.5 36Z" fill="#41BFB3" stroke="#41BFB3" stroke-width="0.6"/>
<path d="M25.5111 31.8621H12.8C12.0833 31.8621 11.5 31.3051 11.5 30.6207V28.1379C11.5 27.9095 11.6941 27.7241 11.9333 27.7241H25.5111C25.7503 27.7241 25.9444 27.9095 25.9444 28.1379C25.9444 28.3663 25.7503 28.5517 25.5111 28.5517H12.3667V30.6207C12.3667 30.8483 12.5617 31.0345 12.8 31.0345H25.5111C25.7503 31.0345 25.9444 31.2198 25.9444 31.4483C25.9444 31.6767 25.7503 31.8621 25.5111 31.8621Z" fill="#41BFB3" stroke="#41BFB3" stroke-width="0.6"/>
<path d="M29.2666 17.7931H33.6C33.8392 17.7931 34.0333 17.6077 34.0333 17.3793C34.0333 17.1509 33.8392 16.9655 33.6 16.9655H29.2666C29.0274 16.9655 28.8333 17.1509 28.8333 17.3793C28.8333 17.6077 29.0274 17.7931 29.2666 17.7931Z" fill="#41BFB3" stroke="#41BFB3" stroke-width="0.6"/>
<path d="M31 34.3448H31.8667C32.1059 34.3448 32.3 34.1594 32.3 33.931C32.3 33.7026 32.1059 33.5172 31.8667 33.5172H31C30.7608 33.5172 30.5667 33.7026 30.5667 33.931C30.5667 34.1594 30.7608 34.3448 31 34.3448Z" fill="#41BFB3" stroke="#41BFB3" stroke-width="0.6"/>
<path fill-rule="evenodd" clip-rule="evenodd" d="M27.5333 36H35.3333C36.5284 36 37.5 35.0723 37.5 33.9311V17.3793C37.5 16.2381 36.5284 15.3104 35.3333 15.3104H27.5333C26.3382 15.3104 25.3666 16.2381 25.3666 17.3793V33.9311C25.3666 35.0723 26.3382 36 27.5333 36ZM26.2333 17.3793C26.2333 16.6949 26.8166 16.138 27.5333 16.138H35.3333C36.05 16.138 36.6333 16.6949 36.6333 17.3793V33.9311C36.6333 34.6155 36.05 35.1724 35.3333 35.1724H27.5333C26.8166 35.1724 26.2333 34.6155 26.2333 33.9311V17.3793Z" fill="#41BFB3"/>
<path d="M35.3333 35.7H27.5333V36.3H35.3333V35.7ZM37.2 33.9311C37.2 34.8937 36.3759 35.7 35.3333 35.7V36.3C36.6809 36.3 37.8 35.2509 37.8 33.9311H37.2ZM37.2 17.3793V33.9311H37.8V17.3793H37.2ZM35.3333 15.6104C36.3759 15.6104 37.2 16.4167 37.2 17.3793H37.8C37.8 16.0595 36.6809 15.0104 35.3333 15.0104V15.6104ZM27.5333 15.6104H35.3333V15.0104H27.5333V15.6104ZM25.6666 17.3793C25.6666 16.4167 26.4907 15.6104 27.5333 15.6104V15.0104C26.1857 15.0104 25.0666 16.0595 25.0666 17.3793H25.6666ZM25.6666 33.9311V17.3793H25.0666V33.9311H25.6666ZM27.5333 35.7C26.4907 35.7 25.6666 34.8937 25.6666 33.9311H25.0666C25.0666 35.2509 26.1857 36.3 27.5333 36.3V35.7ZM27.5333 15.8379C26.6641 15.8379 25.9333 16.5163 25.9333 17.3793H26.5333C26.5333 16.8735 26.9691 16.438 27.5333 16.438V15.8379ZM35.3333 15.8379H27.5333V16.438H35.3333V15.8379ZM36.9333 17.3793C36.9333 16.5163 36.2025 15.8379 35.3333 15.8379V16.438C35.8975 16.438 36.3333 16.8735 36.3333 17.3793H36.9333ZM36.9333 33.9311V17.3793H36.3333V33.9311H36.9333ZM35.3333 35.4724C36.2025 35.4724 36.9333 34.794 36.9333 33.9311H36.3333C36.3333 34.4369 35.8975 34.8724 35.3333 34.8724V35.4724ZM27.5333 35.4724H35.3333V34.8724H27.5333V35.4724ZM25.9333 33.9311C25.9333 34.794 26.6641 35.4724 27.5333 35.4724V34.8724C26.9691 34.8724 26.5333 34.4369 26.5333 33.9311H25.9333ZM25.9333 17.3793V33.9311H26.5333V17.3793H25.9333Z" fill="#41BFB3"/>
</svg>
