<svg width="77" height="68" viewBox="0 0 77 68" fill="none" xmlns="http://www.w3.org/2000/svg">
    <path d="M58.303 20.7803C56.8961 19.9739 55.086 19.9739 53.4775 20.7803L42.2195 27.4402L34.5803 31.6762L23.5225 38.3406C22.1157 39.1471 20.3055 39.1471 18.697 38.3406L10.0557 33.0943C9.32086 32.6598 8.71167 32.0403 8.28839 31.2971C7.86511 30.554 7.64239 29.7128 7.64224 28.8567V18.7627C7.64224 17.1484 8.44724 15.534 10.0557 14.5252L18.697 9.48121C20.1039 8.67327 21.914 8.67327 23.5225 9.48121L32.1638 14.7275C32.8989 15.1618 33.5082 15.7812 33.9316 16.5245C34.3549 17.2677 34.5775 18.109 34.5773 18.9651V25.6234L42.2165 21.1835V14.3243C42.2165 12.71 41.413 11.0956 39.8045 10.0868L23.7226 0.605961C22.3158 -0.201987 20.5072 -0.201987 18.8987 0.605961L2.41198 10.2876C0.803489 11.0956 0 12.71 0 14.3243V33.2906C0 34.9049 0.803489 36.5148 2.41198 37.5281L18.697 47.0135C20.1039 47.8215 21.914 47.8215 23.5225 47.0135L34.5803 40.556L42.2195 36.1176L53.2774 29.6601C54.6842 28.8537 56.4944 28.8537 58.1029 29.6601L66.7441 34.7056C67.4803 35.1403 68.0904 35.7607 68.5141 36.505C68.9377 37.2494 69.1601 38.092 69.1592 38.9492V49.0372C69.1592 50.6516 68.3557 52.2659 66.7472 53.2747L58.303 58.3202C56.8961 59.1266 55.086 59.1266 53.4775 58.3202L44.8362 53.2747C44.1015 52.8401 43.4925 52.2206 43.0695 51.4774C42.6465 50.7342 42.4241 49.8931 42.4242 49.0372V42.5736L34.7805 47.0135V53.6719C34.7805 55.2862 35.5855 56.9006 37.194 57.9094L53.4775 67.3933C54.8859 68.2012 56.6945 68.2012 58.303 67.3933L74.588 57.9079C75.3227 57.4733 75.9317 56.8538 76.3547 56.1106C76.7777 55.3674 77.0002 54.5263 77 53.6703V34.4987C77 32.8843 76.1965 31.2699 74.588 30.2611L58.303 20.7803Z" fill="#8247E5"/>
    </svg>
    