<svg width="1512" height="860" viewBox="0 0 1512 860" fill="none" xmlns="http://www.w3.org/2000/svg">
<g opacity="0.3">
<path opacity="0.0144928" d="M1479.27 1502.65C1488.32 1507.45 1499.46 1505.69 1506.59 1498.32L1732.92 1264.24C1737.13 1259.88 1739.45 1254.04 1739.38 1247.97L1733.76 781.909C1733.71 777.142 1732.17 772.511 1729.36 768.656L1489.22 438.549C1484.13 431.559 1475.56 428.011 1467.02 429.363L1186.57 473.782C1178.03 475.134 1170.97 481.159 1168.3 489.378L1041.91 877.537C1040.44 882.07 1040.41 886.95 1041.83 891.501L1180.51 1336.49C1182.31 1342.28 1186.32 1347.12 1191.68 1349.96L1479.27 1502.65Z" stroke="url(#paint0_linear_1_20)" stroke-width="4"/>
<path opacity="0.0289855" d="M1428.11 1501.16C1436.89 1506.4 1448.07 1505.23 1455.56 1498.27L1692.48 1278.33C1696.93 1274.2 1699.56 1268.47 1699.81 1262.41L1718.64 800.976C1718.84 796.198 1717.54 791.478 1714.93 787.473L1493.84 448.496C1489.13 441.265 1480.76 437.284 1472.17 438.187L1191.46 467.691C1182.88 468.593 1175.52 474.227 1172.41 482.28L1026.64 859.815C1024.91 864.276 1024.63 869.163 1025.81 873.795L1140.16 1321.23C1141.67 1327.11 1145.44 1332.16 1150.65 1335.27L1428.11 1501.16Z" stroke="url(#paint1_linear_1_20)" stroke-width="4"/>
<path opacity="0.0434783" d="M1377.36 1498.12C1385.83 1503.79 1397.03 1503.2 1404.86 1496.68L1651.5 1291.33C1656.18 1287.44 1659.12 1281.85 1659.69 1275.8L1702.46 820.271C1702.91 815.496 1701.86 810.7 1699.44 806.555L1497.69 459.788C1493.36 452.336 1485.22 447.935 1476.61 448.386L1196.42 463.07C1187.81 463.521 1180.18 468.749 1176.65 476.613L1012.25 842.569C1010.28 846.944 1009.73 851.824 1010.68 856.526L1100.84 1305.09C1102.03 1311.05 1105.54 1316.29 1110.6 1319.67L1377.36 1498.12Z" stroke="url(#paint2_linear_1_20)" stroke-width="4"/>
<path opacity="0.057971" d="M1327.07 1493.56C1335.23 1499.64 1346.4 1499.64 1354.56 1493.56L1610.06 1303.22C1614.94 1299.58 1618.18 1294.15 1619.07 1288.13L1685.22 839.737C1685.93 834.977 1685.12 830.117 1682.91 825.841L1500.7 472.37C1496.75 464.717 1488.87 459.909 1480.26 459.909L1201.37 459.909C1192.76 459.909 1184.88 464.717 1180.93 472.37L998.716 825.841C996.512 830.117 995.704 834.977 996.406 839.737L1062.56 1288.13C1063.45 1294.15 1066.69 1299.58 1071.58 1303.22L1327.07 1493.56Z" stroke="url(#paint3_linear_1_20)" stroke-width="4"/>
<path opacity="0.0724638" d="M1277.35 1487.54C1285.16 1494 1296.28 1494.58 1304.73 1488.97L1568.19 1313.99C1573.27 1310.62 1576.81 1305.36 1578.01 1299.39L1666.92 859.313C1667.88 854.582 1667.32 849.671 1665.33 845.274L1502.8 486.184C1499.25 478.351 1491.64 473.149 1483.05 472.699L1206.23 458.192C1197.65 457.742 1189.53 462.119 1185.18 469.538L986.007 809.672C983.568 813.837 982.501 818.663 982.957 823.468L1025.38 1270.42C1025.95 1276.49 1028.92 1282.09 1033.62 1285.97L1277.35 1487.54Z" stroke="url(#paint4_linear_1_20)" stroke-width="4"/>
<path opacity="0.0869565" d="M1228.25 1480.08C1235.71 1486.91 1246.75 1488.07 1255.46 1482.94L1525.99 1323.63C1531.25 1320.53 1535.06 1315.47 1536.59 1309.55L1647.56 878.941C1648.77 874.253 1648.46 869.303 1646.7 864.796L1503.93 501.169C1500.8 493.176 1493.47 487.597 1484.93 486.7L1210.93 457.901C1202.39 457.004 1194.06 460.937 1189.33 468.103L974.086 794.102C971.418 798.143 970.094 802.922 970.301 807.759L989.319 1252.03C989.58 1258.13 992.257 1263.88 996.761 1268.01L1228.25 1480.08Z" stroke="url(#paint5_linear_1_20)" stroke-width="4"/>
<path opacity="0.101449" d="M1179.86 1471.24C1186.94 1478.42 1197.87 1480.15 1206.82 1475.51L1483.49 1332.13C1488.92 1329.32 1493.01 1324.45 1494.85 1318.62L1627.14 898.564C1628.6 893.931 1628.55 888.955 1627.01 884.35L1504.04 517.26C1501.32 509.13 1494.3 503.19 1485.83 501.848L1215.38 459.013C1206.91 457.672 1198.4 461.152 1193.3 468.043L962.915 779.168C960.024 783.071 958.444 787.79 958.4 792.647L954.411 1233.02C954.356 1239.14 956.74 1245.03 961.035 1249.38L1179.86 1471.24Z" stroke="url(#paint6_linear_1_20)" stroke-width="4"/>
<path opacity="0.115942" d="M1132.24 1461.08C1138.93 1468.59 1149.71 1470.88 1158.87 1466.74L1440.78 1339.49C1446.36 1336.96 1450.71 1332.32 1452.85 1326.58L1605.66 918.123C1607.37 913.559 1607.59 908.57 1606.27 903.877L1503.08 534.391C1500.77 526.145 1494.08 519.861 1485.71 518.08L1219.52 461.5C1211.14 459.72 1202.47 462.738 1197.01 469.335L952.455 764.903C949.348 768.658 947.515 773.302 947.218 778.166L920.682 1213.46C920.309 1219.58 922.392 1225.59 926.468 1230.17L1132.24 1461.08Z" stroke="url(#paint7_linear_1_20)" stroke-width="4"/>
<path opacity="0.130435" d="M1085.45 1449.65C1091.74 1457.46 1102.35 1460.3 1111.69 1456.68L1397.9 1345.7C1403.62 1343.48 1408.22 1339.06 1410.67 1333.44L1583.15 937.562C1585.11 933.079 1585.58 928.091 1584.5 923.321L1500.99 552.492C1499.11 544.152 1492.76 537.542 1484.5 535.329L1223.26 465.33C1215.01 463.118 1206.2 465.668 1200.41 471.951L942.665 751.341C939.35 754.935 937.266 759.491 936.717 764.35L888.152 1193.43C887.462 1199.53 889.237 1205.65 893.083 1210.43L1085.45 1449.65Z" stroke="url(#paint8_linear_1_20)" stroke-width="4"/>
<path opacity="0.144928" d="M1039.57 1437C1045.43 1445.09 1055.84 1448.47 1065.34 1445.37L1354.93 1350.76C1360.77 1348.85 1365.61 1344.69 1368.35 1339.19L1559.61 956.824C1561.81 952.437 1562.54 947.462 1561.71 942.628L1497.73 571.493C1496.28 563.081 1490.29 556.164 1482.18 553.526L1226.56 470.471C1218.44 467.833 1209.53 469.908 1203.41 475.862L933.504 738.511C929.988 741.933 927.659 746.389 926.855 751.228L856.839 1172.99C855.832 1179.05 857.294 1185.27 860.899 1190.24L1039.57 1437Z" stroke="url(#paint9_linear_1_20)" stroke-width="4"/>
<path opacity="0.15942" d="M994.643 1423.2C1000.07 1431.55 1010.26 1435.46 1019.88 1432.88L1311.92 1354.69C1317.87 1353.1 1322.93 1349.19 1325.97 1343.84L1535.07 975.856C1537.5 971.576 1538.49 966.628 1537.91 961.741L1493.27 591.32C1492.25 582.858 1486.64 575.653 1478.68 572.599L1229.33 476.882C1221.37 473.828 1212.38 475.424 1205.96 481.03L924.928 726.441C921.22 729.679 918.649 734.021 917.593 738.829L826.754 1152.21C825.433 1158.22 826.577 1164.51 829.931 1169.68L994.643 1423.2Z" stroke="url(#paint10_linear_1_20)" stroke-width="4"/>
<path opacity="0.173913" d="M950.726 1408.31C955.708 1416.9 965.64 1421.32 975.357 1419.27L1268.94 1357.5C1274.97 1356.23 1280.24 1352.59 1283.57 1347.4L1509.53 994.602C1512.19 990.442 1513.45 985.536 1513.11 980.608L1487.57 611.898C1486.98 603.408 1481.75 595.937 1473.98 592.475L1231.51 484.524C1223.74 481.062 1214.69 482.176 1207.99 487.42L916.892 715.155C913.002 718.199 910.195 722.415 908.886 727.178L797.908 1131.17C796.274 1137.11 797.097 1143.47 800.191 1148.8L950.726 1408.31Z" stroke="url(#paint11_linear_1_20)" stroke-width="4"/>
<path opacity="0.188406" d="M907.87 1392.4C912.398 1401.2 922.049 1406.12 931.831 1404.61L1226.04 1359.19C1232.14 1358.24 1237.61 1354.89 1241.21 1349.87L1483.03 1013.01C1485.92 1008.98 1487.43 1004.13 1487.34 999.176L1480.59 633.15C1480.44 624.655 1475.61 616.938 1468.04 613.081L1233.05 493.35C1225.48 489.493 1216.4 490.123 1209.44 494.99L909.351 704.677C905.288 707.516 902.251 711.592 900.692 716.298L770.304 1109.93C768.362 1115.79 768.86 1122.19 771.685 1127.68L907.87 1392.4Z" stroke="url(#paint12_linear_1_20)" stroke-width="4"/>
<path opacity="0.202899" d="M866.121 1375.54C870.186 1384.52 879.532 1389.92 889.349 1388.95L1183.28 1359.78C1189.44 1359.17 1195.09 1356.1 1198.96 1351.27L1455.58 1031.03C1458.69 1027.15 1460.46 1022.37 1460.62 1017.39L1472.32 655C1472.59 646.522 1468.18 638.581 1460.83 634.34L1233.89 503.315C1226.54 499.073 1217.46 499.22 1210.25 503.696L902.259 695.024C898.034 697.65 894.773 701.574 892.966 706.209L743.944 1088.57C741.698 1094.34 741.868 1100.76 744.417 1106.4L866.121 1375.54Z" stroke="url(#paint13_linear_1_20)" stroke-width="4"/>
<path opacity="0.217391" d="M825.52 1357.79C829.115 1366.95 838.13 1372.8 847.954 1372.36L1140.72 1359.29C1146.91 1359.01 1152.73 1356.25 1156.86 1351.62L1427.22 1048.62C1430.54 1044.9 1432.56 1040.19 1432.98 1035.21L1462.73 677.37C1463.43 668.93 1459.43 660.788 1452.33 656.175L1233.97 514.366C1226.86 509.754 1217.8 509.418 1210.38 513.492L895.569 686.216C891.191 688.618 887.714 692.379 885.663 696.931L718.825 1067.16C716.278 1072.81 716.12 1079.25 718.386 1085.02L825.52 1357.79Z" stroke="url(#paint14_linear_1_20)" stroke-width="4"/>
<path opacity="0.231884" d="M786.103 1339.24C789.222 1348.53 797.885 1354.83 807.685 1354.92L1098.42 1357.73C1104.63 1357.79 1110.6 1355.34 1114.97 1350.94L1397.97 1065.72C1401.5 1062.17 1403.77 1057.55 1404.44 1052.59L1451.8 700.181C1452.92 691.801 1449.36 683.48 1442.52 678.51L1233.23 526.453C1226.39 521.483 1217.38 520.667 1209.76 524.327L889.232 678.266C884.714 680.435 881.029 684.021 878.737 688.477L694.938 1045.77C692.098 1051.29 691.611 1057.72 693.586 1063.61L786.103 1339.24Z" stroke="url(#paint15_linear_1_20)" stroke-width="4"/>
<path opacity="0.246377" d="M747.905 1319.96C750.543 1329.36 758.832 1336.07 768.579 1336.7L1056.43 1355.15C1062.63 1355.55 1068.73 1353.41 1073.34 1349.24L1367.88 1082.3C1371.6 1078.92 1374.12 1074.42 1375.04 1069.47L1439.52 723.353C1441.07 715.055 1437.95 706.577 1431.39 701.266L1231.64 539.519C1225.09 534.207 1216.14 532.915 1208.35 536.152L883.201 671.185C878.556 673.115 874.671 676.514 872.141 680.862L672.274 1024.46C669.147 1029.83 668.33 1036.25 670.01 1042.24L747.905 1319.96Z" stroke="url(#paint16_linear_1_20)" stroke-width="4"/>
<path opacity="0.26087" d="M710.952 1300.01C713.105 1309.5 721 1316.61 730.665 1317.76L1014.79 1351.55C1020.98 1352.29 1027.2 1350.49 1032.03 1346.55L1336.96 1098.3C1340.88 1095.12 1343.64 1090.73 1344.81 1085.82L1425.89 746.807C1427.85 738.613 1425.17 730.003 1418.91 724.365L1229.16 553.507C1222.89 547.869 1214.05 546.106 1206.11 548.912L877.428 664.984C872.667 666.666 868.591 669.867 865.83 674.095L650.817 1003.31C647.41 1008.52 646.265 1014.9 647.644 1020.97L710.952 1300.01Z" stroke="url(#paint17_linear_1_20)" stroke-width="4"/>
<path opacity="0.275362" d="M675.268 1279.48C676.935 1289.04 684.417 1296.52 693.971 1298.19L973.567 1346.98C979.715 1348.05 986.035 1346.58 991.077 1342.9L1305.27 1113.7C1309.36 1110.71 1312.36 1106.45 1313.78 1101.59L1410.9 770.466C1413.27 762.395 1411.04 753.676 1405.1 747.729L1225.72 568.357C1219.78 562.41 1211.06 560.184 1202.99 562.551L871.864 659.669C867 661.095 862.744 664.089 859.757 668.184L630.548 982.376C626.87 987.418 625.399 993.738 626.472 999.886L675.268 1279.48Z" stroke="url(#paint18_linear_1_20)" stroke-width="4"/>
<path opacity="0.289855" d="M640.872 1258.45C642.053 1268.04 649.103 1275.87 658.519 1278.05L932.801 1341.46C938.892 1342.87 945.294 1341.74 950.533 1338.33L1272.84 1128.44C1277.1 1125.66 1280.32 1121.55 1282 1116.74L1394.56 794.25C1397.32 786.324 1395.55 777.52 1389.93 771.281L1221.31 584.01C1215.7 577.772 1207.13 575.089 1198.95 577.012L866.461 655.243C861.508 656.408 857.081 659.184 853.873 663.134L611.446 961.731C607.505 966.585 605.71 972.834 606.474 979.039L640.872 1258.45Z" stroke="url(#paint19_linear_1_20)" stroke-width="4"/>
<path opacity="0.304348" d="M607.78 1236.98C608.475 1246.59 615.078 1254.74 624.326 1257.42L892.538 1335.03C898.554 1336.77 905.021 1335.98 910.443 1332.85L1239.7 1142.49C1244.12 1139.94 1247.57 1135.98 1249.5 1131.25L1376.86 818.082C1380.02 810.32 1378.7 801.455 1373.43 794.943L1215.89 600.403C1210.62 593.891 1202.22 590.762 1193.97 592.236L861.172 651.708C856.142 652.606 851.555 655.154 848.134 658.949L593.485 941.436C589.291 946.088 587.176 952.249 587.628 958.496L607.78 1236.98Z" stroke="url(#paint20_linear_1_20)" stroke-width="4"/>
<path opacity="0.318841" d="M576 1215.17C576.211 1224.76 582.351 1233.21 591.407 1236.37L852.821 1327.72C858.745 1329.79 865.257 1329.35 870.848 1326.5L1205.91 1155.83C1210.48 1153.5 1214.14 1149.71 1216.31 1145.06L1357.82 841.886C1361.36 834.307 1360.51 825.405 1355.59 818.639L1209.43 617.473C1204.52 610.706 1196.32 607.142 1188.02 608.164L855.946 649.062C850.855 649.689 846.119 652 842.492 655.628L576.634 921.551C572.198 925.988 569.767 932.046 569.905 938.319L576 1215.17Z" stroke="url(#paint21_linear_1_20)" stroke-width="4"/>
<path opacity="0.333333" d="M545.538 1193.07C545.269 1202.63 550.934 1211.35 559.77 1214.99L813.692 1319.57C819.504 1321.97 826.044 1321.88 831.788 1319.33L1171.51 1168.41C1176.21 1166.32 1180.08 1162.71 1182.49 1158.16L1337.46 865.585C1341.37 858.208 1340.97 849.294 1336.43 842.293L1201.91 635.154C1197.36 628.153 1189.38 624.165 1181.05 624.734L850.739 647.302C845.6 647.653 840.727 649.719 836.902 653.169L560.862 902.136C556.194 906.346 553.453 912.284 553.276 918.567L545.538 1193.07Z" stroke="url(#paint22_linear_1_20)" stroke-width="4"/>
<path opacity="0.347826" d="M516.396 1170.78C515.651 1180.27 520.829 1189.24 529.419 1193.34L775.188 1310.63C780.872 1313.34 787.42 1313.6 793.303 1311.36L1136.54 1180.22C1141.37 1178.37 1145.44 1174.95 1148.08 1170.51L1315.79 889.107C1320.06 881.95 1320.12 873.047 1315.95 865.832L1193.3 653.381C1189.13 646.166 1181.39 641.768 1173.06 641.883L845.501 646.421C840.329 646.492 835.332 648.305 831.318 651.567L546.134 883.248C541.246 887.219 538.2 893.021 537.707 899.299L516.396 1170.78Z" stroke="url(#paint23_linear_1_20)" stroke-width="4"/>
<path opacity="0.362319" d="M488.57 1148.37C487.355 1157.77 492.035 1166.96 500.356 1171.5L737.346 1300.93C742.883 1303.95 749.42 1304.57 755.426 1302.63L1101.04 1191.22C1105.99 1189.63 1110.25 1186.41 1113.13 1182.08L1292.84 912.378C1297.45 905.459 1297.97 896.591 1294.19 889.183L1183.58 672.089C1179.8 664.681 1172.32 659.887 1164.02 659.55L840.189 646.41C834.998 646.199 829.889 647.752 825.694 650.815L532.411 864.941C527.315 868.661 523.971 874.312 523.163 880.57L488.57 1148.37Z" stroke="url(#paint24_linear_1_20)" stroke-width="4"/>
<path opacity="0.376812" d="M462.052 1125.91C460.375 1135.2 464.548 1144.58 472.577 1149.55L700.197 1290.51C705.571 1293.84 712.079 1294.81 718.191 1293.2L1065.08 1201.39C1070.12 1200.06 1074.56 1197.05 1077.67 1192.86L1268.63 935.33C1273.57 928.665 1274.54 919.855 1271.17 912.276L1172.74 691.211C1169.37 683.632 1162.17 678.457 1153.91 677.67L834.755 647.258C829.561 646.763 824.354 648.049 819.987 650.904L519.651 847.267C514.359 850.727 510.725 856.211 509.602 862.433L462.052 1125.91Z" stroke="url(#paint25_linear_1_20)" stroke-width="4"/>
<path opacity="0.391304" d="M436.832 1103.48C434.7 1112.64 438.36 1122.17 446.073 1127.55L663.773 1279.43C668.968 1283.06 675.427 1284.38 681.628 1283.09L1028.69 1210.72C1033.82 1209.65 1038.44 1206.86 1041.76 1202.81L1243.19 957.893C1248.45 951.498 1249.87 942.77 1246.9 935.041L1160.78 710.682C1157.81 702.953 1150.92 697.414 1142.73 696.181L829.156 648.952C823.975 648.172 818.682 649.184 814.154 651.822L507.81 830.276C502.337 833.464 498.421 838.768 496.985 844.937L436.832 1103.48Z" stroke="url(#paint26_linear_1_20)" stroke-width="4"/>
<path opacity="0.405797" d="M412.892 1081.14C410.316 1090.15 413.457 1099.81 420.833 1105.58L628.102 1267.73C633.1 1271.64 639.492 1273.31 645.765 1272.35L991.935 1219.18C997.138 1218.38 1001.91 1215.82 1005.45 1211.93L1216.57 980.002C1222.13 973.892 1223.98 965.269 1221.43 957.412L1147.68 730.435C1145.13 722.578 1138.56 716.693 1130.47 715.019L823.349 651.476C818.195 650.409 812.831 651.143 808.152 653.555L496.842 814.013C491.201 816.921 487.012 822.03 485.267 828.132L412.892 1081.14Z" stroke="url(#paint27_linear_1_20)" stroke-width="4"/>
<path opacity="0.42029" d="M390.213 1058.98C387.204 1067.8 389.822 1077.57 396.841 1083.71L593.207 1255.46C597.994 1259.64 604.3 1261.66 610.627 1261.03L954.852 1226.76C960.114 1226.24 965.034 1223.92 968.785 1220.19L1188.78 1001.59C1194.63 995.783 1196.92 987.288 1194.79 979.325L1133.45 750.404C1131.32 742.442 1125.08 736.23 1117.12 734.122L817.292 654.811C812.18 653.459 806.759 653.909 801.94 656.086L486.699 798.522C480.904 801.141 476.452 806.041 474.4 812.06L390.213 1058.98Z" stroke="url(#paint28_linear_1_20)" stroke-width="4"/>
<path opacity="0.434783" d="M368.772 1037.05C365.341 1045.68 367.433 1055.52 374.077 1062.01L559.111 1242.65C563.67 1247.1 569.872 1249.46 576.237 1249.17L917.497 1233.45C922.804 1233.21 927.862 1231.13 931.813 1227.58L1159.89 1022.61C1166.01 1017.11 1168.72 1008.76 1167.01 1000.72L1118.08 770.525C1116.37 762.48 1110.5 755.96 1102.67 753.426L810.944 658.937C805.89 657.3 800.425 657.463 795.478 659.399L477.328 783.844C471.395 786.165 466.69 790.843 464.335 796.764L368.772 1037.05Z" stroke="url(#paint29_linear_1_20)" stroke-width="4"/>
<path opacity="0.449275" d="M348.54 1015.43C344.7 1023.84 346.267 1033.73 352.517 1040.54L525.834 1229.37C530.151 1234.07 536.228 1236.77 542.613 1236.82L879.921 1239.24C885.258 1239.28 890.443 1237.46 894.586 1234.1L1129.92 1042.99C1136.29 1037.81 1139.43 1029.64 1138.14 1021.53L1101.59 790.732C1100.3 782.627 1094.8 775.821 1087.14 772.869L804.265 663.833C799.284 661.914 793.792 661.786 788.728 663.471L468.678 770.015C462.621 772.031 457.674 776.475 455.022 782.282L348.54 1015.43Z" stroke="url(#paint30_linear_1_20)" stroke-width="4"/>
<path opacity="0.463768" d="M329.487 994.18C325.252 1002.35 326.293 1012.26 332.134 1019.37L493.39 1215.66C497.451 1220.6 503.387 1223.63 509.773 1224.02L842.176 1244.13C847.529 1244.46 852.827 1242.9 857.154 1239.73L1098.94 1062.67C1105.54 1057.84 1109.08 1049.85 1108.22 1041.71L1083.97 810.963C1083.12 802.822 1078 795.748 1070.53 792.391L797.218 669.474C792.327 667.274 786.821 666.853 781.652 668.283L460.694 757.068C454.529 758.774 449.352 762.97 446.407 768.65L329.487 994.18Z" stroke="url(#paint31_linear_1_20)" stroke-width="4"/>
<path opacity="0.478261" d="M311.578 973.364C306.963 981.275 307.481 991.17 312.898 998.556L461.794 1201.57C465.585 1206.74 471.361 1210.09 477.731 1210.82L804.312 1248.11C809.667 1248.72 815.066 1247.43 819.567 1244.47L1066.98 1081.62C1073.8 1077.13 1077.73 1069.36 1077.3 1061.21L1065.25 831.155C1064.82 823 1060.1 815.683 1052.85 811.93L789.766 675.834C784.98 673.358 779.475 672.641 774.214 673.809L453.32 745.035C447.062 746.424 441.667 750.362 438.437 755.899L311.578 973.364Z" stroke="url(#paint32_linear_1_20)" stroke-width="4"/>
<path opacity="0.492754" d="M294.775 953.04C289.796 960.676 289.796 970.531 294.775 978.167L431.055 1187.15C434.564 1192.53 440.163 1196.2 446.498 1197.27L766.381 1251.18C771.722 1252.08 777.209 1251.07 781.876 1248.32L1034.11 1099.78C1041.12 1095.64 1045.43 1088.11 1045.43 1079.96L1045.43 851.247C1045.43 843.101 1041.12 835.563 1034.11 831.429L781.876 682.886C777.209 680.138 771.722 679.124 766.381 680.025L446.498 733.942C440.163 735.01 434.564 738.678 431.055 744.059L294.775 953.04Z" stroke="url(#paint33_linear_1_20)" stroke-width="4"/>
<path opacity="0.507246" d="M279.037 933.267C273.711 940.61 273.198 950.398 277.728 958.258L401.182 1172.45C404.397 1178.03 409.801 1182 416.083 1183.41L728.434 1253.35C733.746 1254.54 739.307 1253.81 744.13 1251.28L1000.36 1117.1C1007.56 1113.33 1012.24 1106.04 1012.66 1097.93L1024.55 871.181C1024.97 863.066 1021.08 855.33 1014.32 850.828L773.514 690.6C768.982 687.585 763.527 686.274 758.12 686.902L440.17 723.812C433.775 724.555 427.984 727.943 424.204 733.154L279.037 933.267Z" stroke="url(#paint34_linear_1_20)" stroke-width="4"/>
<path opacity="0.521739" d="M264.321 914.097C258.664 921.132 257.646 930.825 261.716 938.882L372.179 1157.52C375.088 1163.28 380.282 1167.55 386.493 1169.29L690.521 1254.62C695.789 1256.1 701.411 1255.65 706.378 1253.36L965.816 1133.55C973.173 1130.15 978.2 1123.13 979.047 1115.07L1002.61 890.898C1003.46 882.838 999.999 874.927 993.508 870.074L764.649 698.946C760.267 695.669 754.861 694.062 749.401 694.413L434.276 714.666C427.838 715.08 421.87 718.179 417.827 723.206L264.321 914.097Z" stroke="url(#paint35_linear_1_20)" stroke-width="4"/>
<path opacity="0.536232" d="M250.58 895.583C244.611 902.294 243.095 911.866 246.698 920.093L344.048 1142.41C346.641 1148.33 351.607 1152.89 357.729 1154.96L652.691 1255C657.899 1256.76 663.569 1256.61 668.671 1254.55L930.518 1149.09C938.016 1146.07 943.378 1139.33 944.642 1131.35L979.646 910.342C980.911 902.359 977.892 894.298 971.695 889.11L755.253 707.891C751.036 704.36 745.693 702.457 740.193 702.528L428.756 706.52C422.291 706.603 416.16 709.402 411.864 714.233L250.58 895.583Z" stroke="url(#paint36_linear_1_20)" stroke-width="4"/>
<path opacity="0.550725" d="M237.765 877.771C231.503 884.145 229.5 893.57 232.628 901.94L316.789 1127.16C319.056 1133.23 323.779 1138.06 329.795 1140.47L614.993 1254.5C620.127 1256.55 625.83 1256.69 631.055 1254.88L894.533 1163.68C902.15 1161.04 907.831 1154.61 909.507 1146.72L955.688 929.462C957.363 921.577 954.79 913.391 948.903 907.884L745.299 717.402C741.261 713.624 735.997 711.427 730.472 711.214L423.55 699.386C417.076 699.136 410.796 701.629 406.256 706.251L237.765 877.771Z" stroke="url(#paint37_linear_1_20)" stroke-width="4"/>
<path opacity="0.565217" d="M225.825 860.707C219.29 866.731 216.811 875.982 219.458 884.468L290.397 1111.84C292.331 1118.03 296.794 1123.13 302.686 1125.85L577.475 1253.13C582.52 1255.47 588.241 1255.9 593.579 1254.35L857.921 1177.29C865.638 1175.04 871.621 1168.93 873.701 1161.16L930.763 948.204C932.844 940.439 930.72 932.153 925.162 926.346L734.761 727.443C730.917 723.427 725.747 720.939 720.21 720.441L418.596 693.273C412.129 692.691 405.717 694.869 400.943 699.27L225.825 860.707Z" stroke="url(#paint38_linear_1_20)" stroke-width="4"/>
<path opacity="0.57971" d="M214.706 844.431C207.917 850.094 204.976 859.148 207.139 867.72L264.866 1096.47C266.459 1102.78 270.649 1108.12 276.4 1111.17L540.185 1250.92C545.125 1253.54 550.849 1254.27 556.288 1252.97L820.747 1189.9C828.543 1188.04 834.809 1182.26 837.286 1174.64L904.907 966.52C907.384 958.897 905.714 950.535 900.5 944.448L723.618 737.981C719.98 733.735 714.921 730.96 709.386 730.173L413.834 688.187C407.391 687.272 400.862 689.129 395.866 693.298L214.706 844.431Z" stroke="url(#paint39_linear_1_20)" stroke-width="4"/>
<path opacity="0.594203" d="M204.353 828.981C197.331 834.272 193.941 843.104 195.618 851.735L240.189 1081.12C241.433 1087.52 245.336 1093.09 250.928 1096.45L503.166 1247.88C507.987 1250.77 513.7 1251.8 519.227 1250.77L783.072 1201.49C790.928 1200.03 797.459 1194.59 800.322 1187.13L878.156 984.363C881.019 976.903 879.805 968.49 874.95 962.144L711.847 748.977C708.43 744.512 703.496 741.453 697.978 740.378L409.203 684.131C402.801 682.884 396.171 684.413 390.963 688.339L204.353 828.981Z" stroke="url(#paint40_linear_1_20)" stroke-width="4"/>
<path opacity="0.608696" d="M194.709 814.39C187.476 819.301 183.653 827.889 184.843 836.55L216.353 1065.82C217.243 1072.3 220.846 1078.09 226.263 1081.75L466.464 1244.03C471.15 1247.2 476.838 1248.52 482.441 1247.76L744.964 1212.04C752.858 1210.97 759.634 1205.88 762.875 1198.6L850.547 1001.69C853.787 994.412 853.03 985.975 848.546 979.39L699.43 760.395C696.248 755.721 691.455 752.383 685.967 751.019L404.642 681.101C398.298 679.525 391.583 680.722 386.175 684.394L194.709 814.39Z" stroke="url(#paint41_linear_1_20)" stroke-width="4"/>
<path opacity="0.623188" d="M185.717 800.69C178.293 805.212 174.053 813.533 174.758 822.198L193.344 1050.63C193.876 1057.16 197.167 1063.15 202.392 1067.1L430.121 1239.4C434.658 1242.83 440.305 1244.46 445.972 1243.97L706.487 1221.53C714.399 1220.85 721.401 1216.13 725.006 1209.06L822.121 1018.46C825.726 1011.38 825.426 1002.95 821.327 996.145L686.352 772.196C683.416 767.324 678.778 763.713 673.336 762.061L400.092 679.094C393.823 677.191 387.039 678.051 381.444 681.46L185.717 800.69Z" stroke="url(#paint42_linear_1_20)" stroke-width="4"/>
<path opacity="0.637681" d="M177.315 787.906C169.723 792.032 165.084 800.067 165.306 808.706L171.148 1035.57C171.317 1042.14 174.284 1048.32 179.301 1052.55L394.179 1234C398.551 1237.69 404.143 1239.62 409.861 1239.41L667.706 1229.96C675.617 1229.67 682.823 1225.33 686.781 1218.47L792.921 1034.63C796.879 1027.78 797.033 1019.37 793.329 1012.37L672.598 784.342C669.92 779.284 665.453 775.407 660.07 773.467L395.492 678.101C389.315 675.874 382.48 676.395 376.71 679.53L177.315 787.906Z" stroke="url(#paint43_linear_1_20)" stroke-width="4"/>
<path opacity="0.652174" d="M169.445 776.061C161.705 779.786 156.687 787.514 156.431 796.1L149.745 1020.71C149.549 1027.29 152.182 1033.64 156.976 1038.15L358.676 1227.88C362.87 1231.83 368.39 1234.05 374.147 1234.13L628.686 1237.31C636.576 1237.41 643.966 1233.46 648.264 1226.84L762.991 1050.17C767.288 1043.56 767.894 1035.2 764.594 1028.03L658.155 796.793C655.747 791.563 651.466 787.426 646.157 785.2L390.786 678.11C384.716 675.564 377.846 675.741 371.915 678.596L169.445 776.061Z" stroke="url(#paint44_linear_1_20)" stroke-width="4"/>
<path opacity="0.666667" d="M162.045 765.174C154.18 768.494 148.801 775.897 148.074 784.403L129.116 1006.07C128.553 1012.64 130.841 1019.14 135.398 1023.91L323.65 1221.06C327.651 1225.25 333.086 1227.77 338.869 1228.13L589.495 1243.59C597.344 1244.07 604.896 1240.51 609.518 1234.15L732.376 1065.05C736.999 1058.69 738.05 1050.41 735.164 1043.09L643.014 809.51C640.888 804.121 636.806 799.733 631.585 797.222L385.915 679.105C379.969 676.246 373.081 676.079 367.003 678.645L162.045 765.174Z" stroke="url(#paint45_linear_1_20)" stroke-width="4"/>
<path opacity="0.681159" d="M155.053 755.26C147.085 758.171 141.367 765.232 140.176 773.631L109.237 991.694C108.308 998.241 110.242 1004.87 114.547 1009.89L289.137 1213.57C292.931 1218 298.266 1220.82 304.06 1221.46L550.195 1248.8C557.984 1249.66 565.677 1246.5 570.609 1240.41L701.125 1079.24C706.056 1073.15 707.548 1064.97 705.082 1057.53L627.168 822.454C625.334 816.92 621.466 812.289 616.347 809.498L380.823 681.069C375.017 677.903 368.129 677.389 361.918 679.659L155.053 755.26Z" stroke="url(#paint46_linear_1_20)" stroke-width="4"/>
<path opacity="0.695652" d="M148.407 746.33C140.359 748.831 134.323 755.535 132.677 763.8L90.0846 977.621C88.7896 984.123 90.3627 990.867 94.4007 996.124L255.169 1205.44C258.744 1210.1 263.962 1213.21 269.756 1214.14L510.852 1252.94C518.561 1254.18 526.373 1251.42 531.598 1245.62L669.284 1092.7C674.509 1086.9 676.433 1078.84 674.393 1071.31L610.611 835.585C609.078 829.92 605.438 825.056 600.436 821.987L375.457 683.979C369.807 680.513 362.935 679.653 356.604 681.621L148.407 746.33Z" stroke="url(#paint47_linear_1_20)" stroke-width="4"/>
<path opacity="0.710145" d="M142.046 738.392C133.939 740.483 127.608 746.814 125.518 754.921L71.6329 963.886C69.9736 970.321 71.1785 977.159 74.9374 982.639L221.78 1196.72C225.121 1201.59 230.209 1204.99 235.989 1206.21L471.529 1256.02C479.14 1257.63 487.049 1255.28 492.55 1249.78L636.904 1105.42C642.405 1099.92 644.752 1092.01 643.143 1084.4L593.34 848.863C592.118 843.084 588.718 837.996 583.847 834.654L369.764 687.812C364.284 684.053 357.446 682.848 351.011 684.508L142.046 738.392Z" stroke="url(#paint48_linear_1_20)" stroke-width="4"/>
<path opacity="0.724638" d="M135.908 731.45C127.764 733.13 121.161 739.076 118.638 746.999L53.8535 950.522C51.8329 956.869 52.6637 963.781 56.1309 969.469L188.996 1187.44C192.092 1192.52 197.035 1196.2 202.787 1197.71L432.287 1258.05C439.783 1260.02 447.767 1258.09 453.526 1252.9L604.034 1117.38C609.793 1112.2 612.554 1104.46 611.377 1096.8L575.353 862.25C574.45 856.371 571.305 851.071 566.578 847.461L363.693 692.539C358.398 688.497 351.611 686.948 345.087 688.294L135.908 731.45Z" stroke="url(#paint49_linear_1_20)" stroke-width="4"/>
<path opacity="0.73913" d="M129.931 725.504C121.771 726.775 114.92 732.323 111.98 740.04L36.7174 937.559C34.3396 943.799 34.7914 950.765 37.9553 956.646L156.847 1177.63C159.684 1182.9 164.467 1186.86 170.178 1188.67L393.189 1259.06C400.551 1261.39 408.587 1259.86 414.587 1255L570.725 1128.56C576.724 1123.71 579.886 1116.16 579.144 1108.48L556.653 875.704C556.077 869.743 553.199 864.242 548.63 860.37L357.194 698.132C352.099 693.814 345.38 691.924 338.782 692.952L129.931 725.504Z" stroke="url(#paint50_linear_1_20)" stroke-width="4"/>
<path opacity="0.753623" d="M124.054 720.549C115.901 721.415 108.826 726.556 105.483 734.042L20.1937 925.028C17.464 931.141 17.5329 938.14 20.3827 944.197L125.355 1167.34C127.922 1172.8 132.531 1177.03 138.187 1179.12L354.293 1259.06C361.504 1261.73 369.571 1260.62 375.791 1256.1L537.028 1138.95C543.248 1134.43 546.799 1127.1 546.49 1119.42L537.242 889.19C537 883.163 534.4 877.473 530.003 873.345L350.221 704.556C345.341 699.973 338.706 697.745 332.049 698.452L124.054 720.549Z" stroke="url(#paint51_linear_1_20)" stroke-width="4"/>
<path opacity="0.768116" d="M118.219 716.579C110.093 717.044 102.819 721.768 99.0893 729.002L4.25045 912.956C1.17505 918.921 0.858548 925.932 3.38394 932.15L94.5435 1156.6C96.8295 1162.23 101.249 1166.73 106.838 1169.11L315.656 1258.07C322.7 1261.08 330.776 1260.37 337.198 1256.2L502.994 1148.53C509.416 1144.36 513.341 1137.27 513.465 1129.62L517.125 902.666C517.223 896.592 514.914 890.726 510.702 886.348L342.73 711.776C338.077 706.94 331.543 704.377 324.843 704.76L118.219 716.579Z" stroke="url(#paint52_linear_1_20)" stroke-width="4"/>
<path opacity="0.782609" d="M112.365 713.584C104.288 713.652 96.8392 717.953 92.7411 724.914L-11.1456 901.367C-14.5592 907.165 -15.2628 914.167 -13.0711 920.528L64.432 1145.47C66.4256 1151.26 70.643 1156.01 76.1508 1158.68L277.335 1256.13C284.197 1259.45 292.259 1259.16 298.862 1255.35L468.675 1157.31C475.278 1153.49 479.562 1146.66 480.115 1139.05L496.311 916.098C496.754 909.994 494.747 903.965 490.733 899.345L334.678 719.755C330.265 714.676 323.85 711.784 317.122 711.841L112.365 713.584Z" stroke="url(#paint53_linear_1_20)" stroke-width="4"/>
<path opacity="0.797101" d="M106.437 711.548C98.4282 711.227 90.83 715.098 86.3823 721.766L-26.0286 890.284C-29.7718 895.896 -30.8629 902.867 -29.0132 909.354L35.0377 1133.98C36.7286 1139.91 40.7299 1144.91 46.1434 1147.86L239.384 1253.26C246.047 1256.89 254.075 1257 260.838 1253.56L434.122 1165.26C440.885 1161.82 445.512 1155.26 446.489 1147.73L474.808 929.447C475.601 923.332 473.906 917.154 470.102 912.301L326.027 728.452C321.866 723.143 315.584 719.928 308.844 719.658L106.437 711.548Z" stroke="url(#paint54_linear_1_20)" stroke-width="4"/>
<path opacity="0.811594" d="M100.377 710.454C92.4563 709.751 84.7346 713.189 79.9572 719.545L-40.4337 879.729C-44.4968 885.135 -45.9748 892.055 -44.4747 898.649L6.37527 1122.17C7.75371 1128.23 11.5252 1133.47 16.8313 1136.71L201.853 1249.48C208.305 1253.42 216.276 1253.93 223.179 1250.86L399.384 1172.41C406.287 1169.33 411.239 1163.06 412.634 1155.64L452.627 942.677C453.774 936.57 452.401 930.258 448.82 925.18L316.738 737.827C312.841 732.3 306.71 728.768 299.973 728.17L100.377 710.454Z" stroke="url(#paint55_linear_1_20)" stroke-width="4"/>
<path opacity="0.826087" d="M94.1307 710.282C86.3177 709.205 78.4981 712.207 73.4122 718.235L-54.3967 869.719C-58.769 874.901 -60.6319 881.748 -59.4879 888.431L-21.543 1110.09C-20.4862 1116.26 -16.9575 1121.74 -11.7719 1125.25L164.792 1244.85C171.018 1249.07 178.913 1249.98 185.934 1247.28L364.513 1178.73C371.534 1176.04 376.793 1170.08 378.598 1162.78L429.782 955.754C431.285 949.674 430.243 943.244 426.898 937.949L306.778 747.835C303.157 742.103 297.19 738.261 290.474 737.335L94.1307 710.282Z" stroke="url(#paint56_linear_1_20)" stroke-width="4"/>
<path opacity="0.84058" d="M87.6462 711.007C79.9593 709.567 72.0671 712.131 66.695 717.815L-67.9541 860.27C-72.6236 865.21 -74.8686 871.963 -74.0863 878.716L-48.7077 1097.78C-47.9811 1104.05 -44.708 1109.75 -39.6557 1113.54L128.247 1239.4C134.235 1243.89 142.033 1245.18 149.15 1242.87L329.558 1184.25C336.675 1181.94 342.222 1176.31 344.428 1169.16L406.287 968.644C408.148 962.61 407.447 956.077 404.348 950.575L296.116 758.43C292.78 752.507 286.994 748.363 280.313 747.111L87.6462 711.007Z" stroke="url(#paint57_linear_1_20)" stroke-width="4"/>
<path opacity="0.855072" d="M80.8727 712.604C73.3297 710.81 65.3906 712.938 59.755 718.263L-81.1426 851.397C-86.0966 856.078 -88.7193 862.715 -88.3034 869.518L-75.1117 1085.29C-74.7232 1091.65 -71.7181 1097.56 -66.8119 1101.61L92.2622 1233.16C98.0002 1237.91 105.68 1239.58 112.872 1237.65L294.567 1188.97C301.759 1187.04 307.573 1181.75 310.17 1174.77L382.159 981.313C384.379 975.346 384.027 968.726 381.186 963.028L284.723 769.566C281.681 763.466 276.092 759.03 269.461 757.453L80.8727 712.604Z" stroke="url(#paint58_linear_1_20)" stroke-width="4"/>
<path opacity="0.869565" d="M73.7617 715.042C66.3798 712.907 58.4189 714.599 52.5438 719.552L-93.9996 843.11C-99.224 847.515 -102.219 854.015 -102.173 860.849L-100.75 1072.67C-100.707 1079.09 -97.9823 1085.2 -93.2346 1089.52L56.8779 1226.18C62.3551 1231.17 69.8986 1233.21 77.1437 1231.67L259.587 1192.89C266.832 1191.35 272.892 1186.42 275.868 1179.64L357.416 993.73C359.995 987.85 359.999 981.16 357.427 975.277L272.573 781.194C269.836 774.932 264.456 770.213 257.891 768.313L73.7617 715.042Z" stroke="url(#paint59_linear_1_20)" stroke-width="4"/>
<path opacity="0.884058" d="M66.2671 718.29C59.0626 715.825 51.1049 717.085 45.0148 721.656L-106.562 835.419C-112.042 839.532 -115.403 845.874 -115.73 852.718L-125.622 1059.94C-125.931 1066.41 -123.498 1072.71 -118.921 1077.3L22.1324 1218.51C27.3387 1223.72 34.7269 1226.13 42.0033 1224.98L224.665 1196.04C231.942 1194.89 238.226 1190.32 241.567 1183.76L332.078 1005.86C335.015 1000.09 335.382 993.349 333.089 987.292L259.645 793.265C257.219 786.857 252.063 781.864 245.58 779.646L66.2671 718.29Z" stroke="url(#paint60_linear_1_20)" stroke-width="4"/>
<path opacity="0.898551" d="M58.3452 722.312C51.3335 719.531 43.4037 720.364 37.1236 724.543L-118.868 828.331C-124.588 832.137 -128.307 838.3 -129.008 845.134L-149.727 1047.17C-150.393 1053.67 -148.264 1060.15 -143.87 1064.99L-11.9397 1210.19C-7.01316 1215.62 0.201669 1218.37 7.4875 1217.6L189.846 1198.43C197.132 1197.67 203.617 1193.48 207.309 1187.15L306.166 1017.69C309.458 1012.04 310.195 1005.27 308.191 999.046L245.919 805.728C243.812 799.189 238.893 793.933 232.507 791.4L58.3452 722.312Z" stroke="url(#paint61_linear_1_20)" stroke-width="4"/>
<path opacity="0.913043" d="M49.9549 727.072C43.1508 723.988 35.273 724.401 28.8285 728.179L-130.955 821.851C-136.897 825.334 -140.965 831.298 -142.041 838.102L-173.068 1034.4C-174.097 1040.91 -172.282 1047.55 -168.083 1052.64L-45.3064 1201.27C-40.6679 1206.89 -33.6436 1209.98 -26.37 1209.6L155.173 1200.08C162.446 1199.7 169.109 1195.9 173.136 1189.83L279.703 1029.17C283.347 1023.68 284.459 1016.88 282.754 1010.51L231.378 818.531C229.598 811.877 224.928 806.372 218.654 803.528L49.9549 727.072Z" stroke="url(#paint62_linear_1_20)" stroke-width="4"/>
<path opacity="0.927536" d="M41.0579 732.53C34.4751 729.159 26.6728 729.159 20.09 732.53L-142.859 815.98C-149.006 819.128 -153.414 824.872 -154.863 831.625L-195.651 1021.66C-197.048 1028.17 -195.557 1034.96 -191.564 1040.29L-77.9394 1191.81C-73.5958 1197.6 -66.7785 1201.01 -59.5387 1201.01L120.687 1201.01C127.926 1201.01 134.744 1197.6 139.087 1191.81L252.712 1040.29C256.705 1034.96 258.196 1028.17 256.799 1021.66L216.011 831.625C214.562 824.872 210.154 819.128 204.007 815.98L41.0579 732.53Z" stroke="url(#paint63_linear_1_20)" stroke-width="4"/>
<path opacity="0.942029" d="M31.6185 738.646C25.2698 735.003 17.566 734.599 10.8712 737.559L-154.618 810.718C-160.952 813.518 -165.687 819.023 -167.508 825.705L-217.485 1009.01C-219.252 1015.49 -218.096 1022.42 -214.321 1027.98L-109.814 1181.84C-105.771 1187.79 -99.1763 1191.51 -91.9913 1191.89L86.4273 1201.24C93.6123 1201.61 100.559 1198.61 105.202 1193.11L225.219 1051.02C229.555 1045.88 231.429 1039.11 230.349 1032.48L199.807 844.955C198.694 838.12 194.56 832.15 188.554 828.703L31.6185 738.646Z" stroke="url(#paint64_linear_1_20)" stroke-width="4"/>
<path opacity="0.956522" d="M21.6041 745.376C15.5012 741.477 7.9182 740.68 1.13793 743.225L-166.267 806.065C-172.768 808.505 -177.818 813.752 -180.009 820.341L-238.579 996.478C-240.72 1002.92 -239.908 1009.97 -236.361 1015.76L-140.907 1171.43C-137.171 1177.52 -130.813 1181.53 -123.704 1182.28L52.4329 1200.79C59.542 1201.54 66.5945 1198.94 71.5164 1193.76L197.25 1061.33C201.923 1056.41 204.184 1049.68 203.428 1042.93L182.76 858.469C181.986 851.569 178.137 845.387 172.286 841.648L21.6041 745.376Z" stroke="url(#paint65_linear_1_20)" stroke-width="4"/>
<path opacity="0.971014" d="M10.9852 752.677C5.13876 748.538 -2.30209 747.359 -9.14123 749.489L-177.843 802.016C-184.49 804.085 -189.842 809.055 -192.399 815.531L-258.946 984.112C-261.462 990.488 -261.004 997.654 -257.696 1003.66L-171.202 1160.63C-167.775 1166.85 -161.668 1171.13 -154.656 1172.24L18.7389 1199.71C25.7518 1200.82 32.8845 1198.63 38.0651 1193.77L168.833 1071.21C173.834 1066.53 176.484 1059.85 176.061 1053.01L164.865 872.116C164.435 865.167 160.881 858.787 155.198 854.764L10.9852 752.677Z" stroke="url(#paint66_linear_1_20)" stroke-width="4"/>
<path opacity="0.985507" d="M-0.264741 760.501C-5.84494 756.14 -13.123 754.593 -19.9945 756.307L-189.379 798.564C-196.153 800.254 -201.792 804.928 -204.709 811.27L-278.6 971.952C-281.494 978.244 -281.398 985.505 -278.34 991.719L-200.682 1149.49C-197.568 1155.81 -191.725 1160.36 -184.829 1161.83L-14.6208 1198.01C-7.7242 1199.47 -0.536235 1197.69 4.88131 1193.18L139.995 1080.64C145.316 1076.21 148.357 1069.61 148.273 1062.69L146.125 885.842C146.04 878.862 142.789 872.298 137.289 867.999L-0.264741 760.501Z" stroke="url(#paint67_linear_1_20)" stroke-width="4"/>
<path d="M-12.1695 768.803C-17.4749 764.237 -24.5706 762.336 -31.448 763.637L-200.912 795.702C-207.789 797.003 -213.7 801.365 -216.971 807.553L-297.561 960.037C-300.831 966.226 -301.106 973.567 -298.307 979.982L-229.337 1138.06C-226.538 1144.48 -220.97 1149.27 -214.209 1151.08L-47.6154 1195.72C-40.8545 1197.53 -33.6365 1196.17 -28.0047 1192.01L110.765 1089.59C116.396 1085.44 119.829 1078.94 120.091 1071.95L126.54 899.597C126.801 892.602 123.864 885.869 118.558 881.303L-12.1695 768.803Z" stroke="url(#paint68_linear_1_20)" stroke-width="4"/>
</g>
<defs>
<linearGradient id="paint0_linear_1_20" x1="1494.95" y1="1513.24" x2="1311.06" y2="352.222" gradientUnits="userSpaceOnUse">
<stop stop-color="#4571E1"/>
<stop offset="1" stop-color="#00F0FF"/>
</linearGradient>
<linearGradient id="paint1_linear_1_20" x1="1443.18" y1="1512.5" x2="1321.4" y2="353.766" gradientUnits="userSpaceOnUse">
<stop stop-color="#4571E1"/>
<stop offset="1" stop-color="#00F0FF"/>
</linearGradient>
<linearGradient id="paint2_linear_1_20" x1="1391.78" y1="1510.17" x2="1331.34" y2="357.015" gradientUnits="userSpaceOnUse">
<stop stop-color="#4571E1"/>
<stop offset="1" stop-color="#00F0FF"/>
</linearGradient>
<linearGradient id="paint3_linear_1_20" x1="1340.82" y1="1506.29" x2="1340.82" y2="361.93" gradientUnits="userSpaceOnUse">
<stop stop-color="#4571E1"/>
<stop offset="1" stop-color="#00F0FF"/>
</linearGradient>
<linearGradient id="paint4_linear_1_20" x1="1290.38" y1="1500.9" x2="1349.72" y2="368.471" gradientUnits="userSpaceOnUse">
<stop stop-color="#4571E1"/>
<stop offset="1" stop-color="#00F0FF"/>
</linearGradient>
<linearGradient id="paint5_linear_1_20" x1="1240.54" y1="1494.05" x2="1357.99" y2="376.59" gradientUnits="userSpaceOnUse">
<stop stop-color="#4571E1"/>
<stop offset="1" stop-color="#00F0FF"/>
</linearGradient>
<linearGradient id="paint6_linear_1_20" x1="1191.38" y1="1485.77" x2="1365.52" y2="386.237" gradientUnits="userSpaceOnUse">
<stop stop-color="#4571E1"/>
<stop offset="1" stop-color="#00F0FF"/>
</linearGradient>
<linearGradient id="paint7_linear_1_20" x1="1142.96" y1="1476.12" x2="1372.26" y2="397.358" gradientUnits="userSpaceOnUse">
<stop stop-color="#4571E1"/>
<stop offset="1" stop-color="#00F0FF"/>
</linearGradient>
<linearGradient id="paint8_linear_1_20" x1="1095.36" y1="1465.15" x2="1378.12" y2="409.893" gradientUnits="userSpaceOnUse">
<stop stop-color="#4571E1"/>
<stop offset="1" stop-color="#00F0FF"/>
</linearGradient>
<linearGradient id="paint9_linear_1_20" x1="1048.64" y1="1452.93" x2="1383.03" y2="423.781" gradientUnits="userSpaceOnUse">
<stop stop-color="#4571E1"/>
<stop offset="1" stop-color="#00F0FF"/>
</linearGradient>
<linearGradient id="paint10_linear_1_20" x1="1002.86" y1="1439.51" x2="1386.93" y2="438.957" gradientUnits="userSpaceOnUse">
<stop stop-color="#4571E1"/>
<stop offset="1" stop-color="#00F0FF"/>
</linearGradient>
<linearGradient id="paint11_linear_1_20" x1="958.071" y1="1424.95" x2="1389.77" y2="455.351" gradientUnits="userSpaceOnUse">
<stop stop-color="#4571E1"/>
<stop offset="1" stop-color="#00F0FF"/>
</linearGradient>
<linearGradient id="paint12_linear_1_20" x1="914.333" y1="1409.33" x2="1391.47" y2="472.894" gradientUnits="userSpaceOnUse">
<stop stop-color="#4571E1"/>
<stop offset="1" stop-color="#00F0FF"/>
</linearGradient>
<linearGradient id="paint13_linear_1_20" x1="871.692" y1="1392.71" x2="1392" y2="491.511" gradientUnits="userSpaceOnUse">
<stop stop-color="#4571E1"/>
<stop offset="1" stop-color="#00F0FF"/>
</linearGradient>
<linearGradient id="paint14_linear_1_20" x1="830.191" y1="1375.16" x2="1391.3" y2="511.127" gradientUnits="userSpaceOnUse">
<stop stop-color="#4571E1"/>
<stop offset="1" stop-color="#00F0FF"/>
</linearGradient>
<linearGradient id="paint15_linear_1_20" x1="789.87" y1="1356.75" x2="1389.33" y2="531.663" gradientUnits="userSpaceOnUse">
<stop stop-color="#4571E1"/>
<stop offset="1" stop-color="#00F0FF"/>
</linearGradient>
<linearGradient id="paint16_linear_1_20" x1="750.765" y1="1337.56" x2="1386.06" y2="553.04" gradientUnits="userSpaceOnUse">
<stop stop-color="#4571E1"/>
<stop offset="1" stop-color="#00F0FF"/>
</linearGradient>
<linearGradient id="paint17_linear_1_20" x1="712.906" y1="1317.66" x2="1381.44" y2="575.177" gradientUnits="userSpaceOnUse">
<stop stop-color="#4571E1"/>
<stop offset="1" stop-color="#00F0FF"/>
</linearGradient>
<linearGradient id="paint18_linear_1_20" x1="676.319" y1="1297.13" x2="1375.46" y2="597.992" gradientUnits="userSpaceOnUse">
<stop stop-color="#4571E1"/>
<stop offset="1" stop-color="#00F0FF"/>
</linearGradient>
<linearGradient id="paint19_linear_1_20" x1="641.025" y1="1276.05" x2="1368.09" y2="621.401" gradientUnits="userSpaceOnUse">
<stop stop-color="#4571E1"/>
<stop offset="1" stop-color="#00F0FF"/>
</linearGradient>
<linearGradient id="paint20_linear_1_20" x1="607.042" y1="1254.5" x2="1359.31" y2="645.323" gradientUnits="userSpaceOnUse">
<stop stop-color="#4571E1"/>
<stop offset="1" stop-color="#00F0FF"/>
</linearGradient>
<linearGradient id="paint21_linear_1_20" x1="574.382" y1="1232.54" x2="1349.11" y2="669.672" gradientUnits="userSpaceOnUse">
<stop stop-color="#4571E1"/>
<stop offset="1" stop-color="#00F0FF"/>
</linearGradient>
<linearGradient id="paint22_linear_1_20" x1="543.052" y1="1210.27" x2="1337.47" y2="694.365" gradientUnits="userSpaceOnUse">
<stop stop-color="#4571E1"/>
<stop offset="1" stop-color="#00F0FF"/>
</linearGradient>
<linearGradient id="paint23_linear_1_20" x1="513.058" y1="1187.75" x2="1324.4" y2="719.319" gradientUnits="userSpaceOnUse">
<stop stop-color="#4571E1"/>
<stop offset="1" stop-color="#00F0FF"/>
</linearGradient>
<linearGradient id="paint24_linear_1_20" x1="484.397" y1="1165.07" x2="1309.9" y2="744.451" gradientUnits="userSpaceOnUse">
<stop stop-color="#4571E1"/>
<stop offset="1" stop-color="#00F0FF"/>
</linearGradient>
<linearGradient id="paint25_linear_1_20" x1="457.063" y1="1142.29" x2="1293.97" y2="769.679" gradientUnits="userSpaceOnUse">
<stop stop-color="#4571E1"/>
<stop offset="1" stop-color="#00F0FF"/>
</linearGradient>
<linearGradient id="paint26_linear_1_20" x1="431.048" y1="1119.51" x2="1276.63" y2="794.921" gradientUnits="userSpaceOnUse">
<stop stop-color="#4571E1"/>
<stop offset="1" stop-color="#00F0FF"/>
</linearGradient>
<linearGradient id="paint27_linear_1_20" x1="406.338" y1="1096.78" x2="1257.88" y2="820.1" gradientUnits="userSpaceOnUse">
<stop stop-color="#4571E1"/>
<stop offset="1" stop-color="#00F0FF"/>
</linearGradient>
<linearGradient id="paint28_linear_1_20" x1="382.914" y1="1074.19" x2="1237.75" y2="845.137" gradientUnits="userSpaceOnUse">
<stop stop-color="#4571E1"/>
<stop offset="1" stop-color="#00F0FF"/>
</linearGradient>
<linearGradient id="paint29_linear_1_20" x1="360.755" y1="1051.8" x2="1216.25" y2="869.955" gradientUnits="userSpaceOnUse">
<stop stop-color="#4571E1"/>
<stop offset="1" stop-color="#00F0FF"/>
</linearGradient>
<linearGradient id="paint30_linear_1_20" x1="339.834" y1="1029.68" x2="1193.43" y2="894.481" gradientUnits="userSpaceOnUse">
<stop stop-color="#4571E1"/>
<stop offset="1" stop-color="#00F0FF"/>
</linearGradient>
<linearGradient id="paint31_linear_1_20" x1="320.124" y1="1007.9" x2="1169.31" y2="918.643" gradientUnits="userSpaceOnUse">
<stop stop-color="#4571E1"/>
<stop offset="1" stop-color="#00F0FF"/>
</linearGradient>
<linearGradient id="paint32_linear_1_20" x1="301.589" y1="986.518" x2="1143.92" y2="942.373" gradientUnits="userSpaceOnUse">
<stop stop-color="#4571E1"/>
<stop offset="1" stop-color="#00F0FF"/>
</linearGradient>
<linearGradient id="paint33_linear_1_20" x1="284.195" y1="965.604" x2="1117.31" y2="965.604" gradientUnits="userSpaceOnUse">
<stop stop-color="#4571E1"/>
<stop offset="1" stop-color="#00F0FF"/>
</linearGradient>
<linearGradient id="paint34_linear_1_20" x1="267.901" y1="945.213" x2="1089.51" y2="988.271" gradientUnits="userSpaceOnUse">
<stop stop-color="#4571E1"/>
<stop offset="1" stop-color="#00F0FF"/>
</linearGradient>
<linearGradient id="paint35_linear_1_20" x1="252.665" y1="925.401" x2="1060.58" y2="1010.32" gradientUnits="userSpaceOnUse">
<stop stop-color="#4571E1"/>
<stop offset="1" stop-color="#00F0FF"/>
</linearGradient>
<linearGradient id="paint36_linear_1_20" x1="238.441" y1="906.223" x2="1030.55" y2="1031.68" gradientUnits="userSpaceOnUse">
<stop stop-color="#4571E1"/>
<stop offset="1" stop-color="#00F0FF"/>
</linearGradient>
<linearGradient id="paint37_linear_1_20" x1="225.182" y1="887.727" x2="999.496" y2="1052.31" gradientUnits="userSpaceOnUse">
<stop stop-color="#4571E1"/>
<stop offset="1" stop-color="#00F0FF"/>
</linearGradient>
<linearGradient id="paint38_linear_1_20" x1="212.837" y1="869.96" x2="967.454" y2="1072.16" gradientUnits="userSpaceOnUse">
<stop stop-color="#4571E1"/>
<stop offset="1" stop-color="#00F0FF"/>
</linearGradient>
<linearGradient id="paint39_linear_1_20" x1="201.353" y1="852.966" x2="934.487" y2="1091.18" gradientUnits="userSpaceOnUse">
<stop stop-color="#4571E1"/>
<stop offset="1" stop-color="#00F0FF"/>
</linearGradient>
<linearGradient id="paint40_linear_1_20" x1="190.676" y1="836.784" x2="900.652" y2="1109.32" gradientUnits="userSpaceOnUse">
<stop stop-color="#4571E1"/>
<stop offset="1" stop-color="#00F0FF"/>
</linearGradient>
<linearGradient id="paint41_linear_1_20" x1="180.749" y1="821.451" x2="866.011" y2="1126.55" gradientUnits="userSpaceOnUse">
<stop stop-color="#4571E1"/>
<stop offset="1" stop-color="#00F0FF"/>
</linearGradient>
<linearGradient id="paint42_linear_1_20" x1="171.514" y1="806.999" x2="830.625" y2="1142.83" gradientUnits="userSpaceOnUse">
<stop stop-color="#4571E1"/>
<stop offset="1" stop-color="#00F0FF"/>
</linearGradient>
<linearGradient id="paint43_linear_1_20" x1="162.913" y1="793.457" x2="794.56" y2="1158.14" gradientUnits="userSpaceOnUse">
<stop stop-color="#4571E1"/>
<stop offset="1" stop-color="#00F0FF"/>
</linearGradient>
<linearGradient id="paint44_linear_1_20" x1="154.884" y1="780.85" x2="757.878" y2="1172.44" gradientUnits="userSpaceOnUse">
<stop stop-color="#4571E1"/>
<stop offset="1" stop-color="#00F0FF"/>
</linearGradient>
<linearGradient id="paint45_linear_1_20" x1="147.367" y1="769.199" x2="720.646" y2="1185.71" gradientUnits="userSpaceOnUse">
<stop stop-color="#4571E1"/>
<stop offset="1" stop-color="#00F0FF"/>
</linearGradient>
<linearGradient id="paint46_linear_1_20" x1="140.299" y1="758.522" x2="682.932" y2="1197.94" gradientUnits="userSpaceOnUse">
<stop stop-color="#4571E1"/>
<stop offset="1" stop-color="#00F0FF"/>
</linearGradient>
<linearGradient id="paint47_linear_1_20" x1="133.619" y1="748.832" x2="644.8" y2="1209.1" gradientUnits="userSpaceOnUse">
<stop stop-color="#4571E1"/>
<stop offset="1" stop-color="#00F0FF"/>
</linearGradient>
<linearGradient id="paint48_linear_1_20" x1="127.264" y1="740.139" x2="606.32" y2="1219.19" gradientUnits="userSpaceOnUse">
<stop stop-color="#4571E1"/>
<stop offset="1" stop-color="#00F0FF"/>
</linearGradient>
<linearGradient id="paint49_linear_1_20" x1="121.171" y1="732.448" x2="567.557" y2="1228.21" gradientUnits="userSpaceOnUse">
<stop stop-color="#4571E1"/>
<stop offset="1" stop-color="#00F0FF"/>
</linearGradient>
<linearGradient id="paint50_linear_1_20" x1="115.28" y1="725.763" x2="528.578" y2="1236.14" gradientUnits="userSpaceOnUse">
<stop stop-color="#4571E1"/>
<stop offset="1" stop-color="#00F0FF"/>
</linearGradient>
<linearGradient id="paint51_linear_1_20" x1="109.527" y1="720.081" x2="489.449" y2="1243" gradientUnits="userSpaceOnUse">
<stop stop-color="#4571E1"/>
<stop offset="1" stop-color="#00F0FF"/>
</linearGradient>
<linearGradient id="paint52_linear_1_20" x1="103.853" y1="715.398" x2="450.237" y2="1248.78" gradientUnits="userSpaceOnUse">
<stop stop-color="#4571E1"/>
<stop offset="1" stop-color="#00F0FF"/>
</linearGradient>
<linearGradient id="paint53_linear_1_20" x1="98.1974" y1="711.704" x2="411.004" y2="1253.5" gradientUnits="userSpaceOnUse">
<stop stop-color="#4571E1"/>
<stop offset="1" stop-color="#00F0FF"/>
</linearGradient>
<linearGradient id="paint54_linear_1_20" x1="92.5019" y1="708.988" x2="371.814" y2="1257.17" gradientUnits="userSpaceOnUse">
<stop stop-color="#4571E1"/>
<stop offset="1" stop-color="#00F0FF"/>
</linearGradient>
<linearGradient id="paint55_linear_1_20" x1="86.709" y1="707.233" x2="332.729" y2="1259.8" gradientUnits="userSpaceOnUse">
<stop stop-color="#4571E1"/>
<stop offset="1" stop-color="#00F0FF"/>
</linearGradient>
<linearGradient id="paint56_linear_1_20" x1="80.763" y1="706.421" x2="293.808" y2="1261.42" gradientUnits="userSpaceOnUse">
<stop stop-color="#4571E1"/>
<stop offset="1" stop-color="#00F0FF"/>
</linearGradient>
<linearGradient id="paint57_linear_1_20" x1="74.6098" y1="706.53" x2="255.11" y2="1262.05" gradientUnits="userSpaceOnUse">
<stop stop-color="#4571E1"/>
<stop offset="1" stop-color="#00F0FF"/>
</linearGradient>
<linearGradient id="paint58_linear_1_20" x1="68.1972" y1="707.534" x2="216.691" y2="1261.72" gradientUnits="userSpaceOnUse">
<stop stop-color="#4571E1"/>
<stop offset="1" stop-color="#00F0FF"/>
</linearGradient>
<linearGradient id="paint59_linear_1_20" x1="61.4753" y1="709.406" x2="178.605" y2="1260.46" gradientUnits="userSpaceOnUse">
<stop stop-color="#4571E1"/>
<stop offset="1" stop-color="#00F0FF"/>
</linearGradient>
<linearGradient id="paint60_linear_1_20" x1="54.3962" y1="712.114" x2="140.903" y2="1258.29" gradientUnits="userSpaceOnUse">
<stop stop-color="#4571E1"/>
<stop offset="1" stop-color="#00F0FF"/>
</linearGradient>
<linearGradient id="paint61_linear_1_20" x1="46.9144" y1="715.626" x2="103.633" y2="1255.27" gradientUnits="userSpaceOnUse">
<stop stop-color="#4571E1"/>
<stop offset="1" stop-color="#00F0FF"/>
</linearGradient>
<linearGradient id="paint62_linear_1_20" x1="38.9871" y1="719.905" x2="66.8422" y2="1251.41" gradientUnits="userSpaceOnUse">
<stop stop-color="#4571E1"/>
<stop offset="1" stop-color="#00F0FF"/>
</linearGradient>
<linearGradient id="paint63_linear_1_20" x1="30.5739" y1="724.914" x2="30.5739" y2="1246.78" gradientUnits="userSpaceOnUse">
<stop stop-color="#4571E1"/>
<stop offset="1" stop-color="#00F0FF"/>
</linearGradient>
<linearGradient id="paint64_linear_1_20" x1="21.6374" y1="730.612" x2="-5.13183" y2="1241.4" gradientUnits="userSpaceOnUse">
<stop stop-color="#4571E1"/>
<stop offset="1" stop-color="#00F0FF"/>
</linearGradient>
<linearGradient id="paint65_linear_1_20" x1="12.1428" y1="736.958" x2="-40.2377" y2="1235.33" gradientUnits="userSpaceOnUse">
<stop stop-color="#4571E1"/>
<stop offset="1" stop-color="#00F0FF"/>
</linearGradient>
<linearGradient id="paint66_linear_1_20" x1="2.05847" y1="743.907" x2="-74.7098" y2="1228.6" gradientUnits="userSpaceOnUse">
<stop stop-color="#4571E1"/>
<stop offset="1" stop-color="#00F0FF"/>
</linearGradient>
<linearGradient id="paint67_linear_1_20" x1="-8.64393" y1="751.415" x2="-108.517" y2="1221.28" gradientUnits="userSpaceOnUse">
<stop stop-color="#4571E1"/>
<stop offset="1" stop-color="#00F0FF"/>
</linearGradient>
<linearGradient id="paint68_linear_1_20" x1="-19.9904" y1="759.434" x2="-141.632" y2="1213.41" gradientUnits="userSpaceOnUse">
<stop stop-color="#4571E1"/>
<stop offset="1" stop-color="#00F0FF"/>
</linearGradient>
</defs>
</svg>
