<svg width="52" height="52" viewBox="0 0 52 52" fill="none" xmlns="http://www.w3.org/2000/svg">
<path d="M25.3581 0C12.5186 0 13.1605 5.77776 13.1605 5.77776V11.5555H25.3581V13.1605H8.3457C8.3457 13.1605 0 12.1975 0 25.358C0 38.5185 7.06177 37.8765 7.06177 37.8765H11.2346V31.7778C11.2346 31.7778 10.9136 24.3951 18.2963 24.3951H30.4938C30.4938 24.3951 37.2346 24.3951 37.2346 17.6543V6.41975C37.8766 6.74074 38.8396 0 25.3581 0ZM18.6173 3.85184C19.9013 3.85184 20.8642 4.81482 20.8642 6.09877C20.8642 7.38272 19.9013 8.34567 18.6173 8.34567C17.3334 8.34567 16.3704 7.38272 16.3704 6.09877C16.3704 4.81482 17.3334 3.85184 18.6173 3.85184Z" fill="white"/>
<path d="M25.679 52C38.5185 52 37.8766 46.2222 37.8766 46.2222V40.4445H25.679V38.8395H42.6914C42.6914 38.8395 51.0371 39.8025 51.0371 26.642C51.0371 13.4815 43.9754 14.1235 43.9754 14.1235H39.8026V20.2222C39.8026 20.2222 40.1235 27.6049 32.7408 27.6049H20.5433C20.5433 27.6049 13.8026 27.6049 13.8026 34.3457V45.5802C13.1606 45.2593 12.1976 52 25.679 52ZM32.4198 48.1481C31.1358 48.1481 30.1729 47.1852 30.1729 45.9012C30.1729 44.6173 31.1358 43.6543 32.4198 43.6543C33.7037 43.6543 34.6668 44.6173 34.6668 45.9012C34.6668 47.1852 33.7037 48.1481 32.4198 48.1481Z" fill="white"/>
</svg>
