<svg width="144" height="20" viewBox="0 0 144 20" fill="none" xmlns="http://www.w3.org/2000/svg">
<path d="M8.7208 0.97044C9.12344 -0.323481 10.8766 -0.32348 11.2792 0.970441L12.7178 5.59356C12.8979 6.17221 13.4143 6.564 13.997 6.564H18.6524C19.9554 6.564 20.4971 8.30496 19.443 9.10464L15.6767 11.9619C15.2053 12.3195 15.008 12.9534 15.1881 13.5321L16.6267 18.1552C17.0293 19.4491 15.611 20.5251 14.5569 19.7254L10.7906 16.8682C10.3192 16.5105 9.68083 16.5105 9.20941 16.8682L5.44311 19.7254C4.389 20.5251 2.97069 19.4491 3.37333 18.1552L4.81193 13.5321C4.99199 12.9534 4.79473 12.3195 4.32332 11.9619L0.557018 9.10464C-0.497098 8.30495 0.0446463 6.564 1.3476 6.564H6.00301C6.58571 6.564 7.10214 6.17221 7.28221 5.59356L8.7208 0.97044Z" fill="#F8B400"/>
<path d="M39.7208 0.97044C40.1234 -0.323481 41.8766 -0.32348 42.2792 0.970441L43.7178 5.59356C43.8979 6.17221 44.4143 6.564 44.997 6.564H49.6524C50.9554 6.564 51.4971 8.30496 50.443 9.10464L46.6767 11.9619C46.2053 12.3195 46.008 12.9534 46.1881 13.5321L47.6267 18.1552C48.0293 19.4491 46.611 20.5251 45.5569 19.7254L41.7906 16.8682C41.3192 16.5105 40.6808 16.5105 40.2094 16.8682L36.4431 19.7254C35.389 20.5251 33.9707 19.4491 34.3733 18.1552L35.8119 13.5321C35.992 12.9534 35.7947 12.3195 35.3233 11.9619L31.557 9.10464C30.5029 8.30495 31.0446 6.564 32.3476 6.564H37.003C37.5857 6.564 38.1021 6.17221 38.2822 5.59356L39.7208 0.97044Z" fill="#F8B400"/>
<path d="M70.7208 0.97044C71.1234 -0.323481 72.8766 -0.32348 73.2792 0.970441L74.7178 5.59356C74.8979 6.17221 75.4143 6.564 75.997 6.564H80.6524C81.9554 6.564 82.4971 8.30496 81.443 9.10464L77.6767 11.9619C77.2053 12.3195 77.008 12.9534 77.1881 13.5321L78.6267 18.1552C79.0293 19.4491 77.611 20.5251 76.5569 19.7254L72.7906 16.8682C72.3192 16.5105 71.6808 16.5105 71.2094 16.8682L67.4431 19.7254C66.389 20.5251 64.9707 19.4491 65.3733 18.1552L66.8119 13.5321C66.992 12.9534 66.7947 12.3195 66.3233 11.9619L62.557 9.10464C61.5029 8.30495 62.0446 6.564 63.3476 6.564H68.003C68.5857 6.564 69.1021 6.17221 69.2822 5.59356L70.7208 0.97044Z" fill="#F8B400"/>
<path d="M101.721 0.97044C102.123 -0.323481 103.877 -0.32348 104.279 0.970441L105.718 5.59356C105.898 6.17221 106.414 6.564 106.997 6.564H111.652C112.955 6.564 113.497 8.30496 112.443 9.10464L108.677 11.9619C108.205 12.3195 108.008 12.9534 108.188 13.5321L109.627 18.1552C110.029 19.4491 108.611 20.5251 107.557 19.7254L103.791 16.8682C103.319 16.5105 102.681 16.5105 102.209 16.8682L98.4431 19.7254C97.389 20.5251 95.9707 19.4491 96.3733 18.1552L97.8119 13.5321C97.992 12.9534 97.7947 12.3195 97.3233 11.9619L93.557 9.10464C92.5029 8.30495 93.0446 6.564 94.3476 6.564H99.003C99.5857 6.564 100.102 6.17221 100.282 5.59356L101.721 0.97044Z" fill="#F8B400"/>
<path d="M132.721 0.97044C133.123 -0.323481 134.877 -0.32348 135.279 0.970441L136.718 5.59356C136.898 6.17221 137.414 6.564 137.997 6.564H142.652C143.955 6.564 144.497 8.30496 143.443 9.10464L139.677 11.9619C139.205 12.3195 139.008 12.9534 139.188 13.5321L140.627 18.1552C141.029 19.4491 139.611 20.5251 138.557 19.7254L134.791 16.8682C134.319 16.5105 133.681 16.5105 133.209 16.8682L129.443 19.7254C128.389 20.5251 126.971 19.4491 127.373 18.1552L128.812 13.5321C128.992 12.9534 128.795 12.3195 128.323 11.9619L124.557 9.10464C123.503 8.30495 124.045 6.564 125.348 6.564H130.003C130.586 6.564 131.102 6.17221 131.282 5.59356L132.721 0.97044Z" fill="#F8B400"/>
</svg>
