<svg width="46" height="45" viewBox="0 0 46 45" fill="none" xmlns="http://www.w3.org/2000/svg">
<path d="M23 0C10.3973 0 0 10.1712 0 22.5C0 34.8288 10.3973 45 23 45C35.6028 45 46 34.8288 46 22.5C46 10.1712 35.6028 0 23 0ZM23 2.15752C23.9452 2.15752 24.5754 2.77396 24.5754 3.69862C24.5754 4.62328 23.9452 5.23971 23 5.23971C22.0548 5.23971 21.4247 4.62328 21.4247 3.69862C21.4247 2.77396 22.0548 2.15752 23 2.15752ZM26.4658 4.62329C31.8219 5.54794 36.5479 8.93838 39.0685 13.5617L37.1781 17.5685C36.863 18.1849 37.1781 19.1096 37.8082 19.4178L41.274 20.9589C41.274 21.8836 41.274 23.1164 41.274 24.0411H39.3836C39.0685 24.0411 39.0685 24.0411 39.0685 24.3493V25.274C39.0685 27.4315 37.8082 27.7397 36.863 27.7397C35.9178 27.7397 34.6576 27.4315 34.6576 26.815C34.0274 23.7329 33.0822 23.1164 31.5069 21.8836C33.3973 20.6507 35.2877 19.1096 35.2877 16.6439C35.2877 14.1781 33.3973 12.637 32.4521 12.0206C30.8767 11.0959 28.9863 10.7877 28.3562 10.7877H8.82193C11.6576 7.70548 15.1233 5.85618 19.2192 4.93152L21.4247 7.39729C22.0548 8.01372 22.6849 8.01372 23.3151 7.39729L26.4658 4.62329ZM5.04107 15.411C5.98628 15.411 6.61641 16.0274 6.61641 16.952C6.61641 17.8767 5.98628 18.4931 5.04107 18.4931C4.09586 18.4931 3.46573 17.8767 3.46573 16.952C3.46573 16.0274 4.09586 15.411 5.04107 15.411ZM40.9589 15.411C41.9041 15.411 42.5343 16.0274 42.5343 16.952C42.5343 17.8767 41.9041 18.4931 40.9589 18.4931C40.0137 18.4931 39.3836 17.8767 39.3836 16.952C39.3836 16.0274 40.0137 15.411 40.9589 15.411ZM7.87672 15.7192H10.3973V27.4315H5.04107C4.41093 25.274 4.09587 22.8082 4.41094 20.6507L7.56163 19.1096C8.19177 18.8014 8.50683 17.8767 8.19176 17.2603L7.87672 15.7192ZM18.589 15.7192H24.8904C25.2055 15.7192 27.0959 16.0274 27.0959 17.5685C27.0959 18.8014 25.5206 19.1096 24.2603 19.1096H18.589V15.7192ZM18.589 24.0411H23.3151C23.6301 24.0411 25.5206 24.0411 26.1507 26.5069C26.4658 27.1233 26.7808 29.5891 27.0959 30.5137C27.4109 31.4384 28.6713 32.9794 29.9315 32.9794H37.8082C37.1781 33.5959 36.548 34.2123 36.2329 34.8288L33.0822 34.2123C32.4521 34.2123 31.5069 34.5206 31.5069 35.137L30.8767 38.5274C25.8356 40.6849 20.1644 40.6849 15.4383 38.5274L14.8082 35.137C14.4932 34.5206 13.863 33.9041 13.2329 34.2123L10.0822 34.8288C9.45205 34.2123 8.82191 33.5959 8.50685 32.9794H23.6302C23.9452 32.9794 23.9452 32.9795 23.9452 32.6712V27.4315C23.9452 27.4315 23.9452 27.1233 23.6302 27.1233H19.2192L18.589 24.0411ZM11.6575 36.0616C12.6027 36.0616 13.2329 36.6781 13.2329 37.6027C13.2329 38.5274 12.6027 39.1438 11.6575 39.1438C10.7123 39.1438 10.0822 38.5274 10.0822 37.6027C10.0822 36.6781 10.7123 36.0616 11.6575 36.0616ZM34.0274 36.0616C34.9726 36.0616 35.6028 36.6781 35.6028 37.6027C35.6028 38.5274 34.9726 39.1438 34.0274 39.1438C33.0822 39.1438 32.4521 38.5274 32.4521 37.6027C32.4521 36.9863 33.0822 36.0616 34.0274 36.0616Z" fill="white"/>
</svg>
