<svg width="46" height="40" viewBox="0 0 46 40" fill="none" xmlns="http://www.w3.org/2000/svg">
<path d="M44.5591 30.4317C45.8559 30.4317 46.5043 32.0264 45.5317 32.9833L39.372 39.6811C39.0478 40 38.7235 40 38.3993 40H1.76506C0.468276 40 -0.18008 38.4053 0.792512 37.4485L6.95224 30.7507C7.27644 30.4317 7.6006 30.1128 7.92479 30.1128H44.5591V30.4317ZM38.3993 15.4414C38.7235 15.4414 39.0478 15.4414 39.372 15.7603L45.5317 22.4581C46.5043 23.415 45.8559 25.0097 44.5591 25.0097H7.60058C7.27638 25.0097 6.95222 25.0097 6.62802 24.6907L0.468295 17.9929C-0.504297 17.0361 0.144058 15.4414 1.44085 15.4414H38.3993ZM44.5591 0.132107C45.8559 0.132107 46.5043 1.72683 45.5317 2.68366L39.372 9.38146C39.0478 9.70041 38.7235 9.7004 38.3993 9.7004H1.76506C0.468276 9.7004 -0.18008 8.1057 0.792512 7.14887L6.95224 0.451069C7.27644 0.132126 7.6006 -0.186837 7.92479 0.132107H44.5591Z" fill="white"/>
</svg>
