<svg width="1005" height="268" viewBox="0 0 1005 268" fill="none" xmlns="http://www.w3.org/2000/svg">
<path d="M789.447 147.172C781.21 132.796 786.142 114.388 800.463 106.057L894.315 51.4601C908.637 43.1288 926.924 48.0289 935.162 62.4046L989.46 157.166C997.697 171.542 992.765 189.95 978.444 198.281L884.592 252.878C870.27 261.209 851.983 256.309 843.745 241.933L789.447 147.172Z" fill="#3EBEB8"/>
<rect width="86.958" height="87.2874" rx="16" transform="matrix(0.864381 -0.502838 0.497167 0.867655 0 190.915)" fill="#3EBEB8"/>
<path d="M444.92 26.5353C460.915 30.8539 470.431 47.3351 466.173 63.3472L448.468 129.922C444.21 145.934 427.791 155.414 411.795 151.095L346.1 133.358C330.104 129.04 320.589 112.559 324.847 96.5466L342.551 29.9714C346.809 13.9594 363.228 4.48 379.224 8.79859L444.92 26.5353Z" fill="#3EBEB8"/>
</svg>
