<svg width="50" height="51" viewBox="0 0 50 51" fill="none" xmlns="http://www.w3.org/2000/svg">
<path d="M5 30.082C3.625 30.082 2.44833 29.592 1.47 28.612C0.49 27.6337 0 26.457 0 25.082C0 23.707 0.49 22.5295 1.47 21.5495C2.44833 20.5712 3.625 20.082 5 20.082C6.375 20.082 7.55167 20.5712 8.53 21.5495C9.51 22.5295 10 23.707 10 25.082C10 26.457 9.51 27.6337 8.53 28.612C7.55167 29.592 6.375 30.082 5 30.082ZM9.125 44.332L5.625 40.832L16.5 29.957L20 33.457L9.125 44.332ZM16.625 20.082L5.75 9.20703L9.25 5.70703L20.125 16.582L16.625 20.082ZM25 50.082C23.625 50.082 22.4483 49.5929 21.47 48.6145C20.49 47.6345 20 46.457 20 45.082C20 43.707 20.49 42.5295 21.47 41.5495C22.4483 40.5712 23.625 40.082 25 40.082C26.375 40.082 27.5525 40.5712 28.5325 41.5495C29.5108 42.5295 30 43.707 30 45.082C30 46.457 29.5108 47.6345 28.5325 48.6145C27.5525 49.5929 26.375 50.082 25 50.082ZM25 10.082C23.625 10.082 22.4483 9.59203 21.47 8.61203C20.49 7.6337 20 6.45703 20 5.08203C20 3.70703 20.49 2.52953 21.47 1.54953C22.4483 0.571198 23.625 0.0820312 25 0.0820312C26.375 0.0820312 27.5525 0.571198 28.5325 1.54953C29.5108 2.52953 30 3.70703 30 5.08203C30 6.45703 29.5108 7.6337 28.5325 8.61203C27.5525 9.59203 26.375 10.082 25 10.082ZM33.375 20.207L29.875 16.582L40.875 5.70703L44.375 9.20703L33.375 20.207ZM40.875 44.332L30 33.457L33.5 29.957L44.375 40.832L40.875 44.332ZM45 30.082C43.625 30.082 42.4475 29.592 41.4675 28.612C40.4892 27.6337 40 26.457 40 25.082C40 23.707 40.4892 22.5295 41.4675 21.5495C42.4475 20.5712 43.625 20.082 45 20.082C46.375 20.082 47.5525 20.5712 48.5325 21.5495C49.5108 22.5295 50 23.707 50 25.082C50 26.457 49.5108 27.6337 48.5325 28.612C47.5525 29.592 46.375 30.082 45 30.082Z" fill="#27538C"/>
</svg>
