<svg width="50" height="41" viewBox="0 0 50 41" fill="none" xmlns="http://www.w3.org/2000/svg">
<path d="M5 40.082C3.625 40.082 2.44833 39.5929 1.47 38.6145C0.49 37.6345 0 36.457 0 35.082V5.08203C0 3.70703 0.49 2.53036 1.47 1.55203C2.44833 0.572031 3.625 0.0820312 5 0.0820312H45C46.375 0.0820312 47.5525 0.572031 48.5325 1.55203C49.5108 2.53036 50 3.70703 50 5.08203V35.082C50 36.457 49.5108 37.6345 48.5325 38.6145C47.5525 39.5929 46.375 40.082 45 40.082H5ZM5 35.082H45V10.082H5V35.082ZM13.75 32.582L10.25 29.082L16.6875 22.582L10.1875 16.082L13.75 12.582L23.75 22.582L13.75 32.582ZM25 32.582V27.582H40V32.582H25Z" fill="#27538C"/>
</svg>
