<svg width="31" height="31" viewBox="0 0 31 31" fill="none" xmlns="http://www.w3.org/2000/svg">
<path fill-rule="evenodd" clip-rule="evenodd" d="M15.688 30.7154C23.955 30.7154 30.6567 24.0136 30.6567 15.7466C30.6567 7.47957 23.955 0.777832 15.688 0.777832C7.42098 0.777832 0.719238 7.47957 0.719238 15.7466C0.719238 24.0136 7.42098 30.7154 15.688 30.7154ZM22.191 12.7745C22.191 12.6255 22.191 12.4779 22.181 12.3303C22.8364 11.8438 23.403 11.2417 23.8528 10.5505C23.2418 10.8287 22.5929 11.0111 21.9289 11.0913C22.6282 10.662 23.1515 9.98644 23.4017 9.19111C22.7436 9.59116 22.0244 9.87351 21.2742 10.0252C20.0057 8.64207 17.8835 8.57539 16.5341 9.87623C15.6638 10.7151 15.295 11.9656 15.565 13.1589C12.8709 13.0208 10.3612 11.7159 8.66028 9.56939C7.77133 11.1397 8.22509 13.1481 9.69717 14.1571C9.1638 14.1407 8.64237 13.9931 8.17667 13.727V13.7706C8.17667 15.4061 9.30112 16.8144 10.8641 17.1383C10.3712 17.2764 9.85373 17.2968 9.35154 17.1975C9.79071 18.5971 11.0479 19.5556 12.4815 19.5835C11.2946 20.5395 9.82919 21.0585 8.32061 21.0573C8.05394 21.0564 7.78792 21.0402 7.52322 21.0076C9.05566 22.0158 10.8382 22.5506 12.6586 22.5479V22.5506C18.8209 22.5506 22.191 17.3145 22.191 12.7745Z" fill="white"/>
</svg>
