<svg width="50" height="49" viewBox="0 0 50 49" fill="none" xmlns="http://www.w3.org/2000/svg">
<path d="M24.6694 0.722656H0.169434V24.7227V48.7227H24.6694H49.1694V24.7227V0.722656H24.6694ZM28.1694 26.7798H25.0195H21.8694V35.6941V44.6084H19.4194H17.3194V35.6941V26.7798H14.1694H11.0195V24.7227V22.6655H19.7695C24.6695 22.6655 28.5195 22.6655 28.5195 22.6655C28.5195 22.6655 28.5195 23.6941 28.5195 24.7227L28.1694 26.7798ZM44.6194 41.1798C43.9194 43.237 41.8195 44.6084 39.0195 44.9512C38.3195 44.9512 36.2194 44.9512 35.1694 44.9512C33.0694 44.6084 31.3195 43.5798 30.2695 42.2084C29.9195 41.8655 28.8694 40.4941 28.8694 40.4941C28.8694 40.4941 29.2194 40.4941 29.2194 40.1512C29.5694 40.1512 30.2694 39.4655 30.9694 39.1226L32.3694 38.4369L32.7194 38.7798C33.0694 39.4655 34.1194 40.1512 34.4694 40.4941C35.8694 41.1798 38.3194 41.1798 39.3694 40.1512C39.7194 39.8084 40.0694 39.4655 40.0694 38.7798C40.0694 38.0941 40.0694 38.0941 39.7194 37.4084C39.3694 36.7226 38.6694 36.3798 36.2194 35.3512C33.7694 34.3227 32.7194 33.637 31.6694 32.6084C30.9694 31.9227 30.6195 30.8941 30.2695 30.2084C29.9195 29.5227 29.9195 27.8084 30.2695 27.1226C30.9695 24.7226 32.7194 23.0084 35.1694 22.6655C35.8694 22.6655 37.9695 22.6655 39.0195 22.6655C40.4195 23.0084 41.1194 23.6941 42.1694 24.3798C42.5194 24.7227 43.2194 25.7512 43.2194 26.0941C43.2194 26.0941 41.1194 27.4655 39.7194 28.4941C39.7194 28.4941 39.3694 28.4941 39.3694 28.1512C38.6694 27.1227 37.9694 26.7798 36.9194 26.7798C35.5194 26.7798 34.4694 27.4655 34.4694 28.8369C34.4694 29.1798 34.4694 29.5227 34.8194 29.8655C35.1694 30.5512 35.8694 30.8941 37.6194 31.5798C41.1194 32.9512 42.5194 33.9798 43.5694 35.3512C45.3194 36.7227 45.6694 39.1227 44.6194 41.1798Z" fill="white"/>
</svg>
