<svg width="194" height="48" viewBox="0 0 194 48" fill="none" xmlns="http://www.w3.org/2000/svg">
<path d="M20.4428 42.648C21.9948 45.288 25.8505 45.288 27.3783 42.648L36.9085 26.328L46.4388 10.008C47.9908 7.36803 46.0508 4.05603 42.971 4.05603H23.9348H4.87427C1.79452 4.08003 -0.121229 7.36803 1.40652 10.008L10.9368 26.328L20.4428 42.648Z" fill="white"/>
<path d="M38.9698 42.648C40.5218 45.288 44.3775 45.288 45.9053 42.648L55.4355 26.328L64.9658 10.008C66.5178 7.36803 64.5778 4.05603 61.498 4.05603H42.4375H23.4013C20.3215 4.05603 18.3815 7.36803 19.9335 10.008L29.4638 26.328L38.9698 42.648Z" fill="white"/>
<path d="M45.4735 42.3959L45.4725 42.3976C44.139 44.7019 40.762 44.7084 39.4014 42.3956C39.4012 42.3953 39.401 42.395 39.4008 42.3946L29.8958 26.0764L29.8956 26.0759L20.3653 9.75589L20.3646 9.75463C19.0144 7.45801 20.6965 4.55603 23.4013 4.55603H42.4375H61.498C64.2029 4.55603 65.8849 7.458 64.5347 9.75463L64.534 9.75589L55.0038 26.0759L45.4735 42.3959Z" stroke="black" stroke-opacity="0.2"/>
<path d="M97.4608 38.952H92.3198L87.4698 25.776L82.4743 38.952H77.3333L68.9185 15.168H75.563L80.1705 28.536L80.607 27.336C81.286 25.392 82.0135 23.328 82.7895 21.144C83.5655 18.96 84.293 16.968 84.972 15.144H90.016L94.866 28.464L99.425 15.144H105.876L97.4608 38.952Z" fill="white"/>
<path d="M122.899 5.64001H129.253V37.512C125.882 38.568 122.948 39.072 120.401 39.072C118.437 39.072 116.691 38.76 115.139 38.16C113.587 37.56 112.253 36.72 111.162 35.64C110.071 34.56 109.246 33.288 108.664 31.8C108.082 30.336 107.791 28.704 107.791 26.928C107.791 24.792 108.155 22.968 108.858 21.456C109.562 19.944 110.507 18.672 111.671 17.688C112.835 16.704 114.169 15.984 115.673 15.528C117.152 15.072 118.704 14.832 120.256 14.832C120.765 14.832 121.226 14.856 121.614 14.88C122.026 14.904 122.438 14.976 122.899 15.072V5.64001ZM114.242 27.024C114.242 28.896 114.751 30.408 115.794 31.536C116.837 32.688 118.292 33.24 120.183 33.24C120.62 33.24 121.08 33.216 121.541 33.192C121.978 33.168 122.438 33.096 122.899 33V21.12C122.487 21.024 122.075 20.952 121.662 20.88C121.25 20.808 120.886 20.784 120.523 20.784C118.607 20.784 117.079 21.336 115.939 22.392C114.824 23.472 114.242 25.008 114.242 27.024Z" fill="white"/>
<path d="M159.735 38.952H154.594L149.744 25.776L144.748 38.952H139.607L131.193 15.168H137.837L142.445 28.536L142.881 27.336C143.56 25.392 144.288 23.328 145.064 21.144C145.84 18.96 146.567 16.968 147.246 15.144H152.29L157.14 28.464L161.699 15.144H168.15L159.735 38.952Z" fill="white"/>
<path d="M192.691 28.872C192.691 30.48 192.375 31.944 191.745 33.216C191.114 34.512 190.266 35.592 189.199 36.48C188.132 37.368 186.895 38.04 185.464 38.52C184.058 39 182.554 39.24 181.002 39.24C178.941 39.24 177.074 38.832 175.376 37.992C173.679 37.176 171.908 35.832 170.041 33.984L175.134 29.712C176.128 31.008 177.122 31.944 178.116 32.472C179.111 33 180.081 33.288 181.002 33.288C182.627 33.288 183.912 32.856 184.858 31.992C185.779 31.128 186.24 30.096 186.24 28.848C186.24 27.504 185.658 26.448 184.47 25.608C183.282 24.792 181.633 24.36 179.523 24.36H176.831V18.12H179.62C181.148 18.12 182.433 17.832 183.427 17.256C184.421 16.68 184.906 15.84 184.906 14.736C184.906 13.872 184.518 13.176 183.742 12.624C182.966 12.072 182.021 11.784 180.857 11.784C179.765 11.784 178.795 12.048 177.922 12.576C177.049 13.104 176.152 13.92 175.231 15.024L170.284 10.968C171.957 9.21598 173.582 7.91998 175.206 7.07998C176.831 6.23998 178.698 5.80798 180.857 5.80798C182.336 5.80798 183.718 5.99998 184.979 6.35998C186.264 6.71998 187.38 7.27198 188.326 8.01598C189.271 8.75998 190.023 9.69598 190.557 10.8C191.09 11.904 191.381 13.2 191.381 14.664C191.381 15.936 191.139 17.088 190.678 18.12C190.217 19.152 189.562 20.04 188.738 20.76C189.926 21.552 190.872 22.656 191.599 24.072C192.351 25.536 192.691 27.12 192.691 28.872Z" fill="white"/>
</svg>
