<svg width="1512" height="590" viewBox="0 0 1512 590" fill="none" xmlns="http://www.w3.org/2000/svg">
<g opacity="0.5">
<g opacity="0.2">
<path d="M-65.6123 168.63L-114 84.8151L-65.6123 1H31.1683L79.5611 84.8151L31.1683 168.63H-65.6123Z" stroke="#3EBEB8" stroke-width="0.51779"/>
<path d="M79.6171 252.465L31.2294 168.65L79.6171 84.8352H176.398L224.785 168.65L176.398 252.465H79.6171Z" stroke="#3EBEB8" stroke-width="0.51779"/>
<path d="M224.536 168.63L176.143 84.8151L224.536 1H321.317L369.704 84.8151L321.317 168.63H224.536Z" stroke="#3EBEB8" stroke-width="0.51779"/>
<path d="M369.76 252.465L321.373 168.65L369.76 84.8352H466.541L514.929 168.65L466.541 252.465H369.76Z" stroke="#3EBEB8" stroke-width="0.51779"/>
<path d="M514.68 168.63L466.287 84.8151L514.68 1H611.46L659.848 84.8151L611.46 168.63H514.68Z" stroke="#3EBEB8" stroke-width="0.51779"/>
<path d="M659.904 252.465L611.516 168.65L659.904 84.8352H756.684L805.077 168.65L756.684 252.465H659.904Z" stroke="#3EBEB8" stroke-width="0.51779"/>
<path d="M804.823 168.63L756.43 84.8151L804.823 1H901.603L949.991 84.8151L901.603 168.63H804.823Z" stroke="#3EBEB8" stroke-width="0.51779"/>
<path d="M950.052 252.465L901.659 168.65L950.052 84.8352H1046.83L1095.22 168.65L1046.83 252.465H950.052Z" stroke="#3EBEB8" stroke-width="0.51779"/>
<path d="M1094.97 168.63L1046.57 84.8151L1094.97 1H1191.75L1240.13 84.8151L1191.75 168.63H1094.97Z" stroke="#3EBEB8" stroke-width="0.51779"/>
<path d="M1240.2 252.465L1191.81 168.65L1240.2 84.8352H1336.97L1385.36 168.65L1336.97 252.465H1240.2Z" stroke="#3EBEB8" stroke-width="0.51779"/>
<path d="M1385.11 168.63L1336.72 84.8151L1385.11 1H1481.89L1530.28 84.8151L1481.89 168.63H1385.11Z" stroke="#3EBEB8" stroke-width="0.51779"/>
<path d="M1530.34 252.465L1481.95 168.65L1530.34 84.8352H1627.11L1675.51 168.65L1627.11 252.465H1530.34Z" stroke="#3EBEB8" stroke-width="0.51779"/>
</g>
<g opacity="0.2">
<path d="M-65.6123 336.828L-114 253.012L-65.6123 169.197H31.1683L79.5611 253.012L31.1683 336.828H-65.6123Z" stroke="#3EBEB8" stroke-width="0.51779"/>
<path d="M79.6171 420.668L31.2294 336.853L79.6171 253.038H176.398L224.785 336.853L176.398 420.668H79.6171Z" stroke="#3EBEB8" stroke-width="0.51779"/>
<path d="M224.536 336.828L176.143 253.012L224.536 169.197H321.317L369.704 253.012L321.317 336.828H224.536Z" stroke="#3EBEB8" stroke-width="0.51779"/>
<path d="M369.76 420.668L321.373 336.853L369.76 253.038H466.541L514.929 336.853L466.541 420.668H369.76Z" stroke="#3EBEB8" stroke-width="0.51779"/>
<path d="M514.68 336.828L466.287 253.012L514.68 169.197H611.46L659.848 253.012L611.46 336.828H514.68Z" stroke="#3EBEB8" stroke-width="0.51779"/>
<path d="M659.904 420.668L611.516 336.853L659.904 253.038H756.684L805.077 336.853L756.684 420.668H659.904Z" stroke="#3EBEB8" stroke-width="0.51779"/>
<path d="M804.823 336.828L756.43 253.012L804.823 169.197H901.603L949.991 253.012L901.603 336.828H804.823Z" stroke="#3EBEB8" stroke-width="0.51779"/>
<path d="M950.052 420.668L901.659 336.853L950.052 253.038H1046.83L1095.22 336.853L1046.83 420.668H950.052Z" stroke="#3EBEB8" stroke-width="0.51779"/>
<path d="M1094.97 336.828L1046.57 253.012L1094.97 169.197H1191.75L1240.13 253.012L1191.75 336.828H1094.97Z" stroke="#3EBEB8" stroke-width="0.51779"/>
<path d="M1240.2 420.668L1191.81 336.853L1240.2 253.038H1336.97L1385.36 336.853L1336.97 420.668H1240.2Z" stroke="#3EBEB8" stroke-width="0.51779"/>
<path d="M1385.11 336.828L1336.72 253.012L1385.11 169.197H1481.89L1530.28 253.012L1481.89 336.828H1385.11Z" stroke="#3EBEB8" stroke-width="0.51779"/>
<path d="M1530.34 420.668L1481.95 336.853L1530.34 253.038H1627.11L1675.51 336.853L1627.11 420.668H1530.34Z" stroke="#3EBEB8" stroke-width="0.51779"/>
</g>
<g opacity="0.2">
<path d="M-65.6123 505.165L-114 421.35L-65.6123 337.534H31.1683L79.5611 421.35L31.1683 505.165H-65.6123Z" stroke="#3EBEB8" stroke-width="0.51779"/>
<path d="M79.6171 589L31.2294 505.185L79.6171 421.37H176.398L224.785 505.185L176.398 589H79.6171Z" stroke="#3EBEB8" stroke-width="0.51779"/>
<path d="M224.536 505.164L176.143 421.349L224.536 337.534H321.317L369.704 421.349L321.317 505.164H224.536Z" stroke="#3EBEB8" stroke-width="0.51779"/>
<path d="M369.76 589L321.373 505.185L369.76 421.37H466.541L514.929 505.185L466.541 589H369.76Z" stroke="#3EBEB8" stroke-width="0.51779"/>
<path d="M514.68 505.164L466.287 421.349L514.68 337.534H611.46L659.848 421.349L611.46 505.164H514.68Z" stroke="#3EBEB8" stroke-width="0.51779"/>
<path d="M659.904 589L611.516 505.185L659.904 421.37H756.684L805.077 505.185L756.684 589H659.904Z" stroke="#3EBEB8" stroke-width="0.51779"/>
<path d="M804.823 505.164L756.43 421.349L804.823 337.534H901.603L949.991 421.349L901.603 505.164H804.823Z" stroke="#3EBEB8" stroke-width="0.51779"/>
<path d="M950.052 589L901.659 505.185L950.052 421.37H1046.83L1095.22 505.185L1046.83 589H950.052Z" stroke="#3EBEB8" stroke-width="0.51779"/>
<path d="M1094.97 505.164L1046.57 421.349L1094.97 337.534H1191.75L1240.13 421.349L1191.75 505.164H1094.97Z" stroke="#3EBEB8" stroke-width="0.51779"/>
<path d="M1240.2 589L1191.81 505.185L1240.2 421.37H1336.97L1385.36 505.185L1336.97 589H1240.2Z" stroke="#3EBEB8" stroke-width="0.51779"/>
<path d="M1385.11 505.164L1336.72 421.349L1385.11 337.534H1481.89L1530.28 421.349L1481.89 505.164H1385.11Z" stroke="#3EBEB8" stroke-width="0.51779"/>
<path d="M1530.34 589L1481.95 505.185L1530.34 421.37H1627.11L1675.51 505.185L1627.11 589H1530.34Z" stroke="#3EBEB8" stroke-width="0.51779"/>
</g>
</g>
</svg>
