<svg width="32" height="32" viewBox="0 0 32 32" fill="none" xmlns="http://www.w3.org/2000/svg">
    <path d="M31.3976 9.2041C31.3976 7.22461 29.7878 5.61426 27.8088 5.61426H24.1276V5.13379C24.1276 2.5791 22.049 0.5 19.4938 0.5H12.5065C9.95135 0.5 7.87274 2.5791 7.87274 5.13379V5.61426H4.19159C2.21259 5.61426 0.602722 7.22461 0.602722 9.2041V10.831C0.602722 12.9765 1.37506 14.9437 2.65399 16.4736V25.8213C2.65399 28.9521 5.20135 31.5 8.3327 31.5H23.6677C26.799 31.5 29.3464 28.9521 29.3464 25.8213V16.4736C30.6253 14.9437 31.3976 12.9765 31.3976 10.831V9.2041ZM10.8727 5.13379C10.8727 4.2334 11.6057 3.5 12.5065 3.5H19.4938C20.3947 3.5 21.1276 4.2334 21.1276 5.13379V5.61426H10.8727V5.13379ZM3.60272 9.2041C3.60272 8.8789 3.86688 8.61426 4.19159 8.61426H27.8088C28.1335 8.61426 28.3977 8.87891 28.3977 9.2041V10.831C28.3977 12.3829 27.7827 13.7911 26.7885 14.8346C26.7851 14.8379 26.7822 14.8418 26.7788 14.8452C25.7201 15.9509 24.2335 16.6436 22.5856 16.6436H21.8464V16.2334C21.8464 15.4053 21.175 14.7334 20.3464 14.7334C19.5178 14.7334 18.8464 15.4053 18.8464 16.2334V16.6436H13.154V16.2334C13.154 15.4053 12.4826 14.7334 11.654 14.7334C10.8254 14.7334 10.154 15.4053 10.154 16.2334V16.6436H9.41473C7.76684 16.6436 6.28027 15.9509 5.22155 14.8452C5.21819 14.8418 5.21526 14.838 5.21191 14.8346C4.21765 13.7911 3.60272 12.3829 3.60272 10.8311V9.2041ZM23.6677 28.5H8.3327C6.85565 28.5 5.65399 27.2978 5.65399 25.8213V18.7888C6.79645 19.3311 8.0683 19.6436 9.41473 19.6436H10.154V20.0537C10.154 20.8819 10.8254 21.5537 11.654 21.5537C12.4826 21.5537 13.154 20.8818 13.154 20.0537V19.6436H18.8464V20.0537C18.8464 20.8819 19.5178 21.5537 20.3464 21.5537C21.175 21.5537 21.8464 20.8818 21.8464 20.0537V19.6436H22.5856C23.9321 19.6436 25.2039 19.3311 26.3464 18.7888V25.8213C26.3464 27.2978 25.1447 28.5 23.6677 28.5Z" fill="#F4876B"/>
    </svg>
    