<svg width="32" height="32" viewBox="0 0 32 32" fill="none" xmlns="http://www.w3.org/2000/svg">
<path fill-rule="evenodd" clip-rule="evenodd" d="M16.3136 31.4314C19.4102 31.4314 22.4373 30.5131 25.0121 28.7927C27.5868 27.0723 29.5936 24.6271 30.7786 21.7662C31.9637 18.9052 32.2737 15.7572 31.6696 12.72C31.0655 9.6829 29.5743 6.89312 27.3847 4.70347C25.195 2.51382 22.4052 1.02265 19.3681 0.418525C16.331 -0.185598 13.1829 0.12446 10.322 1.30949C7.46106 2.49452 5.01579 4.5013 3.29539 7.07605C1.575 9.65081 0.656738 12.6779 0.656738 15.7745C0.656738 19.927 2.30629 23.9094 5.24252 26.8456C8.17875 29.7818 12.1611 31.4314 16.3136 31.4314ZM24.388 11.8201C24.2835 11.4706 24.0895 11.1544 23.8252 10.9029C23.5608 10.6514 23.2354 10.4734 22.8811 10.3864C20.6774 10.1321 18.4598 10.0175 16.2416 10.0433C14.0232 10.0217 11.8057 10.1395 9.60214 10.396C9.24782 10.483 8.92237 10.661 8.65805 10.9125C8.39373 11.164 8.19972 11.4802 8.09524 11.8297C7.85389 13.1104 7.73657 14.4114 7.74491 15.7145C7.73613 17.0218 7.85669 18.3267 8.10484 19.6102C8.20921 19.9598 8.40319 20.276 8.66752 20.5275C8.93186 20.779 9.25736 20.957 9.61174 21.0439C11.8154 21.2983 14.033 21.4129 16.2512 21.387C18.4694 21.4129 20.687 21.2983 22.8907 21.0439C23.245 20.957 23.5705 20.779 23.8349 20.5275C24.0992 20.276 24.2932 19.9598 24.3976 19.6102C24.6461 18.3267 24.7666 17.0218 24.7575 15.7145C24.7611 14.4071 24.6374 13.1024 24.388 11.8189V11.8201ZM14.5499 18.1465L18.9615 15.7157L14.5475 13.2838L14.5499 18.1465Z" fill="white"/>
</svg>
